<svg xmlns="http://www.w3.org/2000/svg" viewBox="0 0 800 600" width="100%" height="100%"><defs><filter id="shadow" x="-20%" y="-20%" width="140%" height="140%"><feDropShadow dx="4" dy="6" stdDeviation="6" flood-color="#000000" flood-opacity="0.12" /></filter><filter id="blur" x="-50%" y="-50%" width="200%" height="200%"><feGaussianBlur stdDeviation="30" /></filter><clipPath id="state-clip"><path d="M591.2 156.6L592.4 156.4 595.8 161.6 598.1 161.1 599.1 157.5 602.1 153.6 607.1 153.9 613.8 149.7 621 149.1 631.2 153.6 634.2 158.4 640.8 159 646.4 157.2 650.1 161.5 656.4 164.9 665.4 160.2 668.5 160.4 672.1 162.4 675.2 166.7 680.9 166.8 682.2 168.5 688 169.2 696.5 173.7 698.8 176.3 699 177.4 695 176.6 691.3 180.6 690.9 181.9 693.3 184.7 689.5 188.3 691.1 190.6 696.4 189.8 696.2 191.9 700 194.5 695.9 199.3 696.9 201 696 208.3 694.3 208.4 689.4 204.7 683.2 206.3 674.6 215.4 668.4 219.6 667.3 222.6 662.1 221.9 656 230.4 651.7 230.7 647.1 236 647.1 238.8 648.7 238.9 648.8 242.7 650.5 244.7 647.8 252 653.9 257.3 654 260.5 657.5 265.7 660.8 267.1 666.8 274 667 276.3 674.5 283.8 674.3 285.8 672.3 288.7 668.1 287.3 667.6 288.6 665.1 289.2 656.2 282.6 644.9 279.9 642.8 276.9 646 275.2 645.8 271.8 642 270.5 642.2 268.7 636.9 263 627.4 260.3 626.8 261.8 617.4 260.9 615.8 262.9 616.3 264.2 611.8 265.8 609 269 600.4 267 596.9 268.9 586.9 268.3 583 270.6 579 270.1 574.3 272.9 564.6 275.5 558.5 279.3 549.7 293.1 541.9 297.1 535.2 296.8 530.8 302.1 528.7 309.3 526.2 310.8 521.2 308.3 517.6 311.3 517.1 314.4 514.7 317.7 508 315.6 505 317.9 502.3 324.3 499.9 324.6 497.1 327.4 497.1 329 489.8 332.1 487.3 331.7 484 334.1 479.4 333.6 479.2 331.5 476.8 330.9 476.6 328.2 474.4 326.1 477.7 320.6 474.2 319.4 473.1 316.5 473.7 314.1 471.4 313.1 474.2 310.4 476.3 310.6 476.7 308.3 476.7 306.6 474.1 304.3 473.6 302.6 474.6 301.8 472.5 299.9 472.9 294.7 475.1 295.2 476.7 294 478.2 295.9 489.2 287.7 490.6 287.4 491.3 288.9 496 285.5 499.3 285.2 500.7 281.3 499.8 276.9 505.3 271.6 508.7 271.8 513.1 275.6 522.5 272.7 526.7 272.8 535.1 269.4 535.7 270.2 540.9 269 540.5 270.4 541.9 271.8 544.3 272.2 545.5 270.2 544.7 269.5 551.1 266.6 554.2 261.9 556.8 261.1 552.6 255.2 550.5 255.3 549.1 253.5 545.5 254.5 543.5 257.7 543.4 253.9 540.6 255.4 540.7 256.4 539.5 255.3 540.3 251.5 542 250.6 543.6 247.1 542.7 242.8 536.3 239.5 536.2 236.9 534.1 237.1 532.6 234.5 534.4 232.8 531.9 230.9 533.6 228.8 531.5 228 531.5 226.1 529.8 224.5 532.8 222.9 532.3 221.2 536.6 216.1 538.7 215.4 538.7 214 542 213.1 547.6 208.1 547.1 206.6 550.4 204.2 549.9 202.4 552.3 199.8 537 198.9 514.9 200.6 511.1 202.6 506.1 208.1 491.8 212.4 484.5 209.5 466.9 214.8 437.8 223.9 436.7 226.6 432.1 227.1 428.3 230.5 424.8 229.9 423.2 231.1 420.9 230.2 420 232.3 399.5 239.4 397.8 241.5 394.7 236.9 386.4 239.3 381.4 236.8 378.8 237.9 376.7 235.8 377.3 233.2 374.9 233.6 372 236.6 373.6 237 373.8 239.7 377 241.5 378 245.1 366.5 249.8 366.8 251.1 359.6 256.7 356.6 261.3 348.9 265.3 329.6 284.2 333.8 287.3 333.2 291.6 326.7 293 326.7 294.2 322.1 296.3 315.4 301.8 298.2 304.9 294 303.4 281.3 302.5 259 306 257.1 307.2 254.5 306.3 250.3 307.2 239.6 302.2 239.7 300.2 236.5 298.4 224.5 295 218.7 295.7 213.3 294.4 211.7 299.7 205.4 302.5 191.5 302.6 186.5 306.1 182.9 305.1 176.7 306.3 176.7 307.9 171.8 307.6 165.6 309.7 157.4 309.3 157.8 301 156.5 300.5 156.3 298 153.8 296.6 154 294.2 150.2 293.1 148.8 290.2 148.4 281.2 151.7 278.9 153.1 274.5 149.6 271.9 152.6 270 156.3 270.9 158.5 269.5 152.3 264.9 150.6 261.2 151.7 257.5 150 253.8 148.4 253.3 147.6 249.7 145.1 249.4 143.5 250.9 139.9 251.3 137.8 249.8 132.5 250.2 130.2 248.6 127.8 250.5 121.8 250.8 121.4 249.7 116.4 249.8 116.8 248.7 114.4 246.6 110.1 248.9 106.2 243.3 102.9 241.4 101.3 238.7 103.1 236.1 100.9 233.9 101.9 230.8 107.7 226.7 109.3 219.6 107.4 215.2 105.5 214 102.8 215.2 101.2 214.6 100 210.9 101.8 211.4 102.3 209.9 104.1 210.7 104.9 209.9 111.2 211 116 215.6 121.2 216.5 126.5 216 127.3 214.8 130.4 218.9 131.2 222.3 133.2 223.8 138.3 224.4 145 219.4 150.9 220.2 168.1 209.3 174.1 209.4 176.6 216.3 178.4 217.7 185.1 216.4 185.1 214.7 188.3 213.3 192.4 215 197.2 210.9 202.6 214 208.7 206.8 213 206 216.1 203.5 221.7 196.7 219.5 192.9 213.9 189.5 216.1 182.9 229.1 174.4 230.2 177.6 231.3 177.6 237.5 175 239.2 172.2 244.3 169.5 246.5 170.1 247.8 172.5 251 168.5 250.4 164.2 257.4 164.7 260.6 162.4 267.5 163.4 270.4 162.6 271 154.5 266.6 151.4 276.5 144.6 279.3 137.5 279 134.6 281.4 133.6 282.2 130.5 289.7 129.3 294.4 126.8 296.3 129.1 297 126.8 298.9 125.7 300.7 126.2 301.6 128.5 311.5 129.1 323.9 125.9 328.4 128 335.2 123.6 343.9 127.8 346.6 124.9 347.7 119.9 351.5 116.8 349.1 113.7 351.2 109.9 354.2 108.8 367.3 97.9 369.5 90.6 373.4 84.6 380.5 78.7 387.6 77.9 388.9 74.6 395.4 70.7 403 71.8 406.9 71 415.1 58.6 421 61 426.4 65.4 431.7 71.5 432.8 76.9 440.5 75.6 444.3 78 448.6 77.6 454.3 80.2 455.2 79.9 454.1 78.5 450.4 77.5 450.8 75.8 452.2 76.1 462.6 79.3 463.8 81.4 477.7 82.2 477.7 87.1 479.5 88 482.4 87.2 495 90.4 496 89.3 498 89.8 500.7 86.8 502.2 78.9 507.2 80.2 507.9 76.2 506.9 71.5 511.5 70.8 512.6 66.9 516.3 68 532.5 56.5 533 58.6 538 56.8 541.1 53.1 549.3 53.9 559.7 46.4 563.6 46.4 569.7 52.4 573.4 58.2 573.7 62.1 579.4 68.8 585 68.5 591.6 63.7 593.2 64.1 594.3 67.5 590.3 75.3 580.4 76.6 576.9 78.4 573.1 83.4 565.8 85.5 569.7 87.6 572.9 93.7 572.9 96.7 569.9 98 569.1 100.2 571.8 104 577.9 100.8 585.4 92.7 588.8 90.7 599.9 89.4 607.9 86 602.9 95.3 604.6 97.8 607.5 97 609.6 102.8 609.2 105.6 617.7 116.1 617.2 119.7 614.6 123.1 603.5 126.5 605.2 131.1 598.8 136.4 596.5 136.5 596.3 138.7 590.6 139.2 587.9 142.1 591.3 144.4 592.4 146.8 581.3 154.3 585.1 155 587.7 157.3Z" /></clipPath></defs><rect width="800" height="600" fill="#F9F6F0" /><g opacity="0.32" filter="url(#blur)"><circle cx="330.0" cy="150.0" r="140" fill="#E3EFE0" /><circle cx="400.0" cy="190.0" r="170" fill="#FAF2D8" /><circle cx="470.0" cy="230.0" r="130" fill="#F7DEC0" /></g><g filter="url(#shadow)"><g clip-path="url(#state-clip)"><rect width="800" height="600" fill="#F9F6F0" /><g opacity="0.75" filter="url(#blur)"><circle cx="330.0" cy="150.0" r="140" fill="#E3EFE0" /><circle cx="400.0" cy="190.0" r="170" fill="#FAF2D8" /><circle cx="470.0" cy="230.0" r="130" fill="#F7DEC0" /></g></g><path d="M591.2 156.6L592.4 156.4 595.8 161.6 598.1 161.1 599.1 157.5 602.1 153.6 607.1 153.9 613.8 149.7 621 149.1 631.2 153.6 634.2 158.4 640.8 159 646.4 157.2 650.1 161.5 656.4 164.9 665.4 160.2 668.5 160.4 672.1 162.4 675.2 166.7 680.9 166.8 682.2 168.5 688 169.2 696.5 173.7 698.8 176.3 699 177.4 695 176.6 691.3 180.6 690.9 181.9 693.3 184.7 689.5 188.3 691.1 190.6 696.4 189.8 696.2 191.9 700 194.5 695.9 199.3 696.9 201 696 208.3 694.3 208.4 689.4 204.7 683.2 206.3 674.6 215.4 668.4 219.6 667.3 222.6 662.1 221.9 656 230.4 651.7 230.7 647.1 236 647.1 238.8 648.7 238.9 648.8 242.7 650.5 244.7 647.8 252 653.9 257.3 654 260.5 657.5 265.7 660.8 267.1 666.8 274 667 276.3 674.5 283.8 674.3 285.8 672.3 288.7 668.1 287.3 667.6 288.6 665.1 289.2 656.2 282.6 644.9 279.9 642.8 276.9 646 275.2 645.8 271.8 642 270.5 642.2 268.7 636.9 263 627.4 260.3 626.8 261.8 617.4 260.9 615.8 262.9 616.3 264.2 611.8 265.8 609 269 600.4 267 596.9 268.9 586.9 268.3 583 270.6 579 270.1 574.3 272.9 564.6 275.5 558.5 279.3 549.7 293.1 541.9 297.1 535.2 296.8 530.8 302.1 528.7 309.3 526.2 310.8 521.2 308.3 517.6 311.3 517.1 314.4 514.7 317.7 508 315.6 505 317.9 502.3 324.3 499.9 324.6 497.1 327.4 497.1 329 489.8 332.1 487.3 331.7 484 334.1 479.4 333.6 479.2 331.5 476.8 330.9 476.6 328.2 474.4 326.1 477.7 320.6 474.2 319.4 473.1 316.5 473.7 314.1 471.4 313.1 474.2 310.4 476.3 310.6 476.7 308.3 476.7 306.6 474.1 304.3 473.6 302.6 474.6 301.8 472.5 299.9 472.9 294.7 475.1 295.2 476.7 294 478.2 295.9 489.2 287.7 490.6 287.4 491.3 288.9 496 285.5 499.3 285.2 500.7 281.3 499.8 276.9 505.3 271.6 508.7 271.8 513.1 275.6 522.5 272.7 526.7 272.8 535.1 269.4 535.7 270.2 540.9 269 540.5 270.4 541.9 271.8 544.3 272.2 545.5 270.2 544.7 269.5 551.1 266.6 554.2 261.9 556.8 261.1 552.6 255.2 550.5 255.3 549.1 253.5 545.5 254.5 543.5 257.7 543.4 253.9 540.6 255.4 540.7 256.4 539.5 255.3 540.3 251.5 542 250.6 543.6 247.1 542.7 242.8 536.3 239.5 536.2 236.9 534.1 237.1 532.6 234.5 534.4 232.8 531.9 230.9 533.6 228.8 531.5 228 531.5 226.1 529.8 224.5 532.8 222.9 532.3 221.2 536.6 216.1 538.7 215.4 538.7 214 542 213.1 547.6 208.1 547.1 206.6 550.4 204.2 549.9 202.4 552.3 199.8 537 198.9 514.9 200.6 511.1 202.6 506.1 208.1 491.8 212.4 484.5 209.5 466.9 214.8 437.8 223.9 436.7 226.6 432.1 227.1 428.3 230.5 424.8 229.9 423.2 231.1 420.9 230.2 420 232.3 399.5 239.4 397.8 241.5 394.7 236.9 386.4 239.3 381.4 236.8 378.8 237.9 376.7 235.8 377.3 233.2 374.9 233.6 372 236.6 373.6 237 373.8 239.7 377 241.5 378 245.1 366.5 249.8 366.8 251.1 359.6 256.7 356.6 261.3 348.9 265.3 329.6 284.2 333.8 287.3 333.2 291.6 326.7 293 326.7 294.2 322.1 296.3 315.4 301.8 298.2 304.9 294 303.4 281.3 302.5 259 306 257.1 307.2 254.5 306.3 250.3 307.2 239.6 302.2 239.7 300.2 236.5 298.4 224.5 295 218.7 295.7 213.3 294.4 211.7 299.7 205.4 302.5 191.5 302.6 186.5 306.1 182.9 305.1 176.7 306.3 176.7 307.9 171.8 307.6 165.6 309.7 157.4 309.3 157.8 301 156.5 300.5 156.3 298 153.8 296.6 154 294.2 150.2 293.1 148.8 290.2 148.4 281.2 151.7 278.9 153.1 274.5 149.6 271.9 152.6 270 156.3 270.9 158.5 269.5 152.3 264.9 150.6 261.2 151.7 257.5 150 253.8 148.4 253.3 147.6 249.7 145.1 249.4 143.5 250.9 139.9 251.3 137.8 249.8 132.5 250.2 130.2 248.6 127.8 250.5 121.8 250.8 121.4 249.7 116.4 249.8 116.8 248.7 114.4 246.6 110.1 248.9 106.2 243.3 102.9 241.4 101.3 238.7 103.1 236.1 100.9 233.9 101.9 230.8 107.7 226.7 109.3 219.6 107.4 215.2 105.5 214 102.8 215.2 101.2 214.6 100 210.9 101.8 211.4 102.3 209.9 104.1 210.7 104.9 209.9 111.2 211 116 215.6 121.2 216.5 126.5 216 127.3 214.8 130.4 218.9 131.2 222.3 133.2 223.8 138.3 224.4 145 219.4 150.9 220.2 168.1 209.3 174.1 209.4 176.6 216.3 178.4 217.7 185.1 216.4 185.1 214.7 188.3 213.3 192.4 215 197.2 210.9 202.6 214 208.7 206.8 213 206 216.1 203.5 221.7 196.7 219.5 192.9 213.9 189.5 216.1 182.9 229.1 174.4 230.2 177.6 231.3 177.6 237.5 175 239.2 172.2 244.3 169.5 246.5 170.1 247.8 172.5 251 168.5 250.4 164.2 257.4 164.7 260.6 162.4 267.5 163.4 270.4 162.6 271 154.5 266.6 151.4 276.5 144.6 279.3 137.5 279 134.6 281.4 133.6 282.2 130.5 289.7 129.3 294.4 126.8 296.3 129.1 297 126.8 298.9 125.7 300.7 126.2 301.6 128.5 311.5 129.1 323.9 125.9 328.4 128 335.2 123.6 343.9 127.8 346.6 124.9 347.7 119.9 351.5 116.8 349.1 113.7 351.2 109.9 354.2 108.8 367.3 97.9 369.5 90.6 373.4 84.6 380.5 78.7 387.6 77.9 388.9 74.6 395.4 70.7 403 71.8 406.9 71 415.1 58.6 421 61 426.4 65.4 431.7 71.5 432.8 76.9 440.5 75.6 444.3 78 448.6 77.6 454.3 80.2 455.2 79.9 454.1 78.5 450.4 77.5 450.8 75.8 452.2 76.1 462.6 79.3 463.8 81.4 477.7 82.2 477.7 87.1 479.5 88 482.4 87.2 495 90.4 496 89.3 498 89.8 500.7 86.8 502.2 78.9 507.2 80.2 507.9 76.2 506.9 71.5 511.5 70.8 512.6 66.9 516.3 68 532.5 56.5 533 58.6 538 56.8 541.1 53.1 549.3 53.9 559.7 46.4 563.6 46.4 569.7 52.4 573.4 58.2 573.7 62.1 579.4 68.8 585 68.5 591.6 63.7 593.2 64.1 594.3 67.5 590.3 75.3 580.4 76.6 576.9 78.4 573.1 83.4 565.8 85.5 569.7 87.6 572.9 93.7 572.9 96.7 569.9 98 569.1 100.2 571.8 104 577.9 100.8 585.4 92.7 588.8 90.7 599.9 89.4 607.9 86 602.9 95.3 604.6 97.8 607.5 97 609.6 102.8 609.2 105.6 617.7 116.1 617.2 119.7 614.6 123.1 603.5 126.5 605.2 131.1 598.8 136.4 596.5 136.5 596.3 138.7 590.6 139.2 587.9 142.1 591.3 144.4 592.4 146.8 581.3 154.3 585.1 155 587.7 157.3Z" fill="none" stroke="#1B432E" stroke-width="2.5" stroke-linejoin="round" stroke-linecap="round" /><path d="M647.3 235.5L635.3 232.5 634.4 235.2 633.3 235.1 629.9 232.1 627.8 231.9 626.9 230.4 628.6 226.4 626.6 222.1 628.1 220 627.1 218.8 628.9 218.1 628.1 214 625.1 213.4 623.3 209.8 618.6 208 614.8 204.1 608.3 206.7 599.1 204.5 595.6 197.3 592.5 196 593.8 195.4 594.9 190.8 592.4 186.3 593.1 183.6 595.1 182.9 595.2 180.4 598.1 178.1 593 169.9 594.7 165.4 591.2 156.6 592.4 156.4 595.8 161.6 598.1 161.1 599.1 157.5 602.1 153.6 607.1 153.9 613.8 149.7 621 149.1 631.2 153.6 634.2 158.4 640.8 159 646.4 157.2 650.1 161.5 656.4 164.9 665.4 160.2 668.5 160.4 672.1 162.4 675.2 166.7 680.9 166.8 682.2 168.5 688 169.2 696.5 173.7 698.8 176.3 699 177.4 695 176.6 691.3 180.6 690.9 181.9 693.3 184.7 689.5 188.3 691.1 190.6 696.4 189.8 696.2 191.9 700 194.5 695.9 199.3 696.9 201 696 208.3 694.3 208.4 689.4 204.7 683.2 206.3 674.6 215.4 668.4 219.6 667.3 222.6 662.1 221.9 656 230.4 651.7 230.7 647.3 235.5ZM542.5 242.4L555.4 241.3 561.5 236.3 567.7 234.8 578.3 240.1 584.7 241.4 588.9 239 592.4 232.9 597.8 231.5 608.6 233.1 609.2 232 614.9 230.9 621 234 627.1 230.7 633.3 235.1 634.4 235.2 635.3 232.5 645.4 234.3 647.3 235.5 647.1 238.8 648.7 238.9 648.8 242.7 650.5 244.7 647.8 252 653.9 257.3 654 260.5 657.5 265.7 660.8 267.1 666.8 274 667 276.3 674.7 284.6 672.3 288.7 668.1 287.3 667.6 288.6 664.2 289 660.7 285 657 284.1 656.2 282.6 647.4 281.1 643.1 278.6 642.8 276.9 646 275.2 645.8 271.8 642 270.5 642.2 268.7 636.9 263 627.4 260.3 626.8 261.8 617.4 260.9 615.8 262.9 616.3 264.2 611.8 265.8 609 269 602.1 267 595.5 269.1 585.9 268.4 583 270.6 579 270.1 574.3 272.9 564.6 275.5 557.9 279.9 549.7 293.1 541.9 297.1 535.2 296.8 530.8 302.1 529.2 308.9 526.2 310.8 522.9 309.1 521.5 301.7 517.2 299.7 516.8 298.2 519.2 291.2 518.1 287.3 515.5 284.4 519.7 279.3 517 274.7 522.5 272.7 526.7 272.8 535.1 269.4 535.7 270.2 540.9 269 540.5 270.4 541.9 271.8 544.3 272.2 545.5 270.2 544.7 269.5 551.1 266.6 554.2 261.9 556.8 261.1 552.6 255.2 550.5 255.3 549.1 253.5 545.5 254.5 543.5 257.7 543.4 253.9 540.6 255.4 540.7 256.4 539.5 255.3 540.3 251.5 542 250.6 543.6 247.1 542.5 242.4ZM481 87.5L493.7 90.4 498 89.8 501.8 84.7 502.2 78.9 507.2 80.2 507.9 76.2 506.9 71.5 511.5 70.8 512.6 66.9 516.3 68 532.5 56.5 533 58.6 538 56.8 541.1 53.1 549.3 53.9 556.2 49.8 558.4 47.1 562.2 45.9 569.7 52.4 573.4 58.2 573.7 62.1 579.4 68.8 585 68.5 591.6 63.7 593.2 64.1 594.1 66.2 591.2 74.7 580.4 76.6 576.9 78.4 573.1 83.4 565.8 85.5 569.7 87.6 572.9 93.7 572.9 96.7 569.9 98 569.1 100.2 571.8 104 577.9 100.8 585.4 92.7 588.8 90.7 598.6 89.7 607.9 86 602.9 95.3 604.6 97.8 607.5 97 609.6 102.8 609.2 105.6 617.1 114.8 617.8 117.4 614.6 123.1 603.1 126.8 605.2 131.1 598.8 136.4 596.5 136.5 596.3 138.7 590.6 139.2 587.9 142.1 592.5 146.1 589.1 149.2 585.8 145.2 580.5 145.4 577.4 142.7 572.8 141.3 572.6 143.3 568.4 143.7 566.4 146.7 561.2 146.5 559 152.5 550 156.6 544.7 155 544.6 153.8 541 151.6 536.5 152.2 531.2 157.2 532.2 162.6 529.5 163.3 528.2 161.1 524 160.9 522.4 158 512.8 157.7 510.6 154.4 512.4 151.7 513.2 146.3 510.3 144.2 506.5 144.4 506.3 142.9 504.1 142.9 499.1 139.2 496.3 140.2 492.2 137.2 489.1 123.6 493.1 119.9 491 117.4 491.6 116.2 489.8 115 489.4 111.4 486.1 109.5 485.4 105 486.5 104.3 485.6 102.6 486.4 100.8 483.7 97.8 482.1 98.9 479.2 98.5 479.8 97.1 478 93.8 481.7 90 481 87.5ZM275.9 237.5L277 239.3 279.1 239.2 282 241.7 278.3 245.1 281.6 251.2 280.4 253.3 285.7 255.5 286.4 260.5 281.9 262.1 278.8 257.5 268.1 259.7 265 266.5 248.3 272.8 246.5 275.9 249 277.8 255.5 277.6 256.4 279.3 255.1 280.9 249.3 283.8 243.8 282.2 237.3 284.6 231.6 284.9 228.6 280.3 236.6 277.9 235.2 271.9 234 272 233.4 269.8 235 268.8 236.7 269.6 237.1 267.7 236.2 263.8 227.7 262.7 229.9 259.5 229.6 256.1 228 255.6 228.5 253.7 234.4 251.1 231.7 250 231.1 248.5 225.1 249.7 225.7 245 228.5 244.1 226.5 238.8 220 234.4 218.7 228.9 215.3 225.6 212.6 219.7 203.9 212.7 208.7 206.8 213 206 220.8 198 223.7 200.5 233.8 200.3 240.9 203.8 242.5 211.7 246.3 214.1 255.9 213.7 257.9 215.5 266.2 214.2 268.4 211.8 272.4 216.2 271.2 220.4 268.8 223.2 270.9 225.8 268.1 229.3 271.4 232.1 272.5 235.4 271.7 236.3 275.9 237.5ZM506.1 208.1L491.8 212.4 484.5 209.5 466.9 214.8 464.7 210.6 465.3 205.9 460.3 204.6 462 199.3 459.8 193.6 464.7 193.5 475.1 190.2 477.5 191.1 482.5 186.7 483.2 183.6 471.8 178.2 473.5 179.3 474.2 177.7 478.1 177.7 479.9 175.5 482.7 175 481.8 172.3 485.1 171.5 486.5 168.7 485.7 166.5 487 165.1 489.4 165.2 491.2 163 492.8 164.5 497.3 163.7 500.5 169.6 507.8 166.8 510.6 169.9 511.2 184 509.8 192.5 504.2 200.9 506.1 208.1ZM296.5 167.6L295.2 169.9 295.3 176.7 297 182.3 296.2 183.3 301.6 189.1 305.2 189.2 311.4 192.4 309.3 197.7 309.5 199.4 311.7 200.8 308.9 205.7 310.6 208.6 308 217.2 301 223.3 302.9 227.1 302.6 231.7 300.2 235.1 296.8 236.5 292.2 233.8 286.9 234.8 283 233.5 275.9 237.5 272 236.6 271.4 232.1 268.1 229.3 270.9 225.8 268.8 223.2 272.3 217 270.4 213.2 267.7 211.7 266.2 214.2 257.9 215.5 255.9 213.7 245 213.6 244.1 211.9 242.5 211.7 241.1 208.5 240.9 203.8 233.8 200.3 223.2 200.3 220.8 198 221.7 196.7 219.5 192.9 213.9 189.5 215.3 183.8 228.2 174.8 229.5 174.4 230.2 177.6 233 177.3 244.3 169.5 246.5 170.1 247.8 172.5 251 168.5 250.4 164.2 257.4 164.7 260.6 162.4 267.5 163.4 270.4 162.6 273 159.2 276.1 158.2 278.1 161 281.2 159.9 285 160.7 285 162 287.2 162.8 286.9 164 290.1 164.4 291.8 167.1 296.5 167.6ZM589.1 149.2L581.3 154.3 585.1 155 587.3 157.1 581.7 164.6 579.3 164.7 581.1 170.1 578 171.6 572.6 177.8 569.9 179.3 565.8 176.7 559.4 175.8 558.3 180.7 552.9 187.8 552.8 199.6 537 198.9 514.9 200.6 511.1 202.6 506.1 208.1 504.2 200.9 510.7 189.5 510.5 169.5 507.8 166.8 500.5 169.6 497.3 163.7 492.8 164.5 491.2 163 490.9 159.5 487.5 158.5 487.6 154.3 485.7 152.3 487.5 151.1 487.6 146.8 493.4 143.2 495 139.6 498.5 139.1 504.1 142.9 506.3 142.9 506.5 144.4 510.3 144.2 513.2 146.3 512.4 151.7 510.6 154.4 512.8 157.7 522.4 158 524 160.9 528.2 161.1 529.5 163.3 532.2 162.6 531.2 157.2 536.5 152.2 541 151.6 544.6 153.8 544.7 155 550 156.6 559 152.5 561.2 146.5 566.4 146.7 568.4 143.7 572.6 143.3 572.8 141.3 577.4 142.7 580.5 145.4 585.8 145.2 589.1 149.2ZM299.9 235.3L302.6 237 303 240 307.9 245.5 308.2 248.5 312 250.8 306.9 253.6 304.5 257.4 305.7 258.7 306.9 258.2 309 262.9 308.4 264.8 313.4 268.4 319.5 267.1 321.6 267.9 324.5 266.5 326.6 268.3 328.2 267.2 332.4 267.4 337.6 257.9 341.4 255.1 341.1 251.3 342.7 252.4 347.7 250.3 350.4 252.3 360.1 248.8 364.5 249.8 364.9 252.7 359.6 256.7 356.6 261.3 348.9 265.3 337.1 277.7 330.6 282.8 329.7 285.2 331.3 285.1 333.8 287.3 333.2 291.6 326.7 293 326.7 294.2 322.1 296.3 316.4 301.5 296.3 304.9 294 303.4 288.1 302.7 286.5 299.9 282.9 299.1 283.1 294.4 280.1 290.2 278.4 290.6 275.6 287.7 270 286.7 269.7 285 272.9 282.7 275.7 282.7 279.8 280.6 276.1 276.8 270.6 277.9 271.1 272.7 278.2 268.7 277.6 264.8 279.1 263.5 286.4 260.5 285.7 255.5 280.4 253.3 281.6 251.2 278.3 245.1 282 241.7 279.1 239.2 277 239.3 275.9 237.5 283 233.5 286.9 234.8 292.2 233.8 295.8 236.4 299.9 235.3ZM193.3 214.7L193 222.4 191.4 223.2 188.1 221.9 187.5 226.4 185.6 229.5 175.2 231.5 170.7 230 170.6 233 168.1 235.5 169.7 238 168.8 240.1 167.1 240.9 162.9 239.7 159.2 242.8 156.8 246.9 148.4 250.3 147.9 252.3 146.8 249.3 139.9 251.3 137.8 249.8 132.5 250.2 130.2 248.6 127.8 250.5 121.8 250.8 121.4 249.7 116.4 249.8 116.8 248.7 114.4 246.6 110.1 248.9 101.3 238.7 103.1 236.1 100.9 233.9 101.1 232.6 105.4 227.6 107.7 226.7 109.3 219.6 108.4 216.3 106.2 214.2 101.2 214.6 100 210.9 101.8 211.4 102.3 209.9 111.2 211 116 215.6 121.2 216.5 126.5 216 127.3 214.8 130.4 218.9 131.2 222.3 133.2 223.8 138.3 224.4 145 219.4 150.9 220.2 168.1 209.3 174.1 209.4 177.7 217.6 185.1 216.4 185.1 214.7 188.3 213.3 193.3 214.7ZM517 274.7L519.7 279.3 515.5 284.4 518.1 287.3 519.2 291.2 516.8 298.2 517.2 299.7 521.5 301.7 522.9 309.1 521.2 308.3 517.6 311.3 517.1 314.4 514.7 317.7 508.7 315.3 504.7 318.9 503.7 317 504.6 311 498 312 494.5 310.1 490.6 305 491.5 297.5 489.8 295 492.7 293.8 492.5 289.8 491.3 288.8 496 285.5 499.3 285.2 500.7 281.3 499.8 276.9 504.9 271.8 508.7 271.8 513.1 275.6 517 274.7ZM481 87.5L481.7 90 478.1 93.3 478.1 94.7 479.8 97.1 479.2 98.5 482.1 98.9 483.7 97.8 486.4 100.8 485.6 102.6 486.5 104.3 485.4 105 486.1 109.5 489.4 111.4 489.8 115 491.6 116.2 491 117.4 493.1 119.9 489.1 123.6 489.8 128.3 492.2 137.2 494.1 137.6 495 139.6 493.4 143.2 487.6 146.8 487.5 151.1 485.7 152.3 487.6 154.3 487.5 158.5 490.9 159.5 491.2 163 490.1 164.8 487 165.1 485.7 166.5 486.5 168.7 485.1 171.5 481.8 172.3 482.7 175 479.9 175.5 478.1 177.7 474.2 177.7 473.5 179.3 470 176.7 469.6 173.9 465.2 172.9 462.5 167.6 463.5 162.4 459.2 159.6 460.8 155.9 459.6 153.8 463.3 149.2 462.4 147.1 463.2 145 460.9 143.5 460.9 141.8 458.3 141.3 455.2 142.6 454.1 139.5 452.1 138.3 449.3 138.8 446.9 136.4 440.1 139.9 435.1 136.9 427.5 139.8 425.6 137.6 426.2 134.6 424.4 129.5 426 124.5 423.9 120.6 421.6 119.3 414.4 118.8 406.9 112.4 403.3 111.6 398.9 104.6 396.3 103.3 393.2 98.6 389.1 96.4 390.1 92.3 387.3 90.1 384 89.5 382.6 87 383.2 85.7 380.3 85.2 378.2 83.3 380.7 78.7 387.6 77.9 388.9 74.6 395.4 70.7 400.3 71.7 406.9 71 415.1 58.6 421 61 426.4 65.4 431.7 71.5 432.8 76.9 440.5 75.6 444.3 78 448.6 77.6 454.3 80.2 455.2 79.9 454.1 78.5 450.4 77.5 450.8 75.8 452.2 76.1 462.6 79.3 463.8 81.4 477.7 82.2 477.7 87.1 481 87.5ZM345.3 126.7L353.7 130 353.8 138.7 361.6 142 361.1 146.8 364.9 151.1 373.8 152.2 374.9 150.4 380.3 152.2 382.2 153.8 382.1 157.8 384.3 159.6 387.7 160.2 389.5 161.9 391.7 161.3 392.1 163 388.8 165.4 390.9 168.6 388 172.4 388.2 175 386.9 176.3 389.3 178.5 388.8 179.9 390.6 182.2 390.5 188 396.9 190.6 399.4 193.7 403.1 195 404.5 197.3 402.7 200 405.1 201 407.9 205.9 411.4 206.9 411.4 209.2 402.5 212.5 398.5 212.6 384.4 220.5 383.2 218.9 386.4 213.2 383.2 211.2 383.5 206.2 380.5 199.5 377.6 197.4 373.2 197.7 370.4 199.7 368.3 197.9 364.3 197.3 362.2 198.5 360.2 197.9 357.2 202 355.7 200.5 345.3 197.9 344.7 195.9 342.2 195.3 341.5 192.9 337.7 190.4 339.2 185.7 337.6 183.8 337.4 180.4 334.5 178.1 334.2 171.1 331 168.8 327.2 168.9 326.1 167 323.2 166.6 319.8 163.3 316.4 163.6 315.2 164.9 312.3 164.5 310.8 168.1 304.6 169.4 297.4 167.2 295.1 168.2 294.1 166.9 291.8 167.1 290.1 164.4 286.9 164 287.2 162.8 285 162 285 160.7 282.4 159.9 278.1 161 276.1 158.2 273 159.2 270.9 161.6 271 154.5 266.6 151.4 276.5 144.6 279.3 137.5 279 134.6 281.4 133.6 282.8 130.1 289.7 129.3 294.4 126.8 296.3 129.1 297 126.8 298.9 125.7 300.7 126.2 301.6 128.5 311.5 129.1 323.9 125.9 328.4 128 335.2 123.6 342.4 127.4 345.3 126.7ZM211.9 296.7L211.7 299.7 205.4 302.5 191.5 302.6 186.5 306.1 182.9 305.1 176.7 306.3 176.7 307.9 158 309.8 157.8 301 156.5 300.5 156.3 298 153.8 296.6 154 294.2 150.2 293.1 148 287.2 149.3 284.6 148.4 281.2 151.7 278.9 153.1 274.5 149.6 271.9 152.6 270 156.3 270.9 158.5 269.5 152.3 264.9 150.6 261.2 151.7 257.5 150 253.8 147.9 252.3 148.4 250.3 156.8 246.9 159.2 242.8 162.9 239.7 167.1 240.9 168.8 240.1 169.7 238 168.1 235.5 170.6 233 170.7 230 175.2 231.5 182.7 230.4 185.6 229.5 187.9 226.7 189.1 233.1 187.1 233.5 182.7 239.8 185.3 249.4 184.4 252.4 190.3 256.4 192.8 260.7 200.9 262 202 263.4 199.9 265 201 266.5 206.2 266.1 213.7 261 215.2 258.1 219.7 260.2 222.5 260.1 223.4 258.9 227.9 258.3 228.1 255.7 229.3 255.7 229.9 259.5 228.8 259.9 227 266.3 228.2 268.9 225.5 272.3 225.5 276.6 224 278.5 207.7 284.2 207.1 288.8 206 289.6 206.8 293.2 211.9 296.7ZM391.9 98.5L389.7 106 393.9 112.7 395.2 113 394.9 118.7 400.1 125.2 398.4 131.9 396.6 132.9 397.3 135.4 399.7 134.5 405.4 135.7 405.6 141.3 407.9 145.8 406.1 146.7 406.3 148 401.7 148.8 400.2 155.5 396.2 154.7 391.7 161.3 389.5 161.9 382.1 157.8 382.2 153.8 380.3 152.2 374.9 150.4 373.8 152.2 364.9 151.1 361.1 146.8 361.6 142 353.8 138.7 353.7 130 345.3 126.7 347.7 119.9 351.5 116.8 349.1 113.7 351.2 109.9 354.2 108.8 367.3 97.9 369.5 90.6 373.4 84.6 380.5 78.7 378.7 84.2 383.2 85.7 382.6 87 384 89.5 387.3 90.1 390.1 92.3 388.6 95.6 391.9 98.5ZM587.2 240L584.7 241.4 580.1 240.6 567.7 234.8 561.5 236.3 555.4 241.3 541 242.7 536.3 239.5 536.7 237.3 534.1 237.1 532.8 235.2 534.4 232.8 531.9 230.9 533.6 228.8 531.5 228 531.5 226.1 529.8 224.5 535.3 223 557.7 211.3 576.6 208.5 583.3 217.7 582 224.7 583 231.7 585.2 234.1 584.5 237.4 587.2 240ZM445.7 190.8L443.3 194.3 434.4 197.4 422.1 194 419 191.7 412.3 189.6 408.6 190.9 402.3 190.3 399.4 193.7 396.9 190.6 390.5 188 390.6 182.2 388.8 179.9 389.3 178.5 386.9 176.3 388.2 175 388 172.4 390.9 168.6 388.8 165.4 392.1 163 391.7 161.3 396.2 154.7 400.2 155.5 402.4 160.3 408 162.5 409.9 167 413.3 169.6 412.4 175.3 413.5 180.6 416.2 179 418.1 174.8 421.3 173.8 425 173.2 429.8 176.8 432.5 176.9 436.2 173.5 439.7 173.8 442.5 177.5 442.5 180.8 444.5 183 447.1 183.5 443 187.9 445.7 190.8ZM471.8 178.2L483.2 183.6 482.5 186.7 477.5 191.1 475.1 190.2 464.7 193.5 459.8 193.6 445.1 190.5 443 187.9 447.1 183.5 444.5 183 442.5 180.8 442.5 177.5 439.7 173.8 436.2 173.5 432.5 176.9 429.8 176.8 425 173.2 421.3 173.8 418.1 174.8 416.2 179 413.5 180.6 412.4 175.3 413.3 169.6 409.9 167 408 162.5 404.6 162 400.6 157.5 401.7 148.8 406.3 148 407.8 145.1 405.6 141.3 405.4 135.7 399.7 134.5 397.3 135.4 396.6 132.9 398.4 131.9 400.1 125.2 394.9 118.7 395.2 113 393.9 112.7 389.7 106 391.9 98.5 398.9 104.6 403.3 111.6 406.9 112.4 414.4 118.8 421.6 119.3 423.9 120.6 426 124.5 424.4 129.5 426.2 134.6 425.6 137.6 427.5 139.8 435.1 136.9 440.1 139.9 446.9 136.4 449.3 138.8 452.1 138.3 454.1 139.5 455.2 142.6 458.3 141.3 460.9 141.8 460.9 143.5 463.2 145 462.4 147.1 463.3 149.2 459.6 153.8 460.8 155.9 459.2 159.6 463.5 162.4 462.5 167.6 465.2 172.9 469.6 173.9 470 176.7 471.8 178.2ZM490.6 287.4L482.8 291.6 478.2 295.9 476.7 294 472.8 295 472.5 299.9 474.6 301.8 473.6 302.6 474.1 304.3 476.7 306.6 476.7 308.3 476.3 310.6 474.2 310.4 471.4 313.1 473.7 314.1 473.1 316.5 474.2 319.4 477.7 320.6 474.4 326.1 476.2 327.4 476.8 330.9 479.2 331.5 479.5 333.7 484 334.1 487.3 331.7 489.8 332.1 497.1 329 497.1 327.4 499.9 324.6 502.3 324.3 504.6 319.6 503.7 317 504.6 311 498 312 494.5 310.1 490.6 305 491.5 297.5 489.8 295 492.7 293.8 492.5 289.8 490.6 287.4ZM281.9 262.1L277.6 264.8 278.2 268.7 271.1 272.7 271.8 273.5 270.5 276.4 271.3 278.3 276.1 276.8 279.8 280.6 275.7 282.7 272.9 282.7 269.7 285 270 286.7 275.6 287.7 278.4 290.6 280.1 290.2 283.1 294.4 282.9 299.1 286.5 299.9 288.1 302.7 274.9 303.1 257.1 307.2 254.5 306.3 250.3 307.2 239.6 302.2 239.7 300.2 236.5 298.4 224.5 295 218.7 295.7 213.3 294.4 211.9 296.7 206.8 293.2 206 289.6 209 283.3 219 280.6 222.5 278.4 228.6 280.3 231.6 284.9 237.3 284.6 243.8 282.2 249.3 283.8 256.4 279.3 255.5 277.6 249 277.8 246.5 275.9 248.3 272.8 265 266.5 268.1 259.7 278.8 257.5 281.9 262.1ZM372 236.1L377.6 230.4 386.8 225.1 386.9 223.7 385 224.2 382.5 222.6 383.2 218.9 384.4 220.5 398.5 212.6 402.5 212.5 411.4 209.2 415.2 209.6 416.6 211.3 424 213.9 424.6 217 426.9 219.2 442.6 214.2 442.8 212.4 445.3 210.6 443.2 210.2 439.2 204.4 442.6 198.7 441.1 196.4 445.7 190.8 459.8 193.6 462 199.3 460.3 204.6 465.3 205.9 464.7 210.6 466.9 214.8 437.8 223.9 436.7 226.6 432.1 227.1 428.3 230.5 424.8 229.9 423.2 231.1 420.9 230.2 420 232.3 399.5 239.4 397.8 241.5 394.7 236.9 388.4 239.5 381.4 236.8 378.8 237.9 376.7 235.8 377.3 233.2 374.9 233.6 372 236.1ZM443.3 194.3L441.1 196.4 442.6 198.7 439.2 204.8 443.2 210.2 445.3 210.6 442.8 212.4 442.6 214.2 426.9 219.2 424.6 217 424 213.9 416.6 211.3 415.2 209.6 411.4 209.2 411.4 206.9 407.4 205.4 405.1 201 402.7 200 404.5 197.3 404 196.3 400.1 193.7 402.3 190.3 408.6 190.9 412.3 189.6 419 191.7 422.1 194 427.5 194.8 431.5 197.3 434.4 197.4 443.3 194.3ZM228.6 280.3L225.8 280.1 224 278.5 225.5 276.6 225.5 272.3 228.2 268.9 227 266.3 228.3 264.3 227.7 262.7 236.2 263.8 237 269.4 235 268.8 233.4 269.8 234 272 235.2 271.9 236.6 277.9 228.6 280.3ZM193.3 214.7L193 222.4 191.4 223.2 188.1 221.9 187.1 224.2 189.1 233.1 187.1 233.5 182.7 239.8 185.3 249.4 185 253.7 190.3 256.4 192.8 260.7 200.9 262 202 263.4 199.9 265 201 266.5 206.2 266.1 213.7 261 215.2 258.1 219.7 260.2 227.9 258.3 228.2 254 234.4 251.1 231.7 250 231.1 248.5 225.1 249.7 225.7 245 228.5 244.1 227.8 241.7 225.2 237.4 220 234.4 218.7 228.9 215.3 225.6 212.6 219.7 204.3 212.9 202.6 214 198.5 211.1 196.1 211.3 193.3 214.7ZM348.1 198.3L345.1 199.9 345.1 202.1 342.2 203.1 340.5 207 345.6 209.8 342.1 215.6 339.1 217.2 341.6 218.4 340.9 222.4 329.2 226.6 324 226.7 320.5 229.8 318 230 306.2 237 302.6 237 299.9 235.3 302.9 230 302.6 225.9 301 223.3 308 217.2 310.4 210.7 308.9 205.7 311.7 200.8 309.5 199.4 309.3 197.7 311.5 193.1 305.2 189.2 301.6 189.1 296.2 183.3 297 182.3 295.3 176.7 295.2 169.9 296.8 167.2 306.3 169.4 310.8 168.1 312.3 164.5 315.2 164.9 316.4 163.6 319.8 163.3 323.2 166.6 326.1 167 327.2 168.9 331 168.8 334.2 171.1 334.5 178.1 337.4 180.4 337.6 183.8 339.2 185.7 337.7 190.4 341.5 192.9 342.2 195.3 344.7 195.9 345.3 197.9 348.1 198.3ZM383.2 218.9L382.5 222.6 385 224.2 386.9 223.7 386.8 225.1 377.6 230.4 372 236.1 373.6 237 373.8 239.7 377 241.5 378 245.1 366.5 249.8 366.8 251.1 364.9 252.7 364.5 249.8 357.1 249.4 355.4 248.1 355.6 245.1 353.2 243 351 243.2 345.3 236.7 338.7 234.3 342 230.3 340.9 226.4 337.6 223.5 341 222.1 341.6 218.4 339.1 217.2 342.1 215.6 345.6 210.2 340.5 207 342.2 203.1 345.1 202.1 345.1 199.9 348.1 198.3 355.7 200.5 357.2 202 360.2 197.9 368.3 197.9 370.4 199.7 373.2 197.7 377.6 197.4 381.8 202 383.7 207.4 383.2 211.2 386.4 213.2 383.2 218.9ZM341.5 231L339.7 231.9 336.6 231.2 332.7 233.3 328 233.1 326.4 234.7 326 236.2 329.2 237.7 328.4 241.9 331.6 247.5 335 249.5 339.6 248.9 340 247.6 347.8 245 350.5 242.7 353.2 243 355.6 245.1 355.4 248.1 357.1 249.4 350.4 252.3 347.7 250.3 342.7 252.4 341.1 251.3 341.4 255.1 337.6 257.9 334.5 262.5 334.8 264.6 331.8 267.6 328.2 267.2 326.6 268.3 324.5 266.5 314.5 268.6 308.4 264.8 309 262.9 306.9 258.2 305.7 258.7 304.5 257.4 306.9 253.6 312 250.8 308.2 248.5 307.9 245.5 303 240 302.6 237 309.3 235.8 318 230 323.4 228.1 324 226.7 329.2 226.6 337.6 223.5 340.9 226.4 341.5 231ZM350.5 242.7L347.8 245 340 247.6 339.6 248.9 334 249.2 330.6 246.2 328.4 241.9 329.2 237.7 326 236.2 326.4 234.7 328 233.1 332.7 233.3 336.6 231.2 339.7 231.9 341.5 231 338.7 234.3 345.3 236.7 350.5 242.7ZM627.1 230.7L621 234 614.9 230.9 609.2 232 608.6 233.1 604.1 232 601.7 232.7 599.4 231.4 594.5 233 593.3 232.3 587.2 240 584.5 237.4 585.2 234.1 583 231.7 582 224.7 583.3 217.7 576.6 208.5 557.7 211.3 535.3 223 532.2 223.5 532.3 221.2 536.6 216.1 538.7 215.4 538.7 214 542 213.1 547.6 208.1 547.1 206.6 550.4 204.2 549.9 202.4 553.6 197.6 552.9 187.8 558.3 180.7 559.4 175.8 565.8 176.7 569.9 179.3 572.6 177.8 578 171.6 581.1 170.1 579.3 164.7 581.7 164.6 587.3 157.1 591.2 156.6 594.7 165.4 593 169.9 598.1 178.1 595.2 180.4 595.1 182.9 593.1 183.6 592.4 186.3 594.9 190.8 593.8 195.4 592.5 196 595.6 197.3 599.1 204.5 608.3 206.7 614.8 204.1 618.6 208 623.3 209.8 625.1 213.4 628.1 214 628.9 218.1 627.1 218.8 628.1 220 626.6 222.1 628.6 226.4 627.1 230.7Z" fill="none" stroke="#1B432E" stroke-width="0.8" stroke-opacity="0.3" stroke-linejoin="round" stroke-linecap="round" /></g><style>
    @import url('https://fonts.googleapis.com/css2?family=Caveat:wght@600&amp;family=Noto+Serif+Devanagari:wght@600&amp;display=swap');
    .state-title {
      font-family: 'Noto Serif Devanagari', serif;
      font-size: 42px;
      font-weight: 600;
      fill: #1B432E;
      text-anchor: start;
    }
    .watermark {
      font-family: 'Caveat', cursive;
      font-size: 22px;
      font-weight: 600;
      fill: #1B432E;
      opacity: 0.7;
      text-anchor: middle;
    }
  </style><g transform="translate(460, 65)"><text class="state-title" x="0" y="0">अरुणाचल प्रदेश</text><path d="M -20,15 C 50,22 150,22 220,12" fill="none" stroke="#1B432E" stroke-width="1.5" /><polygon points="100,15 104,18 100,21 96,18" fill="#1B432E" /><path d="M 220,12 C 235,10 248,3 255,-5" fill="none" stroke="#1B432E" stroke-width="1.5" /><path d="M 235,9 C 236,3 242,3 243,8 C 242,12 236,12 235,9 Z" fill="#1B432E" /><path d="M 246,2 C 248,-3 253,-3 255,2 C 253,6 248,6 246,2 Z" fill="#1B432E" /><path d="M 255,-5 C 258,-10 263,-9 264,-4 C 261,-1 257,-1 255,-5 Z" fill="#1B432E" /></g><g transform="translate(400, 565)"><text class="watermark" x="0" y="0">krashimitra.in</text><path d="M 55,-12 C 58,-16 63,-15 64,-10 C 61,-7 57,-7 55,-12 Z" fill="#1B432E" opacity="0.7" /></g></svg>