<svg xmlns="http://www.w3.org/2000/svg" viewBox="0 0 800 600" width="100%" height="100%"><defs><filter id="shadow" x="-20%" y="-20%" width="140%" height="140%"><feDropShadow dx="4" dy="6" stdDeviation="6" flood-color="#000000" flood-opacity="0.12" /></filter><filter id="blur" x="-50%" y="-50%" width="200%" height="200%"><feGaussianBlur stdDeviation="30" /></filter><clipPath id="state-clip"><path d="M311.1 136.3L309.9 141.7 307.8 142.2 306 140.9 304.2 143.9 303.7 151.1 305.1 154.3 304.9 158.2 300.3 166.6 301.4 168.7 297.4 173.1 288.5 176.1 287.4 179.4 287.9 183.5 286.2 186.3 288.5 190.9 293.2 190.8 294.4 197.3 293.8 200.8 295.9 205.4 291.9 207.2 290.3 209.9 291.9 211.9 295.5 210.2 298.4 210.9 297.5 220.5 296.1 223.1 298.2 226.8 293.6 228.2 291.7 230.7 288.7 230.1 284.5 232.1 286 234.3 284 236.8 286.4 238.6 288.3 237.7 292.5 238.8 293.8 239.7 294.1 242.5 292.1 250.7 290 250.9 287.7 249.3 285.3 250.4 285.5 252.3 290.1 252.6 291 254.5 288.8 257.1 285 257.8 284.7 259 288.6 259.1 290.1 260.5 288.8 258.1 289.5 257.1 293.3 257.6 293.8 260.8 301 264.7 300.6 270.1 305.1 270.4 307.2 273 310.8 272.8 312.1 275.4 314.4 275.6 314.5 278 313.1 280.1 308.4 280.9 309.7 283.8 311.9 285 306 289.4 302.1 289.6 301.5 287 297.4 288.2 295 282.6 291.9 285.9 289.6 286.5 287.4 291 284.3 292.1 284.3 295.5 280.6 298.1 280.4 302.6 277 307.3 276.9 310.5 280.8 314.7 281.8 317.7 275.3 321.4 278.7 325.3 281.4 331.1 288 329.1 291.5 329.7 298.9 335.5 300 338.3 303 340.5 302.6 341.6 304.8 342.1 303.9 343.4 305.6 348.4 308.3 351.3 304.9 353.6 305.4 356.7 308.6 356.8 310.9 352.6 313 354.3 311.9 354.8 312.7 358.7 319.4 356.4 317.6 361.9 320.6 371.9 321.3 379.1 325.1 379.8 330.7 375.5 336.7 378.4 342 378.2 344.3 379.3 344.7 373.4 347.4 373.8 347.7 371 349.7 368.3 349.6 363.9 352.3 357.7 351.2 355.7 352.2 351.5 356.8 348.3 360.5 347.6 360.3 346.1 365.8 345.7 366.9 341.9 372.9 335.4 375.3 334.6 375.4 332.6 377.8 332.7 378.6 331.4 374.5 329.1 374.4 327.4 377.7 328.2 378.9 325.1 382.6 323.4 385.9 323.7 386.3 320.9 390.5 319.4 391.3 312.8 395.6 311.7 394.8 305.8 392.9 302.8 393.9 301.1 393.2 299.4 390.8 298.9 392 296.8 390.5 294.7 390.3 290.9 392.2 287.2 389.7 284.8 391.6 284 392.2 281.2 388.4 281 386.8 275.8 382.5 276.3 383.8 273.9 383.5 264.2 384.7 259.3 379.9 258.7 378.9 255.2 372 251.6 371.5 249.2 373.3 243.6 374.5 243.8 377.6 240.4 382.7 245.8 385 243.3 392.1 247.6 395 246.5 401.5 256.7 407.4 252.2 416.6 254.4 415.4 256.8 416.5 260.2 420 256.8 423.1 256.8 424 255.3 423.8 247 419.3 246.3 416.6 247.2 404.8 243.4 404 238 406 234.5 405.6 230.7 407.1 229.2 404.8 226.3 407.1 220.7 405.9 217.8 404.7 218.8 404.2 215.6 400.8 213.1 403.4 208.7 401.3 200.6 401.9 193.3 405.1 194.5 406 196.8 408.7 196.9 410.2 192 414.4 189.8 418.6 184.4 417.6 182.2 419.8 180.3 419.3 177.3 426.2 176.7 428.5 178.1 431.3 176.6 433.8 177.7 434.9 176.6 437.4 177 438.8 175 438.8 176 441.1 176.6 440.3 178.2 448.8 180.3 452.8 177.9 454.3 170.7 457.2 170.2 457.7 168.9 456.3 167.4 457 163.9 465.3 165.5 464.8 162.3 462.2 159.7 461.2 156.5 463.8 149.4 467.5 147.3 468.6 150.1 470.2 148.8 466 145.8 468.5 144.7 470.3 141.9 469.1 139.3 470.5 137.5 473.4 138.6 472.8 136.7 475.5 136.7 476.4 135.5 475.5 133.6 477.3 131.7 474.3 130.4 473.2 128.4 474.3 126.1 473.1 124.9 473.5 123.1 476.1 123.6 477.3 122.6 474.8 120.2 479.9 113.1 483.2 111.7 486.4 112.1 492.9 105.9 501.6 104.2 503.8 98.4 499.6 95.9 501.6 94.9 501.5 92.1 506 88.2 510 88.3 514.6 86.2 514.9 82 516.6 80.4 518.4 80.5 521.1 74.8 523.4 74.6 524.7 70.3 523.4 67.8 517.8 68.6 517.6 67.1 514.1 67.7 512.1 64.8 511.7 67.7 509.9 68.5 508.5 64.3 509 61.5 504.7 59.7 502.9 57 504.8 54.1 505.4 46.4 504 43.9 501.3 45.2 499 43.2 500.1 40.4 499.4 38.8 502.6 33.7 501.9 28.4 496.9 29.2 497.1 32.3 489.4 31.2 487.3 29.8 484.4 25.4 485.7 23.2 483.4 17.4 480.8 16.8 480.6 15.5 475.4 14.7 476.1 13.4 474.1 12.5 471.8 7.5 471.9 4.8 468.1 3.9 466.8 1.2 460.3 0 457.6 5.3 454.3 7.2 453.4 11.1 449.4 13.3 437.7 14.1 431.1 9 428.9 8.7 426 11.2 420.5 11.9 420.4 15.1 416.3 17.1 413.2 17 413.9 18.8 412.4 19.4 408.2 17.7 404.4 18.4 396.5 17.1 394.5 18 393.5 15.3 391.1 17.3 384 17.3 381.3 14.8 378.1 15.2 376.1 14.1 374.1 16.3 368.2 17.8 364.3 16 364.7 15 363.3 14.8 360.4 11 357.4 12.1 357 13.5 358.1 14.2 356.9 15.2 358.8 16.3 359.5 20.3 362.5 23.1 360.1 26.6 357.8 26.7 357.3 30.6 355.3 31.3 355.8 33.2 357.4 33.1 358.7 37 360 36.6 360.3 34.7 362.7 35.1 364.9 32.5 369.3 33.5 371 35.8 376.2 34.5 378.3 36.4 379.4 41 382.3 40.9 382.2 43.3 386.9 42.6 388 45.2 389.6 44.8 392.3 46.8 392.4 49.8 389.5 52.9 390.5 57.9 388.1 60.2 385.2 59.4 382.9 61.6 379.9 61.3 376.4 63 377.6 69.1 372.9 71.4 372.5 73.1 367.3 74 366.5 76.6 368.4 80.5 366.1 82.5 367.1 86.4 365.9 87.8 364.4 86 363.5 87.6 361.8 87.7 359.6 89.7 360.4 92.3 358.5 92.7 358.1 94.2 352.1 94.2 349.7 97.2 347.7 96.8 347.4 98.5 346.4 97.7 345.1 100.1 343.7 95.9 340.3 94.9 339.5 97.5 337.6 96.3 334.6 99.4 332.7 98.7 332.5 97.1 331 97.3 329.9 99.3 327.9 99.8 326.9 103.6 327.8 109.1 326.1 111.7 322.1 112.8 322 118.6 319.4 119.3 321.4 120.8 320.4 123.5 318.8 123 317.7 119.5 315.2 120 311.8 129.1 310.2 129.3 311.5 130.2 311.2 136.2ZM328.3 306.1L330.8 308.7 328.4 309.2 327.5 305.7ZM343.4 336.5L344 336.3 343.2 335.4 342.7 336 343 336.5ZM349.5 263.3L349.9 265.4 348 264.7 349.3 263.1ZM347.7 210.4L348.3 210 348.5 209.4 348.3 209.1 347.6 210 347.3 211 347.6 211ZM440.5 112.9L442.1 112.6 441.3 111.2 440.1 112.7Z" /></clipPath></defs><rect width="800" height="600" fill="#F9F6F0" /><g opacity="0.32" filter="url(#blur)"><circle cx="330.0" cy="150.0" r="140" fill="#E3EFE0" /><circle cx="400.0" cy="190.0" r="170" fill="#FAF2D8" /><circle cx="470.0" cy="230.0" r="130" fill="#F7DEC0" /></g><g filter="url(#shadow)"><g clip-path="url(#state-clip)"><rect width="800" height="600" fill="#F9F6F0" /><g opacity="0.75" filter="url(#blur)"><circle cx="330.0" cy="150.0" r="140" fill="#E3EFE0" /><circle cx="400.0" cy="190.0" r="170" fill="#FAF2D8" /><circle cx="470.0" cy="230.0" r="130" fill="#F7DEC0" /></g></g><path d="M311.1 136.3L309.9 141.7 307.8 142.2 306 140.9 304.2 143.9 303.7 151.1 305.1 154.3 304.9 158.2 300.3 166.6 301.4 168.7 297.4 173.1 288.5 176.1 287.4 179.4 287.9 183.5 286.2 186.3 288.5 190.9 293.2 190.8 294.4 197.3 293.8 200.8 295.9 205.4 291.9 207.2 290.3 209.9 291.9 211.9 295.5 210.2 298.4 210.9 297.5 220.5 296.1 223.1 298.2 226.8 293.6 228.2 291.7 230.7 288.7 230.1 284.5 232.1 286 234.3 284 236.8 286.4 238.6 288.3 237.7 292.5 238.8 293.8 239.7 294.1 242.5 292.1 250.7 290 250.9 287.7 249.3 285.3 250.4 285.5 252.3 290.1 252.6 291 254.5 288.8 257.1 285 257.8 284.7 259 288.6 259.1 290.1 260.5 288.8 258.1 289.5 257.1 293.3 257.6 293.8 260.8 301 264.7 300.6 270.1 305.1 270.4 307.2 273 310.8 272.8 312.1 275.4 314.4 275.6 314.5 278 313.1 280.1 308.4 280.9 309.7 283.8 311.9 285 306 289.4 302.1 289.6 301.5 287 297.4 288.2 295 282.6 291.9 285.9 289.6 286.5 287.4 291 284.3 292.1 284.3 295.5 280.6 298.1 280.4 302.6 277 307.3 276.9 310.5 280.8 314.7 281.8 317.7 275.3 321.4 278.7 325.3 281.4 331.1 288 329.1 291.5 329.7 298.9 335.5 300 338.3 303 340.5 302.6 341.6 304.8 342.1 303.9 343.4 305.6 348.4 308.3 351.3 304.9 353.6 305.4 356.7 308.6 356.8 310.9 352.6 313 354.3 311.9 354.8 312.7 358.7 319.4 356.4 317.6 361.9 320.6 371.9 321.3 379.1 325.1 379.8 330.7 375.5 336.7 378.4 342 378.2 344.3 379.3 344.7 373.4 347.4 373.8 347.7 371 349.7 368.3 349.6 363.9 352.3 357.7 351.2 355.7 352.2 351.5 356.8 348.3 360.5 347.6 360.3 346.1 365.8 345.7 366.9 341.9 372.9 335.4 375.3 334.6 375.4 332.6 377.8 332.7 378.6 331.4 374.5 329.1 374.4 327.4 377.7 328.2 378.9 325.1 382.6 323.4 385.9 323.7 386.3 320.9 390.5 319.4 391.3 312.8 395.6 311.7 394.8 305.8 392.9 302.8 393.9 301.1 393.2 299.4 390.8 298.9 392 296.8 390.5 294.7 390.3 290.9 392.2 287.2 389.7 284.8 391.6 284 392.2 281.2 388.4 281 386.8 275.8 382.5 276.3 383.8 273.9 383.5 264.2 384.7 259.3 379.9 258.7 378.9 255.2 372 251.6 371.5 249.2 373.3 243.6 374.5 243.8 377.6 240.4 382.7 245.8 385 243.3 392.1 247.6 395 246.5 401.5 256.7 407.4 252.2 416.6 254.4 415.4 256.8 416.5 260.2 420 256.8 423.1 256.8 424 255.3 423.8 247 419.3 246.3 416.6 247.2 404.8 243.4 404 238 406 234.5 405.6 230.7 407.1 229.2 404.8 226.3 407.1 220.7 405.9 217.8 404.7 218.8 404.2 215.6 400.8 213.1 403.4 208.7 401.3 200.6 401.9 193.3 405.1 194.5 406 196.8 408.7 196.9 410.2 192 414.4 189.8 418.6 184.4 417.6 182.2 419.8 180.3 419.3 177.3 426.2 176.7 428.5 178.1 431.3 176.6 433.8 177.7 434.9 176.6 437.4 177 438.8 175 438.8 176 441.1 176.6 440.3 178.2 448.8 180.3 452.8 177.9 454.3 170.7 457.2 170.2 457.7 168.9 456.3 167.4 457 163.9 465.3 165.5 464.8 162.3 462.2 159.7 461.2 156.5 463.8 149.4 467.5 147.3 468.6 150.1 470.2 148.8 466 145.8 468.5 144.7 470.3 141.9 469.1 139.3 470.5 137.5 473.4 138.6 472.8 136.7 475.5 136.7 476.4 135.5 475.5 133.6 477.3 131.7 474.3 130.4 473.2 128.4 474.3 126.1 473.1 124.9 473.5 123.1 476.1 123.6 477.3 122.6 474.8 120.2 479.9 113.1 483.2 111.7 486.4 112.1 492.9 105.9 501.6 104.2 503.8 98.4 499.6 95.9 501.6 94.9 501.5 92.1 506 88.2 510 88.3 514.6 86.2 514.9 82 516.6 80.4 518.4 80.5 521.1 74.8 523.4 74.6 524.7 70.3 523.4 67.8 517.8 68.6 517.6 67.1 514.1 67.7 512.1 64.8 511.7 67.7 509.9 68.5 508.5 64.3 509 61.5 504.7 59.7 502.9 57 504.8 54.1 505.4 46.4 504 43.9 501.3 45.2 499 43.2 500.1 40.4 499.4 38.8 502.6 33.7 501.9 28.4 496.9 29.2 497.1 32.3 489.4 31.2 487.3 29.8 484.4 25.4 485.7 23.2 483.4 17.4 480.8 16.8 480.6 15.5 475.4 14.7 476.1 13.4 474.1 12.5 471.8 7.5 471.9 4.8 468.1 3.9 466.8 1.2 460.3 0 457.6 5.3 454.3 7.2 453.4 11.1 449.4 13.3 437.7 14.1 431.1 9 428.9 8.7 426 11.2 420.5 11.9 420.4 15.1 416.3 17.1 413.2 17 413.9 18.8 412.4 19.4 408.2 17.7 404.4 18.4 396.5 17.1 394.5 18 393.5 15.3 391.1 17.3 384 17.3 381.3 14.8 378.1 15.2 376.1 14.1 374.1 16.3 368.2 17.8 364.3 16 364.7 15 363.3 14.8 360.4 11 357.4 12.1 357 13.5 358.1 14.2 356.9 15.2 358.8 16.3 359.5 20.3 362.5 23.1 360.1 26.6 357.8 26.7 357.3 30.6 355.3 31.3 355.8 33.2 357.4 33.1 358.7 37 360 36.6 360.3 34.7 362.7 35.1 364.9 32.5 369.3 33.5 371 35.8 376.2 34.5 378.3 36.4 379.4 41 382.3 40.9 382.2 43.3 386.9 42.6 388 45.2 389.6 44.8 392.3 46.8 392.4 49.8 389.5 52.9 390.5 57.9 388.1 60.2 385.2 59.4 382.9 61.6 379.9 61.3 376.4 63 377.6 69.1 372.9 71.4 372.5 73.1 367.3 74 366.5 76.6 368.4 80.5 366.1 82.5 367.1 86.4 365.9 87.8 364.4 86 363.5 87.6 361.8 87.7 359.6 89.7 360.4 92.3 358.5 92.7 358.1 94.2 352.1 94.2 349.7 97.2 347.7 96.8 347.4 98.5 346.4 97.7 345.1 100.1 343.7 95.9 340.3 94.9 339.5 97.5 337.6 96.3 334.6 99.4 332.7 98.7 332.5 97.1 331 97.3 329.9 99.3 327.9 99.8 326.9 103.6 327.8 109.1 326.1 111.7 322.1 112.8 322 118.6 319.4 119.3 321.4 120.8 320.4 123.5 318.8 123 317.7 119.5 315.2 120 311.8 129.1 310.2 129.3 311.5 130.2 311.2 136.2ZM328.3 306.1L330.8 308.7 328.4 309.2 327.5 305.7ZM343.4 336.5L344 336.3 343.2 335.4 342.7 336 343 336.5ZM349.5 263.3L349.9 265.4 348 264.7 349.3 263.1ZM347.7 210.4L348.3 210 348.5 209.4 348.3 209.1 347.6 210 347.3 211 347.6 211ZM440.5 112.9L442.1 112.6 441.3 111.2 440.1 112.7Z" fill="none" stroke="#1B432E" stroke-width="2.5" stroke-linejoin="round" stroke-linecap="round" /><path d="M349.4 97L350 101.2 354.1 106.1 352.2 108.1 353.9 112.1 351.7 117.3 351.5 125.4 348.9 125.8 349.5 128.4 347.8 129.5 348 131.7 347 132.7 345.7 131.6 344.1 134 344.7 136.7 340.7 135.6 339.9 136.7 341.3 140.5 334.3 141.2 334.6 144 333.6 144.3 328.3 144.3 326.9 142.5 320.4 142.8 316.5 137.1 311.4 136.7 310.6 133.1 311.5 130.2 310.2 129.3 311.8 129.1 316 119.4 318.1 119.9 318.8 123 320.9 123 321.4 120.8 319.4 119.3 322 118.6 322.1 112.8 326.1 111.7 327.8 109.1 327.3 100.4 329.9 99.3 331 97.3 332.5 97.1 332.7 98.7 334.6 99.4 337.6 96.3 339.5 97.5 340.3 94.9 343.7 95.9 344.5 100.1 346.1 99.7 346.4 97.7 347.7 98.2 347.7 96.8 349.4 97ZM388.1 60.2L391.6 64.3 391.4 68.3 393.8 69.8 388.9 75.3 390.1 76.2 389.7 82 391.2 86.3 395.2 87.3 394.8 91 393.3 90.7 390.2 93.9 389.8 90.4 384.2 92.7 380.5 91.8 377.8 89.6 372.2 89.8 371 92.3 368.7 92.7 368 90.6 365.7 90.9 364.3 86.1 365.9 87.8 367.1 86.4 366.1 82.5 368.4 80.5 366.5 76.6 367.3 74 372.5 73.1 372.9 71.4 377.6 69.1 376.1 64 377.5 61.9 382.9 61.6 385.2 59.4 388.1 60.2ZM455.7 52.3L452.4 54.2 451.4 52.6 449.2 53.6 448.9 55.8 450.4 56.5 450 59.9 448.6 59.9 447.9 58.2 443.2 58.8 442.6 60.6 439.4 62.4 436.3 59.6 432.7 59.9 432 62.5 436.1 61.6 436.3 63.6 430.7 65.6 432 67.3 430.2 70 428.4 70.5 428.6 73.3 426.2 75.9 426.3 78.8 423.6 76.5 419.9 78 415.1 76.7 414.2 74.9 416.4 72.5 414.4 68.9 417.2 65 415 61.8 415.9 61.4 415.4 58.8 419 58 422.6 51.8 427.2 51 425.5 50.3 425.8 45.2 419.9 43.3 419.9 37.7 415.6 33.6 415.3 28.8 416.7 25.3 413.6 21 411 20.8 410.7 19.3 413.9 18.8 413.2 17 419 16.1 421 14.1 419.9 13.2 420.5 11.9 422.4 11.3 423.2 13 427.1 13.7 427.8 17.3 430.4 17.9 431.6 20.4 432.6 18.5 435.8 18.3 435.4 20 440.5 20.3 441.5 18.2 443 19.7 445.3 19.5 445 21.1 448.8 23.8 450.7 24.3 453.3 23 453 33 454.6 31.7 457.6 31.8 457 33.4 455.1 33.9 455.2 35.5 460.9 35 461.3 36 459.2 36.4 457.8 38.8 461.3 38.4 462.3 40 462 41 458.2 40.1 459.3 42.3 460.8 42.6 460.6 44 455.4 42.1 453.3 43.8 453.8 48.4 452.8 50.4 455.7 52.3ZM501.9 28.4L502.6 33.7 499.4 38.8 500.1 40.4 499 43.2 501.3 45.2 504 43.9 505.4 46.4 504.8 54.1 503.3 56.2 500.1 54.7 496.5 57.4 493.4 53.6 488.3 51.4 487.9 52.9 485.8 51.8 483.7 53.9 481.3 52.6 478.5 53.1 474.2 56 472.2 51.8 464.6 50.3 462.8 50.8 464 51.7 462.1 53.2 463 53.5 462.2 56.1 452.8 50.4 453.9 43.1 455.4 42.1 460.6 44 460.8 42.6 459.3 42.3 458.2 40.1 462 41 462.3 40 461.3 38.4 457.8 38.8 459.2 36.4 461.3 36 460.9 35 455.2 35.5 455.1 33.9 457 33.4 457.6 31.8 454.6 31.7 453 33 453.3 23 450.7 24.3 448.8 23.8 445 21.1 445.3 19.5 443 19.7 441.5 18.2 440.5 20.3 435.4 20 435.8 18.3 432.6 18.5 431.6 20.4 430.4 17.9 427.8 17.3 427.1 13.7 423.2 13 422.4 11.3 426 11.2 430.5 8.7 437.7 14.1 446.4 14.1 453.4 11.1 454.3 7.2 457.6 5.3 460.3 0 464.2 0.4 465.3 1.6 466.8 1.2 468.1 3.9 471.9 4.8 471.8 7.5 474.1 12.5 476.1 13.4 475.4 14.7 483.1 17 485.7 23.2 484.4 25.4 487.3 29.8 489.4 31.2 497.1 32.3 496.9 29.2 501.9 28.4ZM371 92.3L371.2 96 374.8 97.6 374.9 100 379.3 104.9 378 106 376.5 104.8 376.3 109 373.3 107.2 370.1 110.3 370.2 109 368 109.3 367.2 108.1 366.3 108.9 365.4 107.8 364.6 110.9 369.4 113.8 370.2 116.2 377.7 123.6 378.1 126.4 381.3 127.7 380.2 130.2 383 133.6 382.1 135.1 377.9 136 377 137.7 374.4 136.2 373.9 133 370 133.8 370.3 131.8 368.5 130.8 368.8 129.8 360.7 128.7 360.2 127.3 357.7 127.3 357.4 125.8 355.4 125.1 355.5 127.6 353.1 126.1 350.8 126.3 351.7 117.3 353.9 112.1 352.2 108.1 354.1 106.1 351.5 103.7 348.9 97.5 352.1 94.2 358.1 94.2 358.5 92.7 360.4 92.3 359.6 89.7 364.3 86.1 365.7 90.9 368 90.6 368.7 92.7 371 92.3ZM328.3 306.1L330.3 307.1 330.8 309.4 328.4 309.2 327 306.7 328.3 306.1ZM338 293.8L337.3 298.8 333.3 299.4 334.3 303.8 333 307.7 334.9 308.8 333.9 310.9 330.9 311.1 334.2 312.2 332 317.9 332.6 322 330.3 325.4 331.4 327.7 329.5 332.8 332.5 331.2 331.7 334.4 333.8 336 336.1 335.4 336.8 338.8 340.4 340.5 340.7 341.8 345.3 343.3 346.5 341.6 342.9 341 343.4 337.6 346.1 338.1 347.3 337 345.6 336 347.2 334.4 345.7 332.5 346.3 331.6 347.5 332 347.5 330.5 350 329.4 353.4 330.5 354 333.3 355.3 331.7 353.3 328.9 354.9 322.5 357.8 321.9 358.2 324.3 360.6 325 360.2 327.3 363.9 325.6 366.4 327.2 366.9 326 364.5 325 367.4 320.5 363.5 316.6 360.8 318.6 358.4 318 357.9 316.4 355.7 316.2 353.6 313.8 354.1 312.1 348.7 310.1 348.2 308.9 349.8 308.4 348.8 306.8 351.3 306.3 352.5 304.6 350.6 303.7 351.7 302.8 350 299.9 345.8 296.4 343 296.1 341.2 298.2 339.8 297.7 338.5 295.7 339.5 295.1 338 293.8ZM342.2 287.4L343.4 288.5 342.1 289.2 341.8 293 344.8 295.3 350.9 294.6 350.8 298.4 348.5 298.6 345.1 296.3 343 296.1 341.2 298.2 338.8 296.7 339.5 295.1 338 293.8 338.1 289.5 336.3 291.1 335.6 290.2 337.8 288.9 337.9 286.7 342.2 287.4ZM277 323.4L281.5 331.2 288 329.1 291.5 329.7 298.9 335.5 300 338.3 303 340.5 302.6 341.6 304.8 342.1 303.9 343.4 305.6 348.4 308.3 351.3 304.9 353.6 305.4 356.7 308.6 356.8 310.9 352.6 313 354.3 311.9 354.8 312.7 358.7 318.2 356.5 322.7 357.5 325.3 355.4 325.1 353 323.4 351.6 324.3 348.1 323.1 346.4 315.4 344.2 322 338.9 322.7 334.8 325.9 333.9 330.2 335 332.5 332.6 332.1 331.1 329.5 332.8 331.4 327.7 330.3 325.4 332.6 322 332 317.9 334.2 312.2 330.9 311.1 333.9 310.9 334.9 308.8 333 307.7 334.3 303.9 333.4 300.4 317 298.4 307.4 293.1 306 289.4 302.1 289.6 301.6 287 297.4 288.2 296.2 284.2 294.5 282.8 291.9 285.9 289.5 286.6 287.4 291 284.3 292.1 284.2 295.6 280.3 298.7 281 300.8 278.4 304 276.8 310.2 281.9 317.3 275.5 321 277 323.4ZM382.5 276.3L386.8 275.8 388.1 280.7 392.2 281.2 391.6 284 389.7 284.8 392.2 287.2 390.3 290.9 390.5 294.7 392 296.8 390.8 298.9 393.2 299.4 393.9 301.1 392.9 302.8 394.8 305.8 395.6 311.7 391.3 312.8 390.5 319.4 386.3 320.9 385.9 323.7 382.6 323.4 378.9 325.1 377.3 323.6 377.5 320.6 369 322.5 366.4 320.5 366.2 318.3 363.5 316.6 360.7 318.7 358.4 318 357 315.6 355.7 316.2 353.4 313.4 354.1 312.1 351.6 312 348.2 308.9 349.8 308.4 349.1 306.4 351.3 306.3 352.5 304.6 350.6 303.8 351.7 302.8 348.5 298.6 350.8 298.4 350.9 294.6 344.8 295.3 341.8 293 342.1 289.2 343.7 287.6 351.5 293.3 353 293.4 354.9 289.8 357.2 290.4 358 293.1 361.2 291.8 358.4 289.5 358.8 286.2 364.2 284.2 368.4 285.6 369.4 282.4 368.3 279.6 370.2 276.1 372.2 278.4 372.2 273.6 374.7 273.8 375.2 275.1 380.1 274.7 380.8 277.4 382.5 276.3ZM367.2 326.6L366.2 327.2 363.9 325.6 360.1 327.6 359.9 330.1 367.1 331.2 371.5 328.2 375.7 327.1 375.9 324.8 374.8 323.5 371.5 325.4 372 326.4 369.4 328.5 367.2 326.6ZM344 336.3L343 336.5 342.7 336 343.2 335.4 344 336.3ZM331.7 334.4L322.7 334.8 322 338.9 315.4 344.2 323.1 346.4 324.6 349 323.4 351.6 325.1 353 325.3 355.4 322.7 357.5 319.4 357 317.6 361.9 320.6 371.9 321.2 379 325.1 379.7 330.7 375.5 336.7 378.4 342 378.2 344.3 379.3 344.7 373.4 347.4 373.8 347.7 371 349.7 368.3 349.6 363.9 352.3 357.7 351.2 355.7 352.3 351.4 356.6 348.4 360.5 347.6 360.3 346.1 365.8 345.7 366.9 341.9 372.9 335.4 375.3 334.6 375.4 332.6 377.8 332.7 378.6 331.4 374.5 329.1 374.7 327.2 367 331.2 360.4 330.4 360.6 325 358.2 324.3 357.6 321.8 354.9 322.5 353.5 325.2 353.5 330 355.5 330.9 354.1 333.3 353.1 332.8 353.4 330.5 350 329.4 345.7 332.4 347.2 334.4 345.6 336 347.3 337 346.1 338.1 343.4 337.6 342.9 341 346.5 341.6 346.4 342.8 340.7 341.8 340.4 340.5 339.1 340.7 336.2 338.1 336.1 335.4 333.8 336 331.7 334.4ZM367.1 321.5L364.5 325 368.2 328.2 369.7 328.3 372 326.4 371.5 325.4 374.8 323.5 375.9 324.8 374.9 327.2 376.1 328.3 378.9 326.5 377.3 323.6 377.5 320.6 373.1 321 371.7 322.7 367.1 321.5ZM369.6 236.7L371.5 236.9 371.5 240 373.3 243.6 371.5 249.2 372 251.6 378.9 255.2 379.9 258.7 384.7 259.3 383.5 264.2 383.6 274.7 380.8 277.4 380.1 274.7 375.2 275.1 374.7 273.8 372.2 273.6 372.2 278.4 370.2 276.1 368.3 279.6 369.4 282.4 368.4 285.6 364.7 284.2 360.8 284.9 358.8 286.2 358.4 289.5 361.2 291.8 358 293.1 357.2 290.4 354.9 289.8 353 293.4 351.1 293.2 346.5 289.1 342.1 287.2 344.7 286.8 342.7 284.3 343.5 281.9 345 284.8 349 284.2 349.3 278.5 346 277.2 347.7 275.8 348 268.6 351.7 267 347.8 266.2 346.9 263.9 343.1 263 343 258.7 344.5 256.6 343.4 255.5 345.1 253.9 340.3 250.4 340.6 248.9 338.8 248.2 338.2 245.5 344 243.8 345.9 237.3 348.1 237.8 355.8 235 357.5 237.3 361.5 238.9 365.6 236.9 369.6 236.7ZM349.5 263.3L349.9 265.4 348 264.7 349.5 263.3ZM300.9 264.6L300.6 270.1 305.1 270.4 307.2 273 310.8 272.8 312.1 275.4 314.4 275.6 313.2 280 308.4 280.9 309.7 283.8 311.9 285 306 289.4 307.4 293.1 317 298.4 327.7 299 330.9 300.4 337.3 298.8 338.4 290.2 335.5 290.7 337.8 288.8 337.2 287 341.3 287.7 344.7 286.8 342.7 284.3 343.6 281.9 345 284.8 349 284.2 349.3 278.5 346 277.2 347.7 275.8 348 268.6 351.7 267 347.8 266.2 346.9 263.9 343.2 263 343.1 260 338.1 259.5 335.7 260.8 331.5 258.1 330.2 261.5 333 263.8 325.8 264.4 324.2 261.7 322.2 260.9 321 257.8 317.7 256.9 315.1 251.4 311.3 249.9 304 256 304.3 257.5 305.5 257.8 307.3 255.9 309.4 258.1 307.5 259.4 305.3 258.3 303.5 259.6 303.6 264.1 300.9 264.6ZM345.4 213.4L346.2 215.8 350.9 215.5 351.7 217.1 353.2 215.8 356.6 215.6 364.9 217.8 364.9 221.6 368.5 227.1 366.4 228.3 366.4 229.7 368.1 229.4 368.8 230.8 367.3 232.8 369.6 236.7 365.6 236.9 361.5 238.9 357.5 237.3 355.8 235 348.1 237.8 345.9 237.3 344 243.8 338.2 245.5 338.8 248.2 340.6 248.9 340.3 250.4 345.1 253.9 343.4 255.5 344.5 256.6 343.1 260 338.1 259.5 335.7 260.8 331.5 258.1 330.2 261.5 333 263.8 325.8 264.4 324.2 261.7 322.2 260.9 321 257.8 317.7 256.9 315.1 251.4 311.3 249.9 304 255.9 304.3 257.5 305.5 257.8 307.3 255.9 309.4 258 307.5 259.4 306.1 259.3 306.1 258.1 303.5 259.6 303.3 264.4 300.9 264.6 295.9 262.3 293.3 260.2 293.3 257.6 291.8 256.9 288.8 258.1 290.1 260.5 288.6 259.1 284.7 259 285 257.8 288.8 257.1 291 254.5 290.1 252.6 285.5 252.3 285.3 250.4 287.7 249.3 290.7 251 293 249.6 294.7 235.4 298 235.4 299.9 233.1 302 235.3 303.6 235.3 304.9 232.4 304.3 230.7 305.7 229.2 310 228.9 309.4 225.4 311.5 225.8 312.3 223.5 313.9 223.5 316.6 220.5 320.2 219.1 329.7 224.1 336 219.8 335.9 216.8 340.2 212.9 343.9 214.7 345.4 213.4ZM381.8 243.8L382.9 240.8 387.5 240 391.6 231.3 387.3 229.3 385.9 226.9 385.9 222.1 382 215.1 380.5 208.6 381.5 206.3 379.7 203.2 376.1 201.6 375.3 199.5 376.2 197.9 373.4 191.5 373.4 188.1 380.1 181.6 382.3 183.2 384.5 183 386.4 185.1 390.5 185.7 392.7 190.3 396.7 189.9 397.3 192 401.6 194.3 401.3 200.6 403.4 208.7 400.8 213.1 404.2 215.6 404.7 218.8 405.9 217.8 407.1 220.7 404.8 226.3 407.1 229.2 405.6 230.7 406 234.5 404 238 404.8 243.4 416.6 247.2 419.3 246.3 423.8 247 423.3 252.6 424.3 254.2 423.1 256.8 420 256.8 416.5 260.2 415.4 256.8 417.1 254.8 409.9 252.3 405.9 252.5 401.5 256.7 395 246.5 392.1 247.6 385 243.3 382.7 245.8 381.8 243.8ZM348.3 210L347.7 210.4 347.6 211 347.3 211 347.9 209.5 348.3 209.1 348.5 209.4 348.3 210ZM357.4 185L358.1 187.2 357.2 189.2 353.2 190.8 352.2 192.9 349.1 194.4 350.3 196.7 351.8 197 349.5 200.1 349.4 203 351.7 203.9 350.1 209.1 351.5 209.9 349 211 351.7 211.3 347.6 211.6 348 212.7 345.4 213.4 345.4 215.1 350.9 215.5 352.1 217.1 353.2 215.8 357.7 215.7 359.2 217 364.9 217.8 364.9 221.6 368.5 227.1 366.4 228.3 366.4 229.7 368.1 229.5 368.8 230.8 367.3 232.8 369.6 236.7 371.5 236.9 372.9 243.4 374.5 243.8 377.5 240.4 381.9 243.8 382.9 240.8 387.5 240 391.6 231.3 387.3 229.3 385.9 226.9 385.9 222.1 382 215.1 380.5 208.6 381.5 206.3 379.7 203.2 376.1 201.6 375.3 199.5 376.2 197.9 374.2 194.6 373.2 188.8 370.9 190.2 367.5 188.5 365.7 186 363.6 185.5 361.7 186.9 357.4 185ZM349.1 194.4L350.3 196.7 351.8 197 349.5 200.1 349.4 203 351.7 203.9 350.1 209.1 351.5 209.9 349 211 351.7 211.3 347.7 211.5 348 212.7 343.9 214.7 340.2 212.9 335.9 216.8 336 219.8 329.7 224.1 322.7 221.1 320.2 219.1 319.5 216.3 318.3 216.3 317.9 214.2 320.1 214.1 321.1 212.3 321.1 210.8 317.9 208.3 318.4 206.8 313.6 207.3 311.9 206.3 312.3 205.4 310.1 205.6 308.9 203.6 310.1 200.8 313.7 198.4 316.6 200.1 318.1 197.3 319.4 198 317.7 195.9 320.4 193.6 318.6 192.2 318.5 189.7 317.2 189.7 317.9 186.5 327.9 186.4 329.7 182 332.2 182.4 333.2 185 338.8 182.9 339 184.2 340.5 184.5 344.1 183.3 346.3 189 345 190.3 345.5 193.3 344 194.5 347.8 195.7 349.1 194.4ZM457 163.9L456.3 167.4 457.7 168.9 457.2 170.2 454.3 170.7 452.8 177.9 448.8 180.3 440.3 178.2 441.1 176.6 438.8 176 438.8 175 437.4 177 434.9 176.6 433.8 177.7 431.3 176.6 428.5 178.1 426.2 176.7 419.3 177.3 419.8 180.3 417.6 182.2 418.6 184.4 414.4 189.8 410.2 192 408.7 196.9 406 196.8 405.1 194.5 402.7 194.4 402.6 193.4 399.5 193.8 396.7 189.9 392.7 190.3 390.5 185.7 386.4 185.1 384.5 183 382.3 183.2 380.1 181.6 382.5 172.7 389.6 168 394.8 160.6 397.4 163.1 395.4 164.7 395.7 167.8 397.5 168.6 397.4 170.3 400.3 169.1 401.6 169.5 401.5 170.8 402.5 170 404.2 170.9 405.9 168 407.6 168.5 407.8 170.1 409.3 167.1 414.6 167.7 420 166 422.6 166.8 422.3 157.5 426.9 155.2 430.4 156.3 430.1 154.7 433.4 153.2 436.2 157.2 438.1 156.8 440.8 159 441.8 157.2 443.7 157.7 444.4 160.4 448.2 161.3 449.5 164.8 451.6 162.5 457 163.9ZM354 166.6L352.8 168.9 353.2 171.6 356.9 174.3 358.3 177 357 177.1 355.2 181.3 357 182.6 355.9 183.9 358 187.3 356.1 190.2 353.2 190.9 352.2 192.8 348.4 194.5 348.6 195.5 346 195.7 344 194.5 345.5 193.3 345 190.3 346.3 189 344.1 183.3 340.5 184.5 339 184.2 338.8 182.9 333.2 185 332.2 182.4 330 182.1 330.5 180.6 333 180.7 333.7 176.5 332.6 173.3 329.7 173.8 330.5 169 332.5 166.5 331 160.6 331.6 157.7 330.2 156.5 332 156.8 332.9 155.4 334 156.2 333.9 154.6 335.8 154.4 339.2 155.8 339.6 154.4 342 153.9 343.3 155.7 348.1 155.7 348.6 156.9 347.2 157.4 348.9 158.5 347 162.1 350.2 161.4 350.9 162.3 349.5 163.6 350.6 165.4 354 166.6ZM392.4 163.9L389.6 168 383 172 380.1 181.6 372 190.1 369.7 189.9 365.7 186 360.2 186.7 355.9 183.9 357.2 183.1 355.4 182.2 355.6 179.3 358.3 177 356.9 174.3 353.2 171.6 352.8 168.9 359 162.5 358.5 156 362.4 150.5 365.9 151.6 365.6 149.8 367.9 149 368.4 150.8 372.3 150 374 152.1 374.8 150.6 376 150.9 377 152.3 376.8 157.3 387.9 161.9 388.3 164.6 392.4 163.9ZM377 137.7L371.4 141.1 369.1 140.2 365.4 141.7 362.8 140.9 364.1 145.5 360.3 146.9 362.6 150.1 360.9 153.5 359.4 153.8 358.1 158.7 359 162.5 355.6 166.7 350.6 165.4 349.5 163.6 350.9 162.3 350.2 161.4 347 162.1 348.9 158.5 347.2 157.4 348.6 156.9 348.1 155.7 343.3 155.7 342 153.9 339.6 154.4 339.2 155.8 333.9 154.6 333.3 156.2 329 153.4 332.2 148.8 331 144.3 334.6 144 334.3 141.2 341.3 140.5 339.9 136.7 340.7 135.6 344.7 136.7 344.3 133.5 345.7 131.6 347 132.7 348 131.7 347.8 129.5 349.5 128.4 349.2 125.6 355.5 127.6 355.4 125.1 357.4 125.8 357.7 127.3 360.2 127.3 360.7 128.7 368.8 129.8 368.5 130.8 370.3 131.8 370 133.8 373.9 133 374.4 136.2 377 137.7ZM390.2 93.9L389.1 99.3 391.7 101.9 389.3 106.5 393 107.8 393.7 106.2 396.9 106.5 396.6 108.7 398 109.3 401.9 106.9 404.8 108.2 405.7 109.7 404.6 110.9 409.2 115.1 406.2 118.3 402.3 118.4 401.2 119.5 400.6 128.8 399.1 132 399.7 134.2 401.9 135.4 403.7 140.7 407.1 142.2 405.5 143.5 399.6 143.6 398.2 141.5 393.1 141 391.5 135.9 388.2 136.7 383 133.6 380.2 130.2 381.5 128.4 380.8 127 378.1 126.4 377.9 123.9 375.2 121.8 375 120.1 372.8 119.2 368.8 113.2 364.6 110.9 365.4 107.8 366.3 108.9 367.2 108.1 368 109.3 370.2 109 370.1 110.3 373.3 107.2 376.3 109 376.5 104.8 378 106 379.3 104.9 374.9 100 374.8 97.6 371.2 96 370.7 92 372.2 89.8 379.3 89.9 380.5 91.8 384.2 92.7 389.8 90.4 390.2 93.9ZM405.5 67.1L408.1 68.5 414.8 68 416.4 72.5 414.2 74.9 415.1 76.7 419.9 78 423.6 76.5 427.6 80.4 430.8 81.9 432.7 81.4 441.7 88.2 447.8 86.3 448.3 87.7 446.6 88.5 447.3 95.4 446 98.4 447.7 101.2 447.4 104.6 443.8 109.7 444.6 110.8 442.7 112 443.9 113.8 442.7 116.4 439.1 116.6 437.1 119.2 432.5 116.2 426.5 119.4 424.7 121.5 425.3 124.2 424.2 124.2 422.8 121.2 421 121.7 419.2 119.7 420.8 115.3 418.5 111.5 416.4 110.7 415.7 112.9 413.5 114.1 412 111.4 410.8 111.5 408.4 113.7 404.6 110.9 405.7 109.7 404.8 108.2 401.9 106.9 398 109.3 396.6 108.7 396.9 106.5 393.7 106.2 393 107.8 389.3 106.5 391.7 101.9 389.1 99.3 390.2 93.9 393.3 90.7 394.8 91 395.2 87.3 391.2 86.3 389.7 82 390.1 76.2 388.9 75.3 393.8 69.8 396.3 70.2 402.5 66.6 405.5 67.1ZM503.3 56.2L504.7 59.7 509 61.5 508.5 64.3 509.9 68.5 511.7 67.7 512.1 64.8 514.1 67.7 517.6 67.1 517.8 68.6 523.4 67.8 524.7 71.1 523.4 74.6 520.4 75.6 518.4 80.5 516.6 80.4 514.9 82 514.6 86.2 510 88.3 506 88.2 501.5 92.1 501.6 94.9 499.6 95.9 503.8 98.4 501.6 104.2 492.9 105.9 489.1 109.2 485.2 103.9 479.9 103 475.5 98.9 476.2 94.1 470 96.9 464.8 93.2 466.5 90.1 463.7 89.4 465.5 88.8 465.5 87 466.9 86.1 471.3 86.9 473.8 84.8 479.6 87.1 481 89.1 482.2 87.9 482.4 86.4 478.7 83.8 480.3 81.7 479.7 76.9 476.6 75.6 476.7 74.3 471.1 69.3 474 64.4 471 62.2 474.3 59 474 56.4 475.4 54.8 477 55 480.2 52.7 483.7 53.9 485.8 51.8 487.9 52.9 488.3 51.4 493.4 53.6 496.5 57.4 500.1 54.7 503.3 56.2ZM474.2 56L474.7 58.2 470.9 62.7 474 64.4 471.1 69.3 476.7 74.3 476.6 75.6 479.7 76.9 480.3 81.7 478.7 83.8 482.4 86.4 481.3 89.1 479.6 87.1 474.1 84.8 471.3 86.9 466.9 86.1 465.3 88.2 463.5 85.4 464.5 82.4 462 82.7 460.1 80.5 455.6 80.9 454 79 450.4 80.1 450 82.4 447.8 83 447.8 86.2 441.7 88.2 432.7 81.4 430.8 81.9 426.3 78.8 426.2 75.9 428.6 73.3 428.4 70.5 430.2 70 432 67.3 430.7 65.6 436.3 63.6 436.1 61.6 432 62.5 432.7 59.9 436.3 59.6 439.4 62.4 442.6 60.6 443.2 58.8 447.9 58.2 448.6 59.9 450 59.9 450.4 56.5 448.9 55.8 449.2 53.6 451.4 52.6 452.4 54.2 456.7 52.4 462.2 56.1 463 53.5 462.1 53.2 464 51.7 462.8 50.8 464 50.3 472.2 51.8 474.2 56ZM331 144.3L332.2 148.8 329 153.4 332.4 155.5 332 156.8 330.2 156.5 331.6 157.7 331 160.6 332.3 164.8 327.5 165.7 326.9 164.6 325 165.5 321.8 164.3 321.9 166.6 319.5 167.2 319.2 169 325 170.9 323.4 173 322.1 172 320.1 173.3 312.6 171.1 311.7 166.3 310.1 164.6 305.6 166.8 300.9 166.3 304.8 159 304.2 143.9 306 140.9 307.8 142.2 309.9 141.7 311.5 136.5 316.5 137.1 320.4 142.8 326.9 142.5 328.3 144.3 331 144.3ZM332 165L332.5 166.5 329.6 172.3 330.5 172.5 330 174 332.6 173.3 333.7 176.5 333 180.7 330 181.1 327.9 186.4 317.9 186.5 317.2 189.7 318.5 189.7 318.6 192.2 320.4 193.9 317.7 195.9 319.4 198 318.1 197.3 316.6 200.1 314.7 199.5 314.7 198.2 310.1 200.8 309.9 194.7 308.5 196.7 304.4 194.7 300.2 194.4 294.3 196.8 293.2 190.8 288.5 190.9 286.2 186.3 287.9 183.5 287 180.9 288.5 176.1 297.4 173.1 301.4 168.7 300.6 166.4 305.6 166.8 310.1 164.6 311.7 166.3 312.6 171.1 320.1 173.3 322.1 172 323.4 173 325 170.9 319.4 169.4 319.5 167.2 321.9 166.6 321.8 164.3 325 165.5 326.9 164.6 327.5 165.7 332 165ZM310.1 200.8L308.9 203.3 309.6 205.2 312.3 205.4 311.9 206.3 313.6 207.3 315.3 206.7 315.4 207.8 316.3 206.6 318.4 206.8 318.2 208.9 321.1 210.8 320.1 214.1 317.9 214.2 320.1 219.5 312.3 223.5 311.5 225.8 309.4 225.4 310.2 228.7 308.1 229.8 305.7 229.2 304.3 230.7 304.9 232.4 303.6 235.3 302 235.3 299.9 233.1 298 235.4 294.7 235.4 293.8 239.7 291 238.1 284.8 237.9 284 236.8 286 234.3 284.5 232.1 288.7 230.1 291.7 230.7 293.6 228.2 298.2 226.8 296.1 223.1 297.5 220.5 298.4 210.9 295.5 210.2 291.9 211.9 290.3 209.9 291.9 207.2 295.9 205.7 293.8 200.8 294.3 196.8 300.2 194.4 304.4 194.7 308.5 196.7 309.9 194.7 310.1 200.8ZM425.5 120.7L426.4 122.9 428.8 121.4 431.4 122.3 427.3 124.3 428.5 126.8 427.8 128.4 429.8 129.3 426.8 135 427.6 138.9 429.3 139.7 428.4 143.2 422.3 143 420.5 144 418.4 142.8 416.5 143.8 413.7 142.4 409.1 143 403.7 140.7 401.9 135.4 399.7 134.2 399.1 132 400.6 128.8 400.9 120.2 402.3 118.4 406.2 118.3 410.8 111.5 412 111.4 413.5 114.1 415.7 112.9 416.4 110.7 419.5 112.2 420.8 115.3 419 119 419.8 120.6 421 121.7 422.8 121.2 424.2 124.2 425.3 124.2 425.5 120.7ZM437.1 119.2L442.9 123.2 441.2 124.8 442.2 126.5 440.6 127.2 441.1 128.7 446.3 128.1 447.9 130.7 453.7 132.1 453.8 133.6 451.6 135.5 454.1 136.4 453.3 137.9 456.9 142.1 456.7 143.7 459.4 144.3 459.9 145.7 451.4 143.5 445.8 143.6 442.9 142 434.5 144.9 428.4 143.2 429.3 139.7 427.6 138.9 426.8 135 429.8 129.3 427.8 128.4 428.5 126.8 427.3 124.3 431.4 122.3 428.8 121.4 426.4 122.9 425.5 120.7 432.5 116.2 437.1 119.2ZM441.3 113.1L440.1 112.7 441.3 111.2 442.1 112.6 441.3 113.1ZM447.8 86.2L448.3 87.7 446.6 88.5 447.3 95.4 446 98.4 447.7 101.2 447.4 104.6 443.8 109.7 444.6 110.8 442.7 112.2 443.9 114.9 442.7 116.4 438.9 116.7 437.1 119.2 442.9 123.2 441.2 124.8 442.2 126.5 440.6 127.2 441.1 128.7 446.3 128.1 447.9 130.7 453.7 132.1 453.8 133.6 451.6 135.5 454.1 136.4 453.3 137.9 456.9 142.1 456.8 143.7 459.4 144.3 459.9 145.7 466 145.8 468.5 144.7 470.3 141.9 469.1 139.3 470.5 137.5 473.3 138.6 472.8 136.7 475.5 136.7 476.4 135.5 475.5 133.6 477.3 131.7 474.3 130.4 473.2 128.4 474.3 126.1 473.1 124.9 473.5 123.1 476.1 123.6 477.3 122.6 474.8 120.2 479.9 113.2 483.2 111.7 486.4 112.1 489.2 108.9 486.5 107 485.2 103.9 479.9 103 475.5 98.9 476.2 94.1 470.3 97 464.9 93.3 466.5 90.1 463.7 89.4 465.7 88.2 463.7 86.4 464.4 82.3 462 82.7 460.2 80.6 455.6 80.9 454 79 452.2 79.3 450.4 80.1 450 82.4 447.8 83 447.8 86.2ZM410.7 19.3L411 20.8 413.6 21 416.7 25.3 415.3 28.8 415.6 33.6 419.9 37.7 419.9 43.3 425.8 45.2 425.5 50.3 427.2 51 422.6 51.8 419 58 415.4 58.8 415.9 61.4 415 61.8 417.2 65 415.3 68.6 405.5 67.9 410.2 63.9 408.8 63.1 408.8 59.9 406.5 58.7 407 57.7 404.3 58.1 405.2 57.4 403.2 55.1 403.9 52.3 402.4 52.2 401.2 53.9 400.3 52.4 405.4 49.9 404.6 49.3 406.3 48.7 406.2 47.5 403.1 47.9 402.6 43.9 400.9 43 402.3 41.3 401.7 39 400.1 39.2 399.5 37.5 397.8 37 399.6 33.9 395.8 32 401.5 27 399.1 23.1 400.2 19.9 399.2 17.7 409.1 17.8 410.7 19.3ZM393.5 15.3L394.5 18 396.5 17.1 399.7 18.2 399.1 23.1 401.5 27 395.8 32 399.6 33.9 397.8 37 399.5 37.5 400.1 39.2 401.7 39 402.3 41.3 400.9 43 402.6 43.9 403.1 47.9 406.2 47.5 406.3 48.7 404.6 49.3 405.4 49.9 400.3 52.4 401.2 53.9 402.4 52.2 403.9 52.3 403.2 55.1 405.2 57.4 404.3 58.1 407 57.7 406.5 58.7 408.8 59.9 408.8 63.1 410.2 63.9 405.5 67.1 402.5 66.6 396.3 70.2 391.4 68.3 391.6 64.3 388.1 60.2 390.5 57.9 389.5 52.9 392.4 49.8 392.3 46.8 389.6 44.8 388 45.2 386.9 42.6 382.2 43.3 382.3 40.9 379.4 41 378.3 36.4 376.2 34.5 371 35.8 369.3 33.5 364.9 32.5 362.7 35.1 360.3 34.7 360 36.6 358.7 37 357.4 33.1 355.8 33.2 355.3 31.3 357.3 30.6 357.8 26.7 360.1 26.6 362.5 23.1 359.5 20.3 358.8 16.3 356.9 15.2 358.1 14.2 357 13.5 357.4 12.1 360.8 10.9 363.2 14.7 364.7 15 364.3 16 369.7 18 374.7 16 376.1 14.1 378.1 15.2 381.3 14.8 383.4 15.9 383.2 16.9 385.8 17.5 391.1 17.3 393.5 15.3ZM459.9 145.7L466 145.8 470.4 148.3 468.6 150.1 467.5 147.3 463.1 150.6 461.2 156.5 462.2 159.7 464.8 162.3 465.4 164.9 464.3 166.1 453 162.6 452.3 163.4 451.6 162.5 449.5 164.8 448.2 161.3 444.4 160.4 443.7 157.7 441.8 157.2 440.8 159 438.1 156.8 436.2 157.2 433.4 153.2 430.1 154.7 430.4 156.3 426.9 155.2 422.3 157.5 420.4 153.8 420.7 150.4 417.8 149.8 417.5 148.1 422.3 143 428.4 143.2 433.1 145 442.9 142 445.8 143.6 451.4 143.5 459.9 145.7ZM407.1 142.2L413.7 142.4 416.5 143.8 418.4 142.8 420.5 144 418.7 147.9 417.5 148.1 417.8 149.8 421 151.2 420.4 153.8 422.3 157.5 423 164.4 422.6 166.8 420 166 414.6 167.7 408.7 167.3 409.3 168.8 407.8 170.1 407.6 168.5 405.9 168 404.2 170.9 402.5 170 401.5 170.8 401.6 169.5 400.3 169.1 397.4 170.3 397.5 168.6 395.7 167.8 395.4 164.7 397.4 163.1 395.9 160.7 389.3 165 387.8 163.7 387.9 161.9 376.8 157.3 377 152.3 376 150.9 374.8 150.6 374 152.1 372.3 150 368.4 150.8 367.9 149 365.6 149.8 365.9 151.6 362.4 151.1 362.4 149.1 360.2 147.3 364.1 145.5 362.8 140.9 365.4 141.7 369.1 140.2 371.4 141.1 383 133.6 388.2 136.7 391.5 135.9 392.5 140.7 398.2 141.5 399.6 143.6 404.3 143.8 407.1 142.2Z" fill="none" stroke="#1B432E" stroke-width="0.8" stroke-opacity="0.3" stroke-linejoin="round" stroke-linecap="round" /></g><style>
    @import url('https://fonts.googleapis.com/css2?family=Caveat:wght@600&amp;family=Noto+Serif+Devanagari:wght@600&amp;display=swap');
    .state-title {
      font-family: 'Noto Serif Devanagari', serif;
      font-size: 42px;
      font-weight: 600;
      fill: #1B432E;
      text-anchor: start;
    }
    .watermark {
      font-family: 'Caveat', cursive;
      font-size: 22px;
      font-weight: 600;
      fill: #1B432E;
      opacity: 0.7;
      text-anchor: middle;
    }
  </style><g transform="translate(460, 65)"><text class="state-title" x="0" y="0">छत्तीसगढ़</text><path d="M -20,15 C 50,22 150,22 220,12" fill="none" stroke="#1B432E" stroke-width="1.5" /><polygon points="100,15 104,18 100,21 96,18" fill="#1B432E" /><path d="M 220,12 C 235,10 248,3 255,-5" fill="none" stroke="#1B432E" stroke-width="1.5" /><path d="M 235,9 C 236,3 242,3 243,8 C 242,12 236,12 235,9 Z" fill="#1B432E" /><path d="M 246,2 C 248,-3 253,-3 255,2 C 253,6 248,6 246,2 Z" fill="#1B432E" /><path d="M 255,-5 C 258,-10 263,-9 264,-4 C 261,-1 257,-1 255,-5 Z" fill="#1B432E" /></g><g transform="translate(400, 565)"><text class="watermark" x="0" y="0">krashimitra.in</text><path d="M 55,-12 C 58,-16 63,-15 64,-10 C 61,-7 57,-7 55,-12 Z" fill="#1B432E" opacity="0.7" /></g></svg>