<svg xmlns="http://www.w3.org/2000/svg" viewBox="0 0 800 600" width="100%" height="100%"><defs><filter id="shadow" x="-20%" y="-20%" width="140%" height="140%"><feDropShadow dx="4" dy="6" stdDeviation="6" flood-color="#000000" flood-opacity="0.12" /></filter><filter id="blur" x="-50%" y="-50%" width="200%" height="200%"><feGaussianBlur stdDeviation="30" /></filter><clipPath id="state-clip"><path d="M634.8 209.6L638.9 209.7 639.8 212.7 637.3 215.7 636.8 218.7 632.2 214.3ZM634.5 241L635.3 236.6 632.5 233.7 626.5 232.1 623.4 228.5 621.8 224.2 628.4 219.4 632.8 222 634.6 225.2 636.9 225.8 639.6 224.2 639.4 220.7 646.8 220.2 647.2 217.8 645.8 214.6 648.5 215.3 648.1 219.4 653 220.1 654.9 211.3 661.3 210.2 664 211.9 667.3 206.7 667 202.9 668.7 202.2 672.7 208.3 670.5 217.5 676.7 216.5 677.3 213.2 682.8 213.2 685 215.7 686.6 215.3 686.7 221 684.7 222.7 683 220 681.5 220.8 680 224.6 677.8 224.3 676.4 228 673.4 228.6 671.6 230.5 669.1 233.6 669.2 236 667 236.6 662.3 235.3 660.5 236.4 656.7 243.3 659.4 245 659.6 253.2 663 254.8 664.5 250.3 666.5 251.1 667.3 253.6 673.8 255.7 674.7 251.6 677 250.3 679 251.1 680.5 249.3 678.1 245.5 678.2 242 679.4 241.5 684.4 243.9 687.2 241.4 688.1 243.9 689.9 244.1 689.7 245.4 693.2 244.1 699.9 247.1 699 250.7 696.8 252.6 692.7 252.6 691.6 254.8 692 261.5 696.1 264 698.9 264.2 697.8 272.9 694.6 275.2 692.4 274.6 691.8 279.5 693.3 280.6 693 281.9 689.7 282.6 689.4 281.3 686.4 280.5 683 276.1 683.8 275.2 682.4 274.4 681.7 275.7 680.6 274.1 679.3 274.4 679.1 272.5 676.3 273.3 672.9 276.4 671.3 275.6 670.4 271.3 665.6 271.3 660.5 269.1 658.3 269.1 657.2 278.3 654.5 277.6 644.4 265.9 644.1 263.2 647.5 261.6 645.1 258.7 643.6 258.1 642.8 259.5 642.1 264.5 638.4 265.8 634.9 262.4 634.4 259.6 637.7 253.6 638.3 248.4 634.5 247.7 634.4 241.1ZM595.2 199.4L599.8 200.9 604.4 198.8 609.5 198.7 612.7 200.1 616.3 199.3 617.8 197.5 615.3 196.1 614.3 192.9 619.3 190.9 619.7 188.5 616.9 186.8 611.4 188.8 607.7 187.5 612.2 180.7 615.5 182.6 617.5 181 615.6 179.4 615.4 176.6 608.4 175.8 604.9 172.4 604.4 175.3 598.3 183.7 596.5 194.9 594.4 198.5ZM133 106.7L134.4 105.7 133.5 105 128.8 107.7 128 109.9 123.9 108.1 122.7 106.3 117.3 107.4 112.4 104.7 101.8 108.4 100 113.7 104.3 113.3 107.2 115.8 110.8 115.8 112.5 113 114.6 112.5 121.1 114.7 127.9 114.2 132.6 111.6 131.4 108.5ZM170.4 97.4L171.2 97.4 171.3 99.9 170.3 100.6Z" /></clipPath></defs><rect width="800" height="600" fill="#F9F6F0" /><g opacity="0.32" filter="url(#blur)"><circle cx="330.0" cy="150.0" r="140" fill="#E3EFE0" /><circle cx="400.0" cy="190.0" r="170" fill="#FAF2D8" /><circle cx="470.0" cy="230.0" r="130" fill="#F7DEC0" /></g><g filter="url(#shadow)"><g clip-path="url(#state-clip)"><rect width="800" height="600" fill="#F9F6F0" /><g opacity="0.75" filter="url(#blur)"><circle cx="330.0" cy="150.0" r="140" fill="#E3EFE0" /><circle cx="400.0" cy="190.0" r="170" fill="#FAF2D8" /><circle cx="470.0" cy="230.0" r="130" fill="#F7DEC0" /></g></g><path d="M634.8 209.6L638.9 209.7 639.8 212.7 637.3 215.7 636.8 218.7 632.2 214.3ZM634.5 241L635.3 236.6 632.5 233.7 626.5 232.1 623.4 228.5 621.8 224.2 628.4 219.4 632.8 222 634.6 225.2 636.9 225.8 639.6 224.2 639.4 220.7 646.8 220.2 647.2 217.8 645.8 214.6 648.5 215.3 648.1 219.4 653 220.1 654.9 211.3 661.3 210.2 664 211.9 667.3 206.7 667 202.9 668.7 202.2 672.7 208.3 670.5 217.5 676.7 216.5 677.3 213.2 682.8 213.2 685 215.7 686.6 215.3 686.7 221 684.7 222.7 683 220 681.5 220.8 680 224.6 677.8 224.3 676.4 228 673.4 228.6 671.6 230.5 669.1 233.6 669.2 236 667 236.6 662.3 235.3 660.5 236.4 656.7 243.3 659.4 245 659.6 253.2 663 254.8 664.5 250.3 666.5 251.1 667.3 253.6 673.8 255.7 674.7 251.6 677 250.3 679 251.1 680.5 249.3 678.1 245.5 678.2 242 679.4 241.5 684.4 243.9 687.2 241.4 688.1 243.9 689.9 244.1 689.7 245.4 693.2 244.1 699.9 247.1 699 250.7 696.8 252.6 692.7 252.6 691.6 254.8 692 261.5 696.1 264 698.9 264.2 697.8 272.9 694.6 275.2 692.4 274.6 691.8 279.5 693.3 280.6 693 281.9 689.7 282.6 689.4 281.3 686.4 280.5 683 276.1 683.8 275.2 682.4 274.4 681.7 275.7 680.6 274.1 679.3 274.4 679.1 272.5 676.3 273.3 672.9 276.4 671.3 275.6 670.4 271.3 665.6 271.3 660.5 269.1 658.3 269.1 657.2 278.3 654.5 277.6 644.4 265.9 644.1 263.2 647.5 261.6 645.1 258.7 643.6 258.1 642.8 259.5 642.1 264.5 638.4 265.8 634.9 262.4 634.4 259.6 637.7 253.6 638.3 248.4 634.5 247.7 634.4 241.1ZM595.2 199.4L599.8 200.9 604.4 198.8 609.5 198.7 612.7 200.1 616.3 199.3 617.8 197.5 615.3 196.1 614.3 192.9 619.3 190.9 619.7 188.5 616.9 186.8 611.4 188.8 607.7 187.5 612.2 180.7 615.5 182.6 617.5 181 615.6 179.4 615.4 176.6 608.4 175.8 604.9 172.4 604.4 175.3 598.3 183.7 596.5 194.9 594.4 198.5ZM133 106.7L134.4 105.7 133.5 105 128.8 107.7 128 109.9 123.9 108.1 122.7 106.3 117.3 107.4 112.4 104.7 101.8 108.4 100 113.7 104.3 113.3 107.2 115.8 110.8 115.8 112.5 113 114.6 112.5 121.1 114.7 127.9 114.2 132.6 111.6 131.4 108.5ZM170.4 97.4L171.2 97.4 171.3 99.9 170.3 100.6Z" fill="none" stroke="#1B432E" stroke-width="2.5" stroke-linejoin="round" stroke-linecap="round" /><path d="M634.8 209.6L638.9 209.7 639.8 212.7 637.3 215.7 636.8 218.7 632.2 214.3 634.8 209.6ZM634.5 240.9L634.5 247.7 638.3 248.9 637.7 253.6 634.4 259.6 634.9 262.4 638.4 265.8 642.1 264.5 642.8 259.5 643.6 258.1 645.1 258.7 647.5 261.6 644.1 263.2 644.4 265.9 654.5 277.6 657.2 278.3 658.3 269.1 660.5 269.1 665.6 271.3 670.4 271.3 671.3 275.6 672.9 276.4 676.3 273.3 679.1 272.5 679.3 274.4 680.6 274.1 681.7 275.7 682.4 274.4 683.8 275.2 683 276.1 686.4 280.5 689.4 281.3 689.7 282.6 693 281.9 693.3 280.6 691.8 279.5 692.4 274.6 694.6 275.2 697.8 272.9 698.9 264.2 696.1 264 692 261.5 691.6 254.8 692.7 252.6 696.8 252.6 699 250.7 699.9 247.1 693.2 244.1 689.7 245.4 689.9 244.1 688.1 243.9 687.2 241.4 684.4 243.9 679.4 241.5 678.2 242 678.1 245.5 680.5 249.3 679 251.1 677 250.3 674.7 251.6 673.8 255.7 667.3 253.6 666.5 251.1 664.5 250.3 663 254.8 659.6 253.2 659.4 245 656.7 243.3 660.5 236.4 662.3 235.3 667 236.6 669.2 236 669.1 233.6 671.6 230.5 673.4 228.6 676.4 228 677.8 224.3 680 224.6 681.5 220.8 683 220 684.7 222.7 686.7 221 686.6 215.3 685 215.7 682.8 213.2 677.3 213.2 676.7 216.5 670.5 217.5 672.7 208.3 668.7 202.2 667 202.9 667.3 206.7 664 211.9 661.3 210.2 654.9 211.3 653 220.1 648.1 219.4 648.5 215.3 645.8 214.6 647.2 217.8 646.8 220.2 639.4 220.7 639.6 224.2 636.9 225.8 634.6 225.2 632.8 222 628.4 219.4 621.8 224.2 623.4 228.5 626.5 232.1 632.5 233.7 635.3 236.6 634.5 240.9ZM599.2 200.7L594.4 198.5 596.5 194.9 598.3 183.7 604.4 175.3 604.9 172.4 608.4 175.8 615.2 176.4 615.6 179.4 617.5 181 615.5 182.6 612.2 180.7 607.7 187.5 611.4 188.8 616.9 186.8 619.7 188.5 619.3 190.9 614.3 192.9 615.3 196.1 617.7 197.7 616.3 199.3 612.8 200.1 609.5 198.7 604.4 198.8 599.2 200.7ZM134.4 105.7L131.1 109.4 132.6 111.6 127.9 114.2 121.1 114.7 114.6 112.5 112.5 113 110.8 115.8 107.2 115.8 104.3 113.3 100 113.7 101.8 108.4 112.4 104.7 117.3 107.4 122.7 106.3 123.9 108.1 128 109.9 128.8 107.7 133.5 105 134.4 105.7ZM171.2 97.4L170.4 97.4 170.3 100.6 171.3 99.9 171.2 97.4Z" fill="none" stroke="#1B432E" stroke-width="0.8" stroke-opacity="0.3" stroke-linejoin="round" stroke-linecap="round" /></g><style>
    @import url('https://fonts.googleapis.com/css2?family=Caveat:wght@600&amp;family=Noto+Serif+Devanagari:wght@600&amp;display=swap');
    .state-title {
      font-family: 'Noto Serif Devanagari', serif;
      font-size: 42px;
      font-weight: 600;
      fill: #1B432E;
      text-anchor: start;
    }
    .watermark {
      font-family: 'Caveat', cursive;
      font-size: 22px;
      font-weight: 600;
      fill: #1B432E;
      opacity: 0.7;
      text-anchor: middle;
    }
  </style><g transform="translate(460, 65)"><text class="state-title" x="0" y="0">दादरा और नगर हवेली</text><path d="M -20,15 C 50,22 150,22 220,12" fill="none" stroke="#1B432E" stroke-width="1.5" /><polygon points="100,15 104,18 100,21 96,18" fill="#1B432E" /><path d="M 220,12 C 235,10 248,3 255,-5" fill="none" stroke="#1B432E" stroke-width="1.5" /><path d="M 235,9 C 236,3 242,3 243,8 C 242,12 236,12 235,9 Z" fill="#1B432E" /><path d="M 246,2 C 248,-3 253,-3 255,2 C 253,6 248,6 246,2 Z" fill="#1B432E" /><path d="M 255,-5 C 258,-10 263,-9 264,-4 C 261,-1 257,-1 255,-5 Z" fill="#1B432E" /></g><g transform="translate(400, 565)"><text class="watermark" x="0" y="0">krashimitra.in</text><path d="M 55,-12 C 58,-16 63,-15 64,-10 C 61,-7 57,-7 55,-12 Z" fill="#1B432E" opacity="0.7" /></g></svg>