<svg xmlns="http://www.w3.org/2000/svg" viewBox="0 0 800 600" width="100%" height="100%"><defs><filter id="shadow" x="-20%" y="-20%" width="140%" height="140%"><feDropShadow dx="4" dy="6" stdDeviation="6" flood-color="#000000" flood-opacity="0.12" /></filter><filter id="blur" x="-50%" y="-50%" width="200%" height="200%"><feGaussianBlur stdDeviation="30" /></filter><clipPath id="state-clip"><path d="M412.2 379L414.8 373.3 412.3 378 410.6 379.1 408.1 378.7 410.2 380 412.1 379.1ZM477.8 180L477.8 179.1 476.7 180.6 477.1 181.7 477.8 181.5ZM366.5 124L367.5 125.7 364.7 127.3 366.1 125.1ZM479.3 97.7L483.6 97.8 483.6 98.3 481.1 99.1 479.6 99 479.1 98.3ZM317.8 90.9L318.4 91.2 316.5 94.3 317.1 91.7ZM327.1 84.4L327.5 83.4 327.8 84.2ZM330.7 83L331.6 83 330.6 83.7ZM375.2 64.9L376.5 63.6 376.8 62.6 376.4 62.4 375.3 63.1 374.9 63.8 374.9 64.6ZM379.9 57.3L383 49.2 382.6 48.9 381.8 50.7 380 56.1ZM407.1 25.5L407.5 25.2 407.3 23.6 406.9 22.9 406.5 23ZM374.3 1.6L374.9 0.7 374.5 0 374.2 0.9Z" /></clipPath></defs><rect width="800" height="600" fill="#F9F6F0" /><g opacity="0.32" filter="url(#blur)"><circle cx="330.0" cy="150.0" r="140" fill="#E3EFE0" /><circle cx="400.0" cy="190.0" r="170" fill="#FAF2D8" /><circle cx="470.0" cy="230.0" r="130" fill="#F7DEC0" /></g><g filter="url(#shadow)"><g clip-path="url(#state-clip)"><rect width="800" height="600" fill="#F9F6F0" /><g opacity="0.75" filter="url(#blur)"><circle cx="330.0" cy="150.0" r="140" fill="#E3EFE0" /><circle cx="400.0" cy="190.0" r="170" fill="#FAF2D8" /><circle cx="470.0" cy="230.0" r="130" fill="#F7DEC0" /></g></g><path d="M412.2 379L414.8 373.3 412.3 378 410.6 379.1 408.1 378.7 410.2 380 412.1 379.1ZM477.8 180L477.8 179.1 476.7 180.6 477.1 181.7 477.8 181.5ZM366.5 124L367.5 125.7 364.7 127.3 366.1 125.1ZM479.3 97.7L483.6 97.8 483.6 98.3 481.1 99.1 479.6 99 479.1 98.3ZM317.8 90.9L318.4 91.2 316.5 94.3 317.1 91.7ZM327.1 84.4L327.5 83.4 327.8 84.2ZM330.7 83L331.6 83 330.6 83.7ZM375.2 64.9L376.5 63.6 376.8 62.6 376.4 62.4 375.3 63.1 374.9 63.8 374.9 64.6ZM379.9 57.3L383 49.2 382.6 48.9 381.8 50.7 380 56.1ZM407.1 25.5L407.5 25.2 407.3 23.6 406.9 22.9 406.5 23ZM374.3 1.6L374.9 0.7 374.5 0 374.2 0.9Z" fill="none" stroke="#1B432E" stroke-width="2.5" stroke-linejoin="round" stroke-linecap="round" /><path d="M412.2 379L414.8 373.3 412.3 378 408.1 378.7 410.9 380 412.2 379ZM477.8 180L477.8 179.1 476.7 180.6 477.1 181.7 477.8 181.5 477.8 180ZM366.8 124.1L364.7 127.3 367.5 125.7 366.8 124.1ZM480 97.7L479.6 99 483.6 98.3 480 97.7ZM318.2 90.9L317.8 90.9 317.1 91.7 316.5 94.3 318.4 91.2 318.2 90.9ZM327.5 83.4L327.1 84.4 327.8 84.2 327.5 83.4ZM331.6 83L330.7 83 330.6 83.7 331.6 83ZM375.2 64.9L376.8 62.6 375.3 63.1 375.2 64.9ZM379.9 57.3L383 49.2 382.6 48.9 381.8 50.7 379.9 57.3ZM407.1 25.5L407.5 25.2 407.3 23.6 406.9 22.9 406.5 23 407.1 25.5ZM374.3 1.6L374.9 0.7 374.5 0 374.3 1.6Z" fill="none" stroke="#1B432E" stroke-width="0.8" stroke-opacity="0.3" stroke-linejoin="round" stroke-linecap="round" /></g><style>
    @import url('https://fonts.googleapis.com/css2?family=Caveat:wght@600&amp;family=Noto+Serif+Devanagari:wght@600&amp;display=swap');
    .state-title {
      font-family: 'Noto Serif Devanagari', serif;
      font-size: 42px;
      font-weight: 600;
      fill: #1B432E;
      text-anchor: start;
    }
    .watermark {
      font-family: 'Caveat', cursive;
      font-size: 22px;
      font-weight: 600;
      fill: #1B432E;
      opacity: 0.7;
      text-anchor: middle;
    }
  </style><g transform="translate(460, 65)"><text class="state-title" x="0" y="0">लक्षद्वीप</text><path d="M -20,15 C 50,22 150,22 220,12" fill="none" stroke="#1B432E" stroke-width="1.5" /><polygon points="100,15 104,18 100,21 96,18" fill="#1B432E" /><path d="M 220,12 C 235,10 248,3 255,-5" fill="none" stroke="#1B432E" stroke-width="1.5" /><path d="M 235,9 C 236,3 242,3 243,8 C 242,12 236,12 235,9 Z" fill="#1B432E" /><path d="M 246,2 C 248,-3 253,-3 255,2 C 253,6 248,6 246,2 Z" fill="#1B432E" /><path d="M 255,-5 C 258,-10 263,-9 264,-4 C 261,-1 257,-1 255,-5 Z" fill="#1B432E" /></g><g transform="translate(400, 565)"><text class="watermark" x="0" y="0">krashimitra.in</text><path d="M 55,-12 C 58,-16 63,-15 64,-10 C 61,-7 57,-7 55,-12 Z" fill="#1B432E" opacity="0.7" /></g></svg>