<svg xmlns="http://www.w3.org/2000/svg" viewBox="0 0 800 600" width="100%" height="100%"><defs><filter id="shadow" x="-20%" y="-20%" width="140%" height="140%"><feDropShadow dx="4" dy="6" stdDeviation="6" flood-color="#000000" flood-opacity="0.12" /></filter><filter id="blur" x="-50%" y="-50%" width="200%" height="200%"><feGaussianBlur stdDeviation="30" /></filter><clipPath id="state-clip"><path d="M563.9 28.8L570.5 28 571 26.8 575.8 25.3 584.7 30.3 587.4 28 591.1 29.4 594.9 28.2 598.1 24.9 603.4 23.4 606.8 24.4 613.4 30.1 615.8 34.4 614.5 37 615.5 38.7 617.5 39 618.3 37.1 621.8 37.7 626.5 41.6 630.3 41.2 631.4 42.4 627.3 47.6 618.5 50.6 617.4 53.8 618.2 54.2 617 55.2 617.9 57.9 616.3 60.6 618.5 65.1 623.1 65.1 624.3 71 623.7 74.9 625.8 79.4 620.4 82.4 620.9 85.6 625.4 84.1 628.3 84.8 627.4 94.3 626.1 96.8 628.1 100.4 623.6 101.8 621.6 104.3 619.4 103.6 614.6 105.6 616 107.9 614.1 110.3 614.8 111.4 621 111.5 623.7 113.1 624 116 622.4 123.7 620 124.2 617.8 122.6 615.4 123.7 615.6 125.6 620.1 125.9 621 127.7 618.8 130.3 615.1 131 614.8 132.1 618.7 132.3 620.1 133.6 618.8 131.3 619.5 130.3 623.3 130.8 623.8 134 630.8 137.8 630.4 143.1 634.9 143.4 636.9 146 640.5 145.7 641.3 148 644 148.5 644.2 150.8 642.7 152.9 638.1 153.7 639.4 156.5 641.5 157.7 635.8 162.1 631.9 162.3 631.3 159.7 627.3 160.9 625 155.4 621.8 158.7 619.6 159.2 617.5 163.6 614.4 164.8 614.4 168.1 610.8 170.6 610.6 175.1 608.7 176.3 609 177.9 607.2 179.8 607.2 183.2 612 189.5 605.7 193.2 607.2 195.6 603.5 196.7 602.7 198.1 600.8 196.9 598.1 198.1 592.2 192.8 588.9 192.6 586.4 190.5 586 189.5 588.8 187.1 587.4 176.8 583.6 176.9 582.7 172.9 587.9 169.2 586.6 165.9 589.1 161.3 589.8 155.6 587.8 151.5 583.1 149 578 143.8 575.9 143.2 573.9 144.7 569.1 145.3 567.2 149.2 563.2 146.6 562.6 148.5 559.8 149.7 553.6 145.2 550.5 145.7 550.1 144 546.3 142.8 546.1 147.6 544 150 545.1 151.5 543.2 152.1 537.7 147.8 531.8 147.3 530.8 146.1 528.4 146.6 530.3 144.8 529.3 140.4 523.2 140.3 522.5 134.2 516.5 132.9 515.3 133.9 512.2 131.9 505.4 130.5 501.8 132.4 500.7 130.9 497.8 130.9 495.6 129.2 495.3 127.2 492.4 126.9 492.4 125.2 490.9 125.2 489.7 129.1 492.7 129.7 494.3 133.4 493.1 137.1 489.1 138.3 488.3 139.9 490.8 143.3 490.7 145.6 489 146 490.8 152.3 483.2 154.9 482.9 158.6 484.2 160.6 483.5 164.6 481.7 165.7 479.7 164.5 475.2 164.8 475.3 163.2 469.4 159 464.7 161.3 464.8 162.5 467.3 163.4 465.4 163.9 463.8 168 463.8 174.1 461.6 173 461 176.2 458.9 175.5 459.2 180.5 462.2 180.5 461.9 182.4 464.4 182.3 463.5 184.6 465.9 184.9 469.7 189.4 463.3 190.8 460.2 198 458.2 196.9 456.8 198.9 458 203.6 457.3 205.5 452.7 206.9 451.9 205.6 448.9 205.9 448.3 208.6 449.3 210.2 447.7 209.6 446.1 210.7 448.1 212.1 444.9 212.2 446.5 213.6 444.5 218 447.4 220.2 446.2 221.1 443.9 220.1 443.9 221.7 440.9 222.8 439.4 220 435.2 220.2 438.1 215.1 435.7 214.7 435.3 211.8 432.9 213.5 432.3 212.2 427.9 214 428.2 216.5 425.4 219.7 426.2 221.8 424 221.5 422.6 225.6 419.4 226.8 420.2 229.2 417.4 229.5 415.6 227.6 415 229 413.7 228.9 413.1 227.2 410.8 227.3 408.9 231 411.6 232.6 410.4 233.5 410.8 236 408.5 236.3 408 237.8 408.8 243.4 406.8 244.6 404.1 244.3 402.2 246.1 398.2 244.3 398.1 246.8 401.2 248.7 399.6 250.9 396.7 251.4 397.5 253.9 395.8 254.6 395.3 257.3 393.8 256.9 390.9 252 388.9 255.8 388.3 252.6 385.4 252.6 385.5 255.2 383.3 255.3 383.3 258.6 379.9 259.4 379.3 261.8 374.1 262.2 374.6 265.5 376.2 266.8 374.9 268.4 376.7 268.6 374 269.7 374.2 271.9 376.4 271.7 376 275.2 378.7 275.6 377.1 278.9 375.4 279 374.9 276.6 370.8 277.8 368.9 275.1 364.5 276.7 364.9 279.8 364.1 277.1 361.5 275.6 359.1 277.9 358.2 276.6 355.3 276.6 350.6 278.5 348 276.5 347.5 272.8 346.3 274.7 343.9 272.6 342.9 275.8 339 272.8 336.2 273.3 335.2 270.5 332.8 269.3 331.6 274.4 329.3 274.9 329.7 276.8 331.4 277.1 331 279.5 334.2 282 334.5 284.9 332.3 287.4 333.8 290.7 335.1 290.7 335.3 293.7 333.2 295.3 334.9 295.3 335 299.8 333.5 300.3 331.4 299.2 331.2 297.3 328.9 297 328.9 299.6 324.2 300.8 322.8 298.2 320.6 299.5 318.5 298.7 311.9 300.1 312 304.6 308 306.9 306.1 306.8 306.5 304.9 303.4 305 302.3 302.7 301 302.7 300.6 300.4 296.8 301.8 294.9 300.4 293.2 300.6 293.2 301.9 291.3 300.8 290.7 301.7 293.2 302.9 293 304.6 289.5 305.7 290.6 311 286.4 311 277 314.4 276.9 316.7 274.8 318.9 276.8 320.8 274 320.6 273.8 322.2 269.8 323.9 268.4 319.1 265.1 319.4 263.9 317.4 263.8 320.8 259.6 322.2 258.6 325.4 257.2 323.6 254.8 323.9 254.3 326.9 254 325.4 251.8 324.7 252.6 326.8 250.8 327.3 251.6 328.3 253.4 326.8 253.3 329.3 255.8 329.8 256 333 257.7 332.7 257.1 335 256 333.4 254.9 334.2 254.9 337.4 256.4 339.1 255.4 340.6 256.9 340.4 256.6 339.3 260.7 340 260.9 341.4 264.6 341.9 266.2 344.7 264.5 348 264.8 351.3 261.5 350.1 257.5 353.5 258.7 354.6 261.8 353.2 263.6 354.4 259 362.3 260.2 365.3 258.8 365 258 362.9 256.2 365.3 258.8 365.6 257.4 370 255.3 370.1 253.2 372 250.5 371.9 250 369.3 248.5 369.6 248.1 371 243.4 373.2 243.6 375.6 241.4 376.1 242.9 377.6 237.4 380 234.3 378.6 232.7 372.2 228.8 371.4 228.1 368.6 225.9 371.9 223.4 372.9 215.8 372 215.8 368.8 213.9 365.2 211.7 362 207.2 360.2 205.7 354.7 204 353.3 203 345.4 195.5 325 197.4 323 195.8 321.1 198 320.1 196.1 318.9 196.5 316 195 311.4 195.9 309.7 194.1 306.8 194.9 304 193.5 303.9 194.7 298.6 192.8 298.1 193.8 296.9 192.1 295.9 194.1 293.1 192 286.4 190.7 285.8 191.5 284.4 188.3 279.8 192.3 280.6 190.9 280.5 189.2 274.6 186.9 273.7 188.8 271.6 187.3 267 185.1 264.7 186 262.1 183.8 257.3 185 255.6 184.5 253 178.8 241.8 179.4 239.7 177.3 237.2 178.3 236.8 176.4 235.1 175.7 226.7 173 225.4 173.2 221.8 175.5 222.6 176.2 221.7 174.3 218.6 172.1 217.7 172.6 215.7 170.7 210.4 172.4 206 168.7 200.9 169.1 190.6 172 191.1 173.6 189.5 176.6 192.4 175.8 190.8 177 190.5 175.5 188.7 176 187.2 173.6 188.6 171.3 186.3 174.4 181.8 173.9 180 170.3 180.4 169.8 177.9 167.8 183.3 165.4 185.2 166.6 182.9 164.7 182.2 167.4 176.1 166.2 176.8 167 174.3 166.2 171.7 164.5 171.4 164.9 167.7 163.7 165.8 164.3 161.1 167 159.8 165 160 161.9 156.8 162.8 156.1 162.2 150.3 160.5 149.6 159.9 147.2 159.8 143.8 160.8 143.3 159.2 140.1 159.7 137.6 157.6 136.5 158.3 132.6 155.8 129.3 156.1 128.1 158 128 157.1 124 160.5 120.7 159.7 116 161.5 112.1 164.8 112.8 164.5 111.3 166.6 111.7 166.1 109.2 168.8 107.8 168.7 106.8 174.8 107.7 175.6 109.5 174.7 112.4 175.7 113.4 176.9 111.6 177.7 112.1 177.1 113.5 179.4 116.2 180.8 114.2 183.6 115.9 185.1 115 187.6 117.3 189.9 112 191.8 112.9 194.6 107.8 201.6 108.4 201.8 100.5 201 97.3 199.7 98.1 199.5 96.8 201.8 95.7 206.2 88.3 205.1 88 205 85.5 202.5 84.9 200.3 82.2 203.3 79.8 203.6 77.6 205.1 77.5 205.9 81.3 208.5 80.3 212.5 82.4 214.1 85.5 216.6 86.8 221.7 86.3 222.9 84.6 225.8 83.9 226.6 81.1 225 79.2 227.6 79.1 228.8 76.9 232.8 76.2 231.8 67.5 229.5 64.9 230.3 62 225.2 59.6 224.1 58.3 224.8 55.9 222.2 56.8 218.6 54.1 217.8 55 213.6 53.9 213.5 52.5 211.2 52 211.2 51 212.5 50.2 215.1 52.7 216.8 51.8 220.4 52.5 220.2 51.2 222.7 51.2 223.4 50.1 225.3 50.7 225.7 45.2 229 45.2 232.8 43.2 233 37 238.8 36.1 240 32.9 242.1 34.5 243.5 33.4 248.5 33.6 248.8 32.4 251.2 33.3 255.1 31.5 255.8 28.8 253.6 27.3 251.7 29 249.7 28.2 247.7 29.5 245.5 27.3 244.4 28.4 236.5 28.3 234.6 28.8 234.8 30.1 233.8 28.9 233.2 30.6 230.5 29.9 227.5 31.5 225.2 25.6 223.2 23.8 229.5 22.3 229.8 20 225.8 16 226.2 13.5 224.1 12.2 225 11.3 228.7 11.1 243.7 4.8 247.6 6.2 252.8 5.7 254.4 3.4 261.7 0 262.9 1.6 262.2 3.2 265.1 4.4 267.1 7 265.6 14.3 266.6 15.7 266.1 18 268.5 18.4 268.9 20.6 270.5 20.5 270.6 21.6 282.5 24.8 289.5 23.7 298.5 27.6 302.8 34.4 308.4 36.8 312.7 36.5 314 38 316.6 37.3 317.9 38.5 323 37.8 327.7 38.9 331 37.8 334.9 38.8 348 37.6 352.3 37.9 357.4 40.3 360.2 39 364.9 50.1 361.2 51.8 364.6 54.8 364.3 56.2 369.9 55.6 371 56.8 376.6 56.7 381.4 54.5 383.6 49.5 391.3 50 392.4 46.9 393.6 46.7 393.7 44.3 391.2 41.3 401 33.4 401.5 32 399.6 30.2 401.1 29.3 401.4 25.9 403.8 26.1 405 24.7 407.7 25.7 417.9 18.4 423.4 18.9 424 18 426.1 20.1 427 18.5 430.6 18.2 430.7 16 438.3 16.4 442 15.4 445.7 19.2 447.8 28.1 449.8 29.1 447.6 29.8 440.5 28.2 438.6 30.3 441.6 34.1 442.5 38.8 444 38.7 445.1 36.1 448.3 39.5 449.6 39.4 449.4 37.8 452.2 37.8 453.2 39.1 454.5 37.4 455.6 39.8 457.2 39.5 461 36.7 465.9 38.7 469.3 38.1 483.2 31.4 483.5 28 489 27.3 488.5 25.9 490.9 27.3 493 26.1 494.4 26.9 495.7 24.6 498 25.5 497.5 27.2 499.4 31.6 503 29.7 506.3 30.5 507.4 32.2 515.9 33.6 517.2 31.8 518.7 33.4 520.4 31.9 525.5 32.2 526 31.3 528.2 32.2 528.6 30.4 526.6 28.3 527.9 27.5 527 26 530.5 24.4 532.6 25.5 538 25.4 540.7 21.8 545.2 22.6 545.6 18.2 552.8 20.8 556.9 20 561.3 21.1 563.7 28.6ZM429.4 211.5L429.9 210.1 431.3 210.9 429.5 211.5ZM218.1 322.1L218.7 321.9 218.8 322.2 218.3 322.5 217.3 322.1 217.5 321.7 217.9 321.7ZM227.7 227.9L228.3 228 227.8 228.8 227.2 228.5 227.1 228ZM330.3 229.2L331.3 228.9 331.7 229.5 331 229.9 330.4 229.8 330.1 229.4ZM449.3 93.1L449.4 92.5 448.7 92.4 448.4 92.6 448.5 92.9ZM411.2 42.9L411.4 42.5 411.7 42.6 412 43.2 411.5 43.1ZM419.6 37.5L420.3 37.3 420.3 37.9 420.8 37.7 420.5 38.2 420.1 37.8 419.6 37.9ZM424.8 35.4L424.8 34.8 424.4 35.3Z" /></clipPath></defs><rect width="800" height="600" fill="#F9F6F0" /><g opacity="0.32" filter="url(#blur)"><circle cx="330.0" cy="150.0" r="140" fill="#E3EFE0" /><circle cx="400.0" cy="190.0" r="170" fill="#FAF2D8" /><circle cx="470.0" cy="230.0" r="130" fill="#F7DEC0" /></g><g filter="url(#shadow)"><g clip-path="url(#state-clip)"><rect width="800" height="600" fill="#F9F6F0" /><g opacity="0.75" filter="url(#blur)"><circle cx="330.0" cy="150.0" r="140" fill="#E3EFE0" /><circle cx="400.0" cy="190.0" r="170" fill="#FAF2D8" /><circle cx="470.0" cy="230.0" r="130" fill="#F7DEC0" /></g></g><path d="M563.9 28.8L570.5 28 571 26.8 575.8 25.3 584.7 30.3 587.4 28 591.1 29.4 594.9 28.2 598.1 24.9 603.4 23.4 606.8 24.4 613.4 30.1 615.8 34.4 614.5 37 615.5 38.7 617.5 39 618.3 37.1 621.8 37.7 626.5 41.6 630.3 41.2 631.4 42.4 627.3 47.6 618.5 50.6 617.4 53.8 618.2 54.2 617 55.2 617.9 57.9 616.3 60.6 618.5 65.1 623.1 65.1 624.3 71 623.7 74.9 625.8 79.4 620.4 82.4 620.9 85.6 625.4 84.1 628.3 84.8 627.4 94.3 626.1 96.8 628.1 100.4 623.6 101.8 621.6 104.3 619.4 103.6 614.6 105.6 616 107.9 614.1 110.3 614.8 111.4 621 111.5 623.7 113.1 624 116 622.4 123.7 620 124.2 617.8 122.6 615.4 123.7 615.6 125.6 620.1 125.9 621 127.7 618.8 130.3 615.1 131 614.8 132.1 618.7 132.3 620.1 133.6 618.8 131.3 619.5 130.3 623.3 130.8 623.8 134 630.8 137.8 630.4 143.1 634.9 143.4 636.9 146 640.5 145.7 641.3 148 644 148.5 644.2 150.8 642.7 152.9 638.1 153.7 639.4 156.5 641.5 157.7 635.8 162.1 631.9 162.3 631.3 159.7 627.3 160.9 625 155.4 621.8 158.7 619.6 159.2 617.5 163.6 614.4 164.8 614.4 168.1 610.8 170.6 610.6 175.1 608.7 176.3 609 177.9 607.2 179.8 607.2 183.2 612 189.5 605.7 193.2 607.2 195.6 603.5 196.7 602.7 198.1 600.8 196.9 598.1 198.1 592.2 192.8 588.9 192.6 586.4 190.5 586 189.5 588.8 187.1 587.4 176.8 583.6 176.9 582.7 172.9 587.9 169.2 586.6 165.9 589.1 161.3 589.8 155.6 587.8 151.5 583.1 149 578 143.8 575.9 143.2 573.9 144.7 569.1 145.3 567.2 149.2 563.2 146.6 562.6 148.5 559.8 149.7 553.6 145.2 550.5 145.7 550.1 144 546.3 142.8 546.1 147.6 544 150 545.1 151.5 543.2 152.1 537.7 147.8 531.8 147.3 530.8 146.1 528.4 146.6 530.3 144.8 529.3 140.4 523.2 140.3 522.5 134.2 516.5 132.9 515.3 133.9 512.2 131.9 505.4 130.5 501.8 132.4 500.7 130.9 497.8 130.9 495.6 129.2 495.3 127.2 492.4 126.9 492.4 125.2 490.9 125.2 489.7 129.1 492.7 129.7 494.3 133.4 493.1 137.1 489.1 138.3 488.3 139.9 490.8 143.3 490.7 145.6 489 146 490.8 152.3 483.2 154.9 482.9 158.6 484.2 160.6 483.5 164.6 481.7 165.7 479.7 164.5 475.2 164.8 475.3 163.2 469.4 159 464.7 161.3 464.8 162.5 467.3 163.4 465.4 163.9 463.8 168 463.8 174.1 461.6 173 461 176.2 458.9 175.5 459.2 180.5 462.2 180.5 461.9 182.4 464.4 182.3 463.5 184.6 465.9 184.9 469.7 189.4 463.3 190.8 460.2 198 458.2 196.9 456.8 198.9 458 203.6 457.3 205.5 452.7 206.9 451.9 205.6 448.9 205.9 448.3 208.6 449.3 210.2 447.7 209.6 446.1 210.7 448.1 212.1 444.9 212.2 446.5 213.6 444.5 218 447.4 220.2 446.2 221.1 443.9 220.1 443.9 221.7 440.9 222.8 439.4 220 435.2 220.2 438.1 215.1 435.7 214.7 435.3 211.8 432.9 213.5 432.3 212.2 427.9 214 428.2 216.5 425.4 219.7 426.2 221.8 424 221.5 422.6 225.6 419.4 226.8 420.2 229.2 417.4 229.5 415.6 227.6 415 229 413.7 228.9 413.1 227.2 410.8 227.3 408.9 231 411.6 232.6 410.4 233.5 410.8 236 408.5 236.3 408 237.8 408.8 243.4 406.8 244.6 404.1 244.3 402.2 246.1 398.2 244.3 398.1 246.8 401.2 248.7 399.6 250.9 396.7 251.4 397.5 253.9 395.8 254.6 395.3 257.3 393.8 256.9 390.9 252 388.9 255.8 388.3 252.6 385.4 252.6 385.5 255.2 383.3 255.3 383.3 258.6 379.9 259.4 379.3 261.8 374.1 262.2 374.6 265.5 376.2 266.8 374.9 268.4 376.7 268.6 374 269.7 374.2 271.9 376.4 271.7 376 275.2 378.7 275.6 377.1 278.9 375.4 279 374.9 276.6 370.8 277.8 368.9 275.1 364.5 276.7 364.9 279.8 364.1 277.1 361.5 275.6 359.1 277.9 358.2 276.6 355.3 276.6 350.6 278.5 348 276.5 347.5 272.8 346.3 274.7 343.9 272.6 342.9 275.8 339 272.8 336.2 273.3 335.2 270.5 332.8 269.3 331.6 274.4 329.3 274.9 329.7 276.8 331.4 277.1 331 279.5 334.2 282 334.5 284.9 332.3 287.4 333.8 290.7 335.1 290.7 335.3 293.7 333.2 295.3 334.9 295.3 335 299.8 333.5 300.3 331.4 299.2 331.2 297.3 328.9 297 328.9 299.6 324.2 300.8 322.8 298.2 320.6 299.5 318.5 298.7 311.9 300.1 312 304.6 308 306.9 306.1 306.8 306.5 304.9 303.4 305 302.3 302.7 301 302.7 300.6 300.4 296.8 301.8 294.9 300.4 293.2 300.6 293.2 301.9 291.3 300.8 290.7 301.7 293.2 302.9 293 304.6 289.5 305.7 290.6 311 286.4 311 277 314.4 276.9 316.7 274.8 318.9 276.8 320.8 274 320.6 273.8 322.2 269.8 323.9 268.4 319.1 265.1 319.4 263.9 317.4 263.8 320.8 259.6 322.2 258.6 325.4 257.2 323.6 254.8 323.9 254.3 326.9 254 325.4 251.8 324.7 252.6 326.8 250.8 327.3 251.6 328.3 253.4 326.8 253.3 329.3 255.8 329.8 256 333 257.7 332.7 257.1 335 256 333.4 254.9 334.2 254.9 337.4 256.4 339.1 255.4 340.6 256.9 340.4 256.6 339.3 260.7 340 260.9 341.4 264.6 341.9 266.2 344.7 264.5 348 264.8 351.3 261.5 350.1 257.5 353.5 258.7 354.6 261.8 353.2 263.6 354.4 259 362.3 260.2 365.3 258.8 365 258 362.9 256.2 365.3 258.8 365.6 257.4 370 255.3 370.1 253.2 372 250.5 371.9 250 369.3 248.5 369.6 248.1 371 243.4 373.2 243.6 375.6 241.4 376.1 242.9 377.6 237.4 380 234.3 378.6 232.7 372.2 228.8 371.4 228.1 368.6 225.9 371.9 223.4 372.9 215.8 372 215.8 368.8 213.9 365.2 211.7 362 207.2 360.2 205.7 354.7 204 353.3 203 345.4 195.5 325 197.4 323 195.8 321.1 198 320.1 196.1 318.9 196.5 316 195 311.4 195.9 309.7 194.1 306.8 194.9 304 193.5 303.9 194.7 298.6 192.8 298.1 193.8 296.9 192.1 295.9 194.1 293.1 192 286.4 190.7 285.8 191.5 284.4 188.3 279.8 192.3 280.6 190.9 280.5 189.2 274.6 186.9 273.7 188.8 271.6 187.3 267 185.1 264.7 186 262.1 183.8 257.3 185 255.6 184.5 253 178.8 241.8 179.4 239.7 177.3 237.2 178.3 236.8 176.4 235.1 175.7 226.7 173 225.4 173.2 221.8 175.5 222.6 176.2 221.7 174.3 218.6 172.1 217.7 172.6 215.7 170.7 210.4 172.4 206 168.7 200.9 169.1 190.6 172 191.1 173.6 189.5 176.6 192.4 175.8 190.8 177 190.5 175.5 188.7 176 187.2 173.6 188.6 171.3 186.3 174.4 181.8 173.9 180 170.3 180.4 169.8 177.9 167.8 183.3 165.4 185.2 166.6 182.9 164.7 182.2 167.4 176.1 166.2 176.8 167 174.3 166.2 171.7 164.5 171.4 164.9 167.7 163.7 165.8 164.3 161.1 167 159.8 165 160 161.9 156.8 162.8 156.1 162.2 150.3 160.5 149.6 159.9 147.2 159.8 143.8 160.8 143.3 159.2 140.1 159.7 137.6 157.6 136.5 158.3 132.6 155.8 129.3 156.1 128.1 158 128 157.1 124 160.5 120.7 159.7 116 161.5 112.1 164.8 112.8 164.5 111.3 166.6 111.7 166.1 109.2 168.8 107.8 168.7 106.8 174.8 107.7 175.6 109.5 174.7 112.4 175.7 113.4 176.9 111.6 177.7 112.1 177.1 113.5 179.4 116.2 180.8 114.2 183.6 115.9 185.1 115 187.6 117.3 189.9 112 191.8 112.9 194.6 107.8 201.6 108.4 201.8 100.5 201 97.3 199.7 98.1 199.5 96.8 201.8 95.7 206.2 88.3 205.1 88 205 85.5 202.5 84.9 200.3 82.2 203.3 79.8 203.6 77.6 205.1 77.5 205.9 81.3 208.5 80.3 212.5 82.4 214.1 85.5 216.6 86.8 221.7 86.3 222.9 84.6 225.8 83.9 226.6 81.1 225 79.2 227.6 79.1 228.8 76.9 232.8 76.2 231.8 67.5 229.5 64.9 230.3 62 225.2 59.6 224.1 58.3 224.8 55.9 222.2 56.8 218.6 54.1 217.8 55 213.6 53.9 213.5 52.5 211.2 52 211.2 51 212.5 50.2 215.1 52.7 216.8 51.8 220.4 52.5 220.2 51.2 222.7 51.2 223.4 50.1 225.3 50.7 225.7 45.2 229 45.2 232.8 43.2 233 37 238.8 36.1 240 32.9 242.1 34.5 243.5 33.4 248.5 33.6 248.8 32.4 251.2 33.3 255.1 31.5 255.8 28.8 253.6 27.3 251.7 29 249.7 28.2 247.7 29.5 245.5 27.3 244.4 28.4 236.5 28.3 234.6 28.8 234.8 30.1 233.8 28.9 233.2 30.6 230.5 29.9 227.5 31.5 225.2 25.6 223.2 23.8 229.5 22.3 229.8 20 225.8 16 226.2 13.5 224.1 12.2 225 11.3 228.7 11.1 243.7 4.8 247.6 6.2 252.8 5.7 254.4 3.4 261.7 0 262.9 1.6 262.2 3.2 265.1 4.4 267.1 7 265.6 14.3 266.6 15.7 266.1 18 268.5 18.4 268.9 20.6 270.5 20.5 270.6 21.6 282.5 24.8 289.5 23.7 298.5 27.6 302.8 34.4 308.4 36.8 312.7 36.5 314 38 316.6 37.3 317.9 38.5 323 37.8 327.7 38.9 331 37.8 334.9 38.8 348 37.6 352.3 37.9 357.4 40.3 360.2 39 364.9 50.1 361.2 51.8 364.6 54.8 364.3 56.2 369.9 55.6 371 56.8 376.6 56.7 381.4 54.5 383.6 49.5 391.3 50 392.4 46.9 393.6 46.7 393.7 44.3 391.2 41.3 401 33.4 401.5 32 399.6 30.2 401.1 29.3 401.4 25.9 403.8 26.1 405 24.7 407.7 25.7 417.9 18.4 423.4 18.9 424 18 426.1 20.1 427 18.5 430.6 18.2 430.7 16 438.3 16.4 442 15.4 445.7 19.2 447.8 28.1 449.8 29.1 447.6 29.8 440.5 28.2 438.6 30.3 441.6 34.1 442.5 38.8 444 38.7 445.1 36.1 448.3 39.5 449.6 39.4 449.4 37.8 452.2 37.8 453.2 39.1 454.5 37.4 455.6 39.8 457.2 39.5 461 36.7 465.9 38.7 469.3 38.1 483.2 31.4 483.5 28 489 27.3 488.5 25.9 490.9 27.3 493 26.1 494.4 26.9 495.7 24.6 498 25.5 497.5 27.2 499.4 31.6 503 29.7 506.3 30.5 507.4 32.2 515.9 33.6 517.2 31.8 518.7 33.4 520.4 31.9 525.5 32.2 526 31.3 528.2 32.2 528.6 30.4 526.6 28.3 527.9 27.5 527 26 530.5 24.4 532.6 25.5 538 25.4 540.7 21.8 545.2 22.6 545.6 18.2 552.8 20.8 556.9 20 561.3 21.1 563.7 28.6ZM429.4 211.5L429.9 210.1 431.3 210.9 429.5 211.5ZM218.1 322.1L218.7 321.9 218.8 322.2 218.3 322.5 217.3 322.1 217.5 321.7 217.9 321.7ZM227.7 227.9L228.3 228 227.8 228.8 227.2 228.5 227.1 228ZM330.3 229.2L331.3 228.9 331.7 229.5 331 229.9 330.4 229.8 330.1 229.4ZM449.3 93.1L449.4 92.5 448.7 92.4 448.4 92.6 448.5 92.9ZM411.2 42.9L411.4 42.5 411.7 42.6 412 43.2 411.5 43.1ZM419.6 37.5L420.3 37.3 420.3 37.9 420.8 37.7 420.5 38.2 420.1 37.8 419.6 37.9ZM424.8 35.4L424.8 34.8 424.4 35.3Z" fill="none" stroke="#1B432E" stroke-width="2.5" stroke-linejoin="round" stroke-linecap="round" /><path d="M275.8 123.2L276.2 124.6 274.4 125.5 275 129.9 271.8 129.1 271.2 133.4 273.8 132.3 277.3 134.6 278.4 133.1 278.8 134.6 279.7 134 282.6 135.8 286.4 141 293.1 141 298.8 143.4 306.8 144.1 310.5 148.3 311.1 146.4 311.5 148.8 313.8 149.9 314.8 149.2 315.1 150.7 316.4 149.6 316.5 150.7 314.4 151.7 314.7 153.3 315.8 152.7 316.4 153.7 315.2 155.2 323.9 154.3 323.8 156.5 326.8 156.9 325.9 159.7 327.3 159.9 326 162.8 319.2 167.2 322 169.8 321.9 170.9 320.4 171 320.9 172.3 323.9 171.7 323.5 173.4 316.9 174.2 319.4 170.9 316.1 171.7 315.4 170 315 171.6 316.9 174.4 311.9 174.2 312.1 177.2 315.6 177.8 314.4 180.3 311.2 179.4 310.8 175.1 308.7 175.4 308.3 172.6 306.4 173.8 306.3 176.2 307.7 177.5 306.1 178.6 305.2 177.1 299.5 176 301.5 171.7 297.5 173.3 291.9 171.4 290.2 177 292.3 177.3 292.5 180.9 290.2 181.7 289.4 180.4 284 180.6 287.1 185.3 288.5 184.3 289.1 188.3 290.5 187.9 290.6 189.3 295.8 190.8 296.1 192.5 304.7 200.3 305.5 194.8 311.7 195.2 314.6 191 317.8 192.9 318.8 189.3 321.3 191.2 322 194 325.3 195.6 326.4 193.9 329.8 197.1 327.5 198.1 327.3 200.6 322.6 202.6 319.8 207 315.6 205.2 314.8 207.4 310.7 208.3 307.9 205.6 307.2 207 303.2 207.3 300 213.4 296.2 212.6 295.6 214.4 290.3 216 286.5 218.9 283.4 217.6 283.1 214.6 279.3 214.5 279.2 209.9 277.7 208.4 275.2 209.4 276.1 210.9 274.7 211.7 269 209.1 270.3 206 268.2 204 268.6 202.1 264 200.4 266.3 198.8 264.4 197.9 264.4 195.8 259.7 194.5 259.7 189.4 254.3 187.8 253.7 185 246.4 177.4 248.7 171.6 250 172 251.8 168.6 254.9 167 251.6 165.9 248.9 167.2 246.1 166 245.5 167.2 245.1 165.9 238.1 164 236.2 158.2 231.8 159.2 229.4 157.1 227.5 158.2 224.8 156 222.6 156.4 220.2 153.8 218 153.6 217.5 151.7 218.8 149.8 214 147.1 213.5 144.9 222.9 142.1 224.1 138.5 228.2 135 230.2 135 230.7 138.9 232.1 139.6 237.4 139.4 243.2 141.2 246 136.1 250.7 135.2 252.4 133.3 254.9 134 255.5 132.2 258 131.6 257.6 127.7 250.8 123.9 250.8 122.3 252.8 122.6 253 120.9 254.1 122.1 256.7 121 257.6 122.2 264.6 120.4 264.5 122.2 267.1 121.5 275.8 123.2ZM331.2 156.6L337.6 158.3 339.8 158.1 340.1 156.2 342 155.6 344.7 157.3 349.3 156 348.9 160.4 350.6 161.9 355.7 159.3 356.8 162.5 359.5 162.7 360.5 161 366 162.3 367.8 164.9 371.3 163.5 374.6 164.3 376 165.4 375.8 170 373.5 172.9 375.1 173.3 376.7 171.5 378.8 173.8 380.2 173.7 381.2 176.2 380.4 176.7 382.8 179.2 382.7 182 385.6 184.1 386.2 182.3 389 182.6 388.9 186.8 391.2 187.1 394.2 190.3 394.1 193.2 397.2 194 397.9 197 394.8 197.5 393.6 199.5 394.6 200.9 392.1 200 391.6 198.4 389.7 198.6 388.7 201.8 385.8 200 384 202.7 382 200.8 377.7 203.1 377.6 206.3 374.9 204.9 371.7 204.3 370.7 205.4 365 203.8 363.9 205.6 362.4 203.6 357.4 204.4 354.9 202.5 354.2 203.9 354.1 201.9 351.4 202.6 350.8 200.5 342.5 198.6 342.2 199.7 334.9 197.5 334.8 199.8 333.2 199.9 328 196.5 327.3 194.3 326.4 193.9 325.3 195.6 322 194 321.3 191.2 318.8 189.3 317.8 192.9 314.6 191 311.7 195.2 305.5 194.8 304.7 200.3 303.7 199.7 296.1 192.5 295.8 190.8 290.6 189.3 290.5 187.9 289.1 188.3 288.5 184.3 287.1 185.3 284 180.6 289.4 180.4 290.2 181.7 292.5 180.9 292.3 177.3 290.2 177 291.9 171.4 297.5 173.3 301.5 171.7 299.5 176 305.2 177.1 306.1 178.6 307.7 177.5 306.3 176.2 306.4 173.8 308.3 172.6 308.7 175.4 310.8 175.1 311.2 179.4 314 180.4 315.6 179.6 315.6 177.8 312.1 177.2 311.9 174.2 316.9 174.4 314.9 170.2 316.1 171.7 319.4 170.9 316.9 174.2 317.9 174.6 322.4 174.2 324 172.9 323.9 171.7 320.9 172.3 320.4 171 321.9 170.9 322 169.8 319.1 167.6 327.2 161 327.3 159.9 325.9 159.7 326.8 156.9 323.8 156.5 324.5 154.1 327.7 156.3 331.2 156.6ZM586.2 29.9L586.8 31.6 584 35.7 579 38.8 581.2 43 581.1 45.4 583 46.5 587.5 45.9 595.1 49.4 595.8 54 594.7 54.9 596.1 56.5 595.1 59.2 596.8 59.1 597 61.4 594.7 63.9 593.3 63 593.5 64.7 591.8 64.7 593 63.4 588.3 64.4 589.2 64.5 589.6 70.4 589.9 69.2 591 69.8 587.6 72.7 588 74 589.9 74.4 588.4 74.8 589.4 76 587.8 77.6 589.3 77.8 589 79 587 80.6 584.3 79.3 581.4 79.7 576.8 76.6 576.3 79.4 572.9 80.3 572.8 82.1 567.9 78.9 562.6 77.8 565 72.4 563.8 69.7 566.2 70.2 568.2 68.9 568.1 66.6 570.1 65.5 570.8 63.3 567.2 56.6 563 56.2 563 53.9 561.1 52.8 561.4 50.1 565 51.4 564.4 48.7 566 44.6 564.8 41.5 558.4 34 562.4 29.3 570.5 28 571 26.8 575.3 25.3 584.6 30.3 586.2 29.9ZM587 80.6L586.7 87.4 588.3 88.9 587.6 94.1 589.4 99.4 587.7 103.1 590.6 107.1 587.3 108.6 585.9 111.5 589 112.9 590.4 117.3 586.4 121.9 583.8 121.2 582.2 118.3 578 120.2 577.5 122.2 579.5 126.3 575.7 130.6 578.3 136.6 579.7 144.9 575.9 143.2 573.9 144.7 569.1 145.3 567.2 149.2 564.6 148.2 563.9 146.4 562.6 148.5 559.8 149.7 553.6 145.2 550.5 145.7 550.1 144 546.3 142.8 546.1 147.6 544 150 545.1 151.5 543.2 152.1 537.7 147.8 531.8 147.3 530.8 146.1 528.4 146.6 530.3 144.8 529.3 140.4 523.2 140.3 522.5 134.2 524.8 133.9 526 135.6 528.8 134.9 529.1 132 536.2 130.9 540.7 126.2 537.3 125 538.3 119.6 535.9 115.9 530 112.3 530.8 111.2 529.2 109.9 529.7 107.8 527.2 105.1 520.9 105 520 102.4 521.9 100.9 521.1 97 523.2 95.5 522.6 94.4 529.1 94.7 530 92.9 531.9 93.4 533.3 91.5 539.8 93.1 544.6 87.7 545 85.6 550.9 85.6 552.5 80.1 557.6 80.9 562.6 77.8 567.9 78.9 572.8 82.1 572.9 80.3 576.3 79.4 576.8 76.6 581.4 79.7 584.3 79.3 587 80.6ZM307.5 36.5L303.5 38.3 304.1 40.3 302.5 40.8 304.4 41.7 301.6 46.8 296.1 49.9 292.1 47.6 293.2 49.4 289 52.2 287.6 55 286.9 57.2 290 59.1 291.2 62.8 290 63.1 290.1 65.2 293 66.7 294.4 71.5 292.9 72.6 294.8 75.4 291.2 81.3 288.9 82.1 284.8 82.9 283.5 82.4 283.6 81 274.6 79 275.5 74.3 270 70.9 267.9 70.7 266.4 72.3 264.5 70.8 262.2 72.9 259.7 71.2 259.7 69.4 255.9 70.6 243.8 69 238.8 70.7 237.7 69.7 232 70.3 231.3 66.4 229.5 64.9 230.8 63 227.4 61.1 227.6 59 233.1 59.1 233.6 54.9 237.3 52.6 241.9 54.4 239.5 51 243.3 48.3 244.8 48.7 245.6 47.5 246.9 48.5 250.7 46.3 257.3 47.2 257.2 46 260.5 45.2 261.9 46.9 265.1 46.6 265.8 44 264.2 42.9 266.2 37.9 265.5 35.8 276.7 37.1 277.6 33.1 280.7 32.7 281.6 24.5 289.5 23.7 298.5 27.6 301.7 33.6 307.5 36.5ZM579.5 144.9L578.3 136.6 575.7 130.6 579.5 126.3 577.5 122.2 578 120.2 582.2 118.3 583.8 121.2 586.4 121.9 590.4 117.3 589 112.9 585.9 111.5 587.3 108.6 590.6 107.1 587.7 103.1 589.4 99.4 587.6 94.1 588.3 88.9 586.7 87.4 587.2 79.9 589 79 592.1 80.5 594.7 78 605.4 81.4 609.4 77 610.7 71.6 613.6 72.4 621.9 70.7 624.3 71.4 623.7 74.9 625.8 79.7 621.1 81.8 620.3 83.9 621.9 85.8 625.4 84.1 628.3 84.8 627.4 94.3 626.1 96.8 628.1 100.4 623.6 101.8 621.6 104.3 618.7 103.8 614.6 105.6 616 107.9 614.1 110.3 614.8 111.4 621 111.5 623.7 113.1 624 116 622.4 123.7 620 124.2 617.8 122.6 615.4 123.7 615.6 125.6 620.1 125.9 621 127.7 618.8 130.3 615.1 131 614.8 132.1 618.7 132.3 620.1 133.6 618.8 131.3 619.5 130.3 623.3 130.8 623.8 134 630.8 137.8 630.4 143.1 633.6 142.8 636.9 146 640.4 145.7 641.3 148 644 148.5 642.8 152.9 638.1 153.7 639.4 156.5 641.5 157.7 636 162 633.1 162.6 631.9 162.3 631.3 159.7 627.3 160.9 625.1 155.4 619.7 159.2 617.6 163.5 613.9 165.5 614.4 168.1 610.8 170.6 610.6 175.1 607.2 179.6 607.1 182.8 611.7 188.2 611.9 190.1 605.7 193.2 607.2 195.6 606 196.6 603.5 196.7 602.7 198.1 600.8 196.9 598.1 198.1 592.2 192.8 588.9 192.6 586 189.5 588.8 187.1 587.5 177.3 586.4 176.3 583.6 176.9 582.7 172.9 587.9 169.3 586.6 165.8 589.1 161.3 589.9 156.2 587.8 151.5 583.1 149 579.5 144.9ZM630.1 41.2L631.3 43.3 629.1 46.2 618.5 50.6 617.4 53.8 618.2 54.2 617 55.2 617.9 57.9 616.3 60.6 618.5 65.1 623.1 65.1 624.3 71.4 621.9 70.7 613.6 72.4 610.7 71.6 609.4 77 605.4 81.4 594.7 78 592.1 80.5 589 79 589.3 77.8 587.8 77.6 589.4 76 588.4 74.8 589.9 74.4 588 74 587.6 72.7 591 69.8 589.9 69.2 589.6 70.4 589.2 64.5 588.3 64.4 593 63.4 591.8 64.7 593.5 64.7 593.3 63 594.7 63.9 597 61.1 596.8 59.1 595.1 59.2 596.1 56.5 594.7 54.9 595.8 54 595.1 49.4 587.5 45.9 581.8 45.9 583 45.7 581.1 45.4 581.2 43 579 38.8 584 35.7 586.8 31.6 586.9 28.3 589.4 28 591.1 29.4 595.3 28 598.1 24.9 600.2 25.1 602.4 23.4 606.1 24 613.4 30.1 615.8 34.4 614.5 37 615.5 38.7 617.5 39 618.3 37.1 619.6 37.2 623 38.3 626.5 41.6 630.1 41.2ZM430.4 125.2L432.1 125.1 431.1 126.9 435.1 128.4 434.9 129.8 433.7 129.9 434.3 130.8 436.5 130.6 436 132.7 437.5 133.5 436.3 133.9 436.1 136.1 437.9 135.1 440 137.1 442 143.8 440.3 145.4 442.4 152.1 440.2 153.2 440.1 156.4 438.3 156.7 436.4 159.1 432.1 158.2 432 159.7 430.2 160.6 427.9 160.1 427.5 163 422.7 166.1 418.3 164.1 414.3 164.2 414.9 162.4 413.3 163 412.6 160.4 409.1 161.6 407.2 161 408.6 159.2 407.2 158.7 407.2 156.8 409.2 153.4 405.6 153.3 407 151.9 405.1 150.2 405.2 147.6 406.7 147.7 407.3 144.8 409.3 143.1 408 141.1 405.8 142.3 404.8 137.6 402.9 137.4 403.2 139.5 401.3 139.6 401.2 136.5 399.8 136.7 399.5 138.7 396.9 133.8 395.3 134.6 392.4 133.5 391.9 131.7 390 133.4 389.5 130.1 384.8 130.5 385.7 128.9 390.6 129.7 391.9 127.8 394.8 129.1 395.5 127.5 398.3 127.6 400.2 123.9 403 124.3 404.1 122.2 407.4 123.1 413.4 119.1 417.3 120.5 419.6 124.1 425.5 120.6 425.7 123.3 427.7 124 427.6 126.6 430.4 125.2ZM331.7 37.9L332.2 38.8 352.3 37.9 357.4 40.3 360.2 39 364.9 50.1 364.6 51.1 361.3 51 362.6 53.9 364.6 54.8 364.3 56.2 377.2 56.1 378 58.8 377 62.3 374.9 63.7 371.2 63.5 364.2 58.9 363.9 60.6 359.2 65.2 361.1 67.6 357.8 71.2 357.5 73.3 353.6 75.1 355.4 76.9 354.1 78.7 355 82.5 353.7 83.7 351.8 83.4 352.9 85.8 351.5 86.4 350.5 85.4 350.4 87.7 347.5 86.9 347.8 85.1 346.4 83.3 344.8 83.8 344.3 86.3 345.4 86.6 344.5 87.2 341.8 86.9 342.2 85.7 340.1 86.2 340.2 84 336.7 83.8 336.9 81.1 334.8 80.6 334.3 83.2 331.1 83.3 331.6 84.4 330.4 84.6 327 84.2 326.6 87.2 324.5 89.1 322.3 87.5 322.2 89.7 321.7 88.3 320.3 88.7 320.7 89.8 318.7 89.3 318.3 85.9 316.9 86.1 316.5 84.8 314.2 85.1 312.5 86.6 310.5 86.1 308.7 90.8 304.8 91.9 305.6 93.9 301.6 95.7 302.6 98.6 301.9 101.7 299.7 100.1 298.6 100.4 298.6 102 295.3 100.2 295.6 102.7 293.3 101.9 292.6 104 287.2 103.7 285.6 95.3 283.1 91.8 281.7 92.1 282.4 90.1 281.1 88.7 283.2 88.2 284.2 82.7 291.2 81.3 292.9 77.5 294.7 76.4 292.9 72.6 294.4 71.5 293 66.7 290.1 65.2 290 63.1 291.2 62.8 290.5 60.3 286.9 57.2 289 52.2 293.2 49.4 292.1 47.6 296.1 49.9 301.6 46.8 304.4 41.7 302.5 40.5 304.1 40.3 303.5 38.3 304.9 37 312.7 36.5 314 38 316.6 37.3 317.9 38.5 323 37.8 327.1 38.9 331.7 37.9ZM277 314.4L276.9 316.7 274.8 318.9 276.6 320.9 273.9 320.6 273.8 322.2 269.8 323.9 268.4 319.1 265.1 319.4 263.9 317.4 263.8 320.8 259.6 322.2 258.6 325.4 257.2 323.6 254.8 323.9 254.3 326.9 252.2 324.3 252.6 326.9 250.8 327.3 251.6 328.3 253.4 326.8 253.3 329.3 255.8 329.8 256 333 257.7 332.7 257.1 335 256 333.4 254.9 334.2 254.9 337.4 256.4 339.1 255.4 340.6 256.9 340.4 256.6 339.3 260.7 340 260.9 341.4 264.6 341.9 266.2 344.7 264.5 348 264.8 351.3 261.5 350.1 257.5 353.5 258.7 354.6 261.6 353.2 263.6 354.2 259 362.3 260.2 365.3 258.8 365 258 362.9 256.2 365.3 258.8 365.6 257.5 367.5 257.9 369.4 254.4 371.6 250.5 371.9 250 369.3 246.4 370.1 245.3 369.3 244.7 366.6 240.5 366.5 238.2 368.4 238 366.5 241.4 364.5 241 360.7 238.9 359.2 241.5 355.8 239.7 353.7 238.8 354.9 236.2 354.3 235.9 351.2 228.1 350.4 226.9 351.1 227.4 352.2 226.3 351.1 227.4 348 230.6 348.7 233.6 344.4 231.7 344.8 233 342.6 230.6 342.8 231.3 342.2 229.3 340.5 230.4 337.3 226.7 338 228 334.5 226.3 333 229.5 329.3 225.3 324.6 228 320.6 227.9 316.4 225 314.8 226.6 313 225.1 311.2 222 311.2 222 309.2 219.1 307.7 220.7 306.7 222.3 307.7 220.6 302.6 223.6 303.1 224 301.7 222.1 299.8 223.5 298 226.2 298.2 226.3 294.1 217.7 288.3 220.9 287.1 222.7 288.7 222.9 286.8 227.5 288.7 230.8 292.9 234.9 295.5 234.7 298.2 237.5 298.4 237.5 300.9 240 303.2 243.3 302.7 244.8 304.5 249.5 302.7 250.1 304.3 252.7 302.4 257.5 306.2 259.8 304.5 260.8 304.8 260.7 306.8 264.1 305.3 265.5 307.5 267 306.3 269.3 309 273.5 310.2 274.4 312.2 277.5 313.1 277 314.4ZM433.8 212.6L432.4 213.4 432.5 211.3 433.8 212.6ZM397.2 194L397.9 197 394.8 197.5 393.6 199.5 394.6 200.9 392.1 200 392 198.5 389.7 198.6 388.7 201.8 386.5 199.9 384 202.7 382 200.8 378.8 202.4 377.7 203.1 377.6 206.3 370.9 204.4 369.4 207.5 370.3 213.4 367.8 212.7 366.5 215 369.7 216.9 371.5 215.4 371.3 218.3 373.2 218.9 373.1 221.7 371.3 223.7 372.3 224.7 371 231.8 373.8 232.7 374.6 234.8 376.9 233.1 378 234.5 377.2 235.7 379.3 236.3 383.4 237 384 235.3 384.7 237 388.5 237.1 390.6 236.1 390.2 238 394.6 238.6 394.3 243.2 397.3 243.2 402.2 246.1 404.1 244.4 408.8 243.4 408 237.8 408.5 236.3 410.8 236 410.4 233.5 411.6 232.6 408.9 231.4 410.8 227.3 413.1 227.2 413.7 228.9 415 229 415.6 227.6 417.4 229.5 420.2 229.2 419.4 226.8 422.6 225.6 424 221.5 426.2 221.8 425.5 219.3 428.2 216.5 427.5 214.9 429 214 428.7 211.5 429.9 210.1 428.1 209.1 431 205.9 429.1 204.9 429.5 202.2 422.7 200.1 423 198 425 197.7 424.5 196.9 422 196.2 421.8 197.2 416.3 197.9 416.9 192.8 414.1 193.1 413.1 189.4 405.7 189.3 404.9 190.7 401.2 191.1 397.2 194ZM169.8 177.9L165.7 185.6 166.5 182.5 164.7 182.2 166.2 177.9 169.1 176.1 169.8 177.9ZM562.1 25.7L564.1 27.4 563.9 28.8 560.6 31.2 558.4 35.2 560.3 35.6 566 44.6 564.4 48.7 565 51.4 561.4 50.1 561.1 52.8 563 53.9 563 56.2 567.2 56.6 570.7 64.1 568.1 66.6 568.2 68.9 566.2 70.2 563.8 69.7 565 72.4 562.4 78.1 557.6 80.9 552.5 80.1 550.9 85.6 545 85.6 543 84.5 540.4 79.9 538.2 79.4 537.9 77.8 528.4 74.6 528.7 73.1 526.8 72.2 526.8 70.6 524.3 71 522.9 67.6 519.2 67.4 516.1 64 515.8 60.9 508.7 56.8 508.2 54.5 505.7 54.1 500.9 48 492.4 46.2 491.2 43.7 487.5 41.3 494.7 37.5 496.8 38.4 499.2 37.1 498.2 31.5 503 29.7 506.3 30.5 507.4 32.2 515.9 33.6 517.2 31.8 518.7 33.4 520.4 31.9 525.5 32.2 526 31.3 528.2 32.2 528.6 30.4 526.6 28.3 527.9 27.5 527 26 530.5 24.4 532.6 25.5 538 25.4 540.7 21.8 545.2 22.6 545.6 18.2 552.8 20.8 556.9 20 561.3 21.1 562.1 25.7ZM446.2 221.1L443.9 220.1 443.9 221.7 440.9 222.8 439.4 220 435.2 220.2 438.1 215.1 435.7 214.7 435.3 211.8 434 212.7 432.9 211.3 429.3 213.4 428.7 211.5 431.4 210.6 428.1 209.1 431 205.9 429.1 204.9 429.5 202.2 422.7 200.1 423 198 425 197.7 424.5 196.9 422 196.2 421.8 197.2 416.3 197.9 416.9 192.8 414.1 193.1 413.1 189.6 414.8 188.5 414.5 186.4 410.8 186.7 409.5 185.1 410.8 183.2 412.1 184.4 412.9 183 415.3 182.8 417 179.9 416.2 177.4 417.4 177.4 418.6 172.8 419.8 173.3 419.2 175.3 422.8 174.3 425 170.9 424.2 165.7 427.5 163 427.9 160.1 430.2 160.6 432 159.7 432.1 158.2 436.4 159.1 438.3 156.7 440.1 156.4 439.4 155.2 440.2 153.2 442.4 152.1 442.5 149.9 441.4 150.2 440.3 145.4 442 143.8 441 143.1 440.8 138.9 449.5 140.9 450.7 143.4 451.7 143.3 452 146.2 450.9 146.5 455.4 148.4 457.7 148.1 457.4 150.6 455.7 151 454.8 153.2 458 153.8 461.3 151.8 462.8 153.3 463.4 149 464.4 148.3 465.7 149.5 467.2 147.6 469.2 149.8 471.1 149.2 472.4 152.4 473.7 152.3 474.2 150.3 476.8 152.1 480.7 148.6 480 146.7 483.9 146.2 484.4 142.8 483.4 140.8 480.5 139.9 477.9 141.6 475.7 138.5 472.2 139.4 469.6 136.1 464.5 135.2 463.9 131.8 466.6 127.5 469.9 125.5 476 124.6 479.1 126.6 481.2 125.4 484.8 126.1 487.6 124.6 487.7 128 490.9 125.2 489.7 129.1 492.7 129.7 494.3 133 493.1 137.1 489.1 138.3 488.3 139.9 490.8 143.3 490.7 145.6 489 146 490.8 152.3 483.2 154.9 482.9 158.6 484.2 160.6 483.5 164.6 481.7 165.7 479.7 164.5 475.2 164.8 475.3 163.2 469.4 159 464.7 161.3 464.8 162.5 467.3 163.4 465.4 163.9 463.8 168 463.8 174.1 461.6 173 461 176.2 458.9 175.5 459.2 180.5 462.2 180.5 461.9 182.4 464.4 182.3 463.5 184.6 465.9 184.9 469.7 189.4 463.3 190.8 460.2 198 458.2 196.9 456.8 198.9 458 203.6 457.3 205.5 452.7 206.9 451.9 205.6 448.9 205.9 448.3 208.6 449.3 210.2 447.7 209.6 446.1 210.7 448.1 212.1 444.9 212.2 446.5 213.6 444.5 218 447.4 219.6 446.2 221.1ZM284.2 82.7L283.2 88.2 281.2 88.3 282.5 90.7 281.7 92.1 283.1 91.8 285.6 95.3 285.1 96.5 287.3 100.3 286.5 103.2 291.5 104.1 289.7 105.6 289.9 107.1 291.1 107.2 291.1 111 289.1 109.4 286.7 109.5 286.8 106.5 284.6 105.3 282.4 106.2 283.5 106.3 281.1 109.2 278.8 108.6 277.8 113.3 279.4 113.3 279.7 115.3 278.1 115.4 278.6 119 276.9 119.5 275.8 123.2 267.1 121.5 264.5 122.2 264.6 120.4 257.6 122.2 256.7 121 254.1 122.1 253 120.9 252.8 122.6 250.8 122.3 250.8 123.9 257.6 127.7 258 131.6 255.5 132.2 254.9 134 252.4 133.3 250.7 135.2 246 136.1 243.2 141.2 237.4 139.4 232.1 139.6 230.7 138.9 230.2 135 228.2 135 224.1 138.5 222.9 142.1 219.6 142.6 218.2 144.3 213.6 144.6 210.3 142.7 208.3 138 205.7 136.3 206.5 134.2 203.5 133.7 201.6 128.4 202.8 127.6 202 125 204 122.5 203.7 121 195.3 116.1 192.4 116.4 193 113.8 191.7 112.8 193.5 111.2 193.8 108.3 201.9 107.9 201.8 100.5 200.9 97.3 199.6 98 199.5 96.8 201.8 95.7 206.2 88.3 205.1 88 205 85.5 202.5 84.9 200.3 82.2 203.3 79.8 203.6 77.6 205.1 77.5 205.9 81.3 207.8 80.1 212.5 82.4 215.6 86.7 221.7 86.3 222.9 84.6 226.5 83.4 226.6 81.1 225 79.2 227.6 79.1 228.8 76.9 232.8 76.2 232.1 72.2 234.2 69.6 238.8 70.7 243.8 69 251.3 69.3 255.9 70.6 259.7 69.4 259.7 71.2 262.2 72.9 264.5 70.8 266.4 72.3 267.9 70.7 270 70.9 275.5 74.3 274.6 79 283.6 81 284.2 82.7ZM281.6 24.5L280.7 32.7 277.6 33.1 276.7 37.1 265.5 35.8 266.2 37.9 264.2 42.9 265.8 44 265.1 46.6 261.9 46.9 260.5 45.2 257.2 46 257.3 47.2 250.7 46.3 246.9 48.5 245.6 47.5 244.8 48.7 243.3 48.3 239.5 51 241.9 54.4 237.3 52.6 233.6 54.9 233.1 59.1 227.6 59 227.4 61.1 224.1 58.3 224.8 55.9 222.2 56.8 218.6 54.1 215.6 54.6 213.6 53.9 212.4 51.7 211.2 52 212.5 50.2 215.1 52.7 216.8 51.8 220.4 52.5 220.2 51.2 222.7 51.2 223.4 50.1 225.3 50.7 225.7 45.2 229 45.2 232.8 43.2 233 37 238.8 36.1 240 32.9 242.1 34.5 243.5 33.4 248.5 33.6 248.8 32.4 251.2 33.3 255.1 31.5 255.7 28.3 253.6 27.3 251.7 29 249.7 28.2 247.7 29.5 246.6 27.3 244.4 28.4 236.5 28.3 234.6 28.8 235.1 30 233.8 28.9 233.2 30.6 230.5 29.9 227.5 31.5 225.2 25.6 223.2 23.8 229.5 22.3 229.9 20.9 229.1 18.6 225.8 16 226.2 13.5 224.1 12.2 225 11.3 228.7 11.1 243.7 4.8 247.6 6.2 252.8 5.7 254.4 3.4 261.7 0 262.9 1.6 262.2 3.2 265.1 4.4 267.1 7 265.6 14.3 266.6 15.7 266.1 18 268.5 18.4 268.9 20.6 270.5 20.5 270.6 21.6 281.6 24.5ZM174.8 107.7L174.9 112.6 175.7 113.4 176.9 111.6 177.7 112.1 177.1 113.5 179.4 116.2 180.8 114.2 183.6 115.9 185.1 115 188.3 117.2 190.4 111.8 190.3 112.8 193 113.8 193.1 117 195.3 116.1 203.7 121 204 122.5 202 125 202.8 127.6 201.7 127.9 201.9 129.9 203.1 130.3 203.6 133.9 206.8 135 201.5 138 196.6 138.1 195.9 139.3 194.1 138.2 192.8 140.7 193.8 142.1 188.5 143.9 189.5 146 184.9 149.6 180.3 150.9 177.2 149.5 176.6 151.6 178 152.9 174 156.8 174.4 161.5 173 162.3 168.7 160 165.2 160.1 162.1 157.3 162.2 150.3 160.5 149.6 159.9 147.2 159.8 143.8 160.8 143.3 159.2 140.1 159.7 137.6 157.6 136.5 158.3 132.6 155.8 129.3 156.1 128.1 158 128 157.1 124 160.5 120.7 159.7 116 161.5 112.1 164.8 112.8 164.5 111.3 166.6 111.7 166.1 109.2 169.3 106.6 174.8 107.7ZM285.5 218.6L286.1 220.6 283.7 220.5 283.2 221.5 285.4 223.7 292.3 222.6 294.8 224.2 297.9 222.9 295.8 226 296.4 227 301.4 225.3 300.8 231.3 304.9 231.6 302.9 234 300.9 234.3 296.5 240.3 298.3 241.3 302.2 238.3 302.9 241.1 299.5 243.3 298 242.9 298.5 244 296.9 244.6 291.5 241.8 286.2 241.6 287.2 238.8 278 236.6 275.5 234.3 274.1 235.8 270.6 235.7 269.2 234.2 263.4 235.7 257.2 232.7 253.8 234.4 243.1 230.5 237.8 230.6 236.5 228.9 235.1 229.4 232.9 227.8 230.4 229 229.9 227.6 228.7 228.1 230.3 230.8 227.9 231.3 229.1 233.3 227.8 236.6 225.1 236.1 223.9 237.2 218.6 235.8 216.2 236.9 213.3 234.9 212.2 232 216.2 228.6 211.4 227.9 210.1 226 207.8 227.3 209.2 223.7 206.9 223.4 207.5 222.3 206.5 221.7 205.4 222.3 205.2 220.7 201.9 220 203.1 217.2 201.9 214.5 200.6 214.6 201.2 208.8 198.4 210.5 200.1 208.8 197.3 206.9 197.6 205.6 196.1 205.5 196.8 202.3 199.9 199.6 199.8 197.4 196.5 196.9 198 195.7 200.1 187.9 200.8 188.6 202.1 187.5 202.5 184.2 204.3 183.5 204.2 181.5 205.4 180.4 207.2 181.2 209.8 178.7 208.9 176.4 207.5 176.5 208.3 174.2 207.3 173.6 208 171.6 209 172 209.3 168.2 212.9 168 213 166.8 217.6 164.9 216.5 162 217.6 160.6 223.9 159.5 223 156.3 224.8 156 227.5 158.2 229.4 157.1 231.8 159.2 236.2 158.2 237.6 160.7 236.8 161.8 239.1 164.8 245.1 165.9 245.5 167.2 246.1 166 248.9 167.2 251.6 165.9 254.9 167 251.8 168.6 250 172 248.7 171.6 246.4 177.4 253.7 185 254.3 187.8 259.7 189.4 259.7 194.5 264.4 195.8 264.4 197.9 266.3 198.8 264 200.4 268.6 202.1 268.2 204 270.3 206 269 209.1 274.7 211.7 276.1 210.9 275.2 209.4 277.7 208.4 279.2 209.9 279.3 214.5 283.1 214.6 283.4 217.6 285.5 218.6ZM208 171.6L207.5 176.5 208.9 176.4 209.8 178.7 207.2 181.2 204.6 181.1 204.3 183.5 202.5 184.2 202.7 186.6 200.8 188.6 200.1 187.9 198 195.7 196.5 196.9 199.8 197.4 199.9 199.6 196.8 202.3 196.1 205.5 197.6 205.6 197.3 206.9 200.1 208.8 198.4 210.5 201.2 208.8 200.4 213.4 203.1 217.2 202.3 220.7 205.2 220.7 205.4 222.3 206.5 221.7 207.5 222.3 206.9 223.4 209.2 223.7 207.8 227.3 210.1 226 211.4 227.9 216.4 228.9 212.2 232 213.3 234.9 216 236.5 214.1 239.1 214.8 240.1 208.5 244.3 210.8 245.6 203.3 247.2 202.2 243.8 201 245.3 198.9 245 199.1 242.8 197.2 240 198 237.5 194.8 237 194 234.2 187.3 234.9 183.8 239.6 178.3 239.1 175.3 230.5 176.3 229.1 175.7 226.7 173 225.4 173.2 221.8 175.5 222.6 176.2 221.7 171.8 216.8 172.6 215.7 170.7 210.4 172.4 206 168.7 200.9 168.2 197.1 169.3 190.4 172 191.1 173.6 189.5 176.8 192 175.5 188.7 176.2 187.4 173.2 188.5 171.2 186 171.4 184.9 173.3 184.6 173.9 180 179.6 178.8 179.8 173.3 185.3 171.8 187.8 173 188.5 171.7 192.2 175.6 193.4 174.2 195.9 174.5 195.2 172.9 197.6 171.6 208 171.6ZM218.1 322.1L218.7 321.9 218.8 322.2 218.3 322.5 217.3 322.1 217.5 321.7 217.9 321.7 218.1 322.1ZM179.2 239.4L178.8 241.8 184.5 253 185 255.7 183.7 256.7 186 262.1 185.1 264.8 188.4 269.7 187.9 271.3 188.8 271.6 186.9 273.7 189.2 274.6 190.9 280.5 192.3 280.6 188.3 279.8 191.5 284.4 190.7 285.8 192 286.4 194.1 293.1 192.1 295.9 193.8 296.9 192.8 298.1 194.7 298.6 193.5 303.9 194.9 304 194.1 306.8 195.9 309.7 195 311.4 196.5 316 196.1 318.9 198 320.1 196 320.8 196 322.2 198 323.2 198.2 325.7 204.6 327.5 206.5 325.9 209 326.3 212.5 324.5 213.8 322.2 215.2 323.5 217.9 319.8 219 321 222.4 321 221.6 318.7 222.7 317.4 226.2 318.3 228.1 317.2 225 314.8 226.6 313.1 225.4 311.4 222 311.2 222 309.2 219.1 307.7 220.7 306.7 222.3 307.7 220.6 302.6 223.6 303.1 224 301.7 222.1 299.8 223.5 298 226.2 298.2 226.3 294.1 224.5 293.8 224.8 292.4 221.4 289.9 217.8 289.2 219.3 285.5 217.1 280.1 216.9 277 217.9 276.3 214.9 274.4 218.7 272.5 218 268.7 221.2 264.8 219.3 263.6 219.6 260.8 217.8 260.2 218.3 258.1 215.6 255.6 212.1 256 210.5 254.7 211.4 250.9 212.6 250.5 211.2 245.7 209.5 246.4 208.5 245.3 207.2 247.1 204.3 246.3 203.3 247.2 202.2 243.8 201 245.3 198.9 245 199.1 242.8 197.2 240 198 237.5 194.8 237 194 234.2 187.3 234.9 183.8 239.6 179.2 239.4ZM331 279.5L334.2 282 334.5 284.9 332.3 287.4 333.8 290.7 335.1 290.7 335.3 293.7 333.2 295.3 334.9 295.3 335 299.8 333.5 300.3 331.4 299.2 331.2 297.3 328.9 297 328.9 299.6 324.2 300.8 322.8 298.2 320.6 299.5 318.5 298.7 311.9 300.1 312 304.6 308 306.9 306.1 306.8 306.5 304.9 303.4 305 302.3 302.7 301 302.7 300.6 300.4 296.8 301.8 294.9 300.4 293.2 300.6 293.2 301.9 291.3 300.8 290.7 301.7 293.2 302.9 293 304.6 289.5 305.7 290.6 311 281.9 312.2 278.2 314.4 274.4 312.2 273.5 310.2 269.3 309 267.8 306.6 265.5 307.5 264.1 305.3 260.7 306.8 260.8 304.8 259.8 304.5 257.5 306.2 252.7 302.4 250.1 304.3 249.5 302.7 244.8 304.5 243.3 302.7 240 303.2 237.5 300.9 237.5 298.4 234.7 298.2 234.9 295.5 230.8 292.9 227.5 288.7 222.9 286.8 222.7 288.7 220.9 287.1 218 286.9 219.3 285.5 218.1 282.1 221.1 281.1 221.9 282.5 226.4 284.2 229.3 288.4 234.9 289.7 238 292.2 244.6 290.5 246.7 288.7 250.8 289.2 249.9 288.3 250.8 286.7 252.6 287 253.1 285.8 251.9 284.4 253.2 282.9 251.3 280.2 253.5 279 253.2 276.5 251.2 276.1 253 272.7 265.6 274.9 267.4 272.8 270.7 273.1 271.4 271 273 273.9 276.7 274.2 276.7 268.7 283.9 270.8 287.1 267.3 286.8 264.4 289.8 260.3 290.3 263.2 293.1 262.6 294.4 265.3 291.6 267.4 293.7 270 297.2 268.2 297.8 269.7 297.4 272.8 295.3 273.4 295.8 275.8 293.3 277.5 293 280.1 290 281.2 288.4 284.6 286.9 284.8 290.5 287.7 292.4 287.3 292.2 285.6 299.6 284.4 300.5 282.7 305.8 283.3 307.4 281.6 309.9 282.4 308.5 286.7 311.1 286.7 311.3 288.8 312.8 288.9 312.3 284.8 316.9 283.6 317.2 286.3 319.4 286.6 320.2 281.9 325.8 283.3 331 279.5ZM227.7 227.9L228.3 228 227.8 228.8 227.2 228.5 227.1 228 227.7 227.9ZM216 236.7L214.1 239.1 214.8 240.1 208.5 244.3 212.3 247.3 212.6 250.5 211.4 250.9 210.5 254.7 217.3 256.7 218.5 258.6 217.8 260.2 219.3 260.6 220.1 262.7 219.3 263.6 221.2 264.6 218 268.7 218.7 272.5 214.9 274.4 217.9 276.3 216.9 277 217.7 281.7 221.1 281.1 221.9 282.5 226.4 284.2 229.3 288.4 234.9 289.7 238 292.2 244.6 290.5 246.7 288.7 250.8 289.2 249.9 288.3 250.8 286.7 252.6 287 253 285.4 251.9 284.4 253.2 282.9 251.3 280.2 253.5 279 253.2 276.6 251.2 276.1 253.5 272.4 265.6 274.9 267.4 272.8 270.7 273.1 271.4 271 273 273.9 275.8 274.5 277.1 273.8 276.7 268.7 283.9 270.8 287.1 267.3 286.8 264.4 289.8 260.3 287.3 256.5 287.5 254.3 285.8 254.5 282.2 251.6 279.8 252.2 280.6 251 280.9 251.8 280.4 250.7 277.5 250.8 275.5 246.4 274.2 248.4 272.4 248.3 272.2 246.8 274.8 243.2 275.3 238.2 278.2 236.7 275.5 234.3 274.1 235.8 270.6 235.7 269.2 234.2 263.4 235.7 257.2 232.7 253.8 234.4 243.1 230.5 237.8 230.6 236.5 228.9 235.1 229.4 232.9 227.8 230.4 229 229.9 227.6 228.6 228.6 230.3 230.8 227.9 231.3 229.1 233.3 227.8 236.6 225.1 236.1 223.9 237.2 218.6 235.8 216 236.7ZM227.2 318.2L228 320.6 225.3 324.6 229.5 329.3 226.3 333 228 334.5 226.7 338 230.4 337.3 229.3 340.5 231.3 342.2 230.6 342.8 233 342.6 231.7 344.8 233.6 344.7 230.6 348.7 227.4 348 226.3 351.1 227.4 352.2 226.9 351.1 228.1 350.4 235.9 351.2 236.2 354.3 238.8 354.9 239.7 353.7 241.5 356.2 238.9 359.2 240.5 359.7 241.7 363.2 238 366.5 238.2 368.4 242.2 366.1 242.7 367.2 245.5 367.2 245.3 369.3 246.4 370.1 248.5 369.6 248.1 371 243.4 373.2 243.6 375.6 241.4 376.1 242.9 377.6 237.4 380 234.3 378.6 232.5 371.9 228.8 371.4 228.1 368.6 225.9 371.9 223.4 372.9 217.1 372.9 215.6 371.8 215.8 368.8 213.9 365.2 211.7 362 207.2 360.2 205.7 354.7 204 353.3 203 345.4 195.5 325 197.4 323 198.2 325.7 204.6 327.5 206.5 325.9 209 326.3 212.5 324.5 213.8 322.2 215.2 323.5 217.9 319.8 219 321 222.4 321 221.6 318.7 222.7 317.4 227.2 318.2ZM331 279.5L325.8 283.3 320.2 281.9 319.4 286.6 317.2 286.3 316.9 283.6 312.3 284.8 312.8 288.9 311.3 288.8 311.1 286.7 308.5 286.7 309.9 282.4 307.4 281.6 305.8 283.3 300.5 282.7 299.6 284.4 292.2 285.6 291.8 287.5 288.7 286.8 286.9 284.8 288.4 284.6 290 281.2 293 280.1 293.3 277.5 295.8 275.8 295.3 273.4 297.4 272.8 297.6 268.8 293.7 270 291.6 267.4 294.4 265.3 293.1 262.6 290.3 263.2 290.5 261 287.3 256.5 287.5 254.3 285.8 254.5 282.2 251.6 279.8 252.2 280.6 251 280.9 251.8 280.4 250.7 277.5 250.8 275.5 246.4 274.2 248.4 272.1 247.6 274.9 242.8 275.3 238.2 278.2 236.7 281.6 237 283.6 238.6 284.5 237.5 287.2 238.8 286.2 241.6 291.5 241.8 296.9 244.6 298.5 244 298 242.9 299.5 243.3 302.9 241.1 302.2 238.3 298.3 241.3 296.5 240.5 300.9 234.3 304.9 232 300.8 231.3 301.4 225.3 296.4 227 295.8 226 297.9 222.9 294.8 224.2 292.3 222.6 286.1 223.9 283.2 221.5 283.7 220.5 286.1 220.6 285.5 218.6 295.6 214.4 296.2 212.6 300 213.4 303.2 207.3 307.2 207 307.9 205.6 310.7 208.3 313.8 207.6 312.2 214.4 319 218.9 318.6 222.8 320.6 223.1 320.7 228.1 322.7 229 324 228.1 326.3 230.4 328.9 224.5 330.1 223.3 332.5 224 331.6 222.3 333.6 218.9 337.8 218.4 338.2 215.5 337.1 215 338.1 212.8 340.4 211.8 342.5 215.9 348.3 217.2 351.1 224 350 227 351.9 228.8 351.3 232.2 351.8 233.3 353.7 233.2 353.5 235.2 355.6 235.9 353.3 240 350 239.9 349.2 238.4 345.8 237.8 344.8 241.5 345.9 246.1 349.2 248.3 351 247.1 352.5 249.2 353.3 247.6 355.4 248.5 354.6 253.2 360.2 251.5 364.8 254.4 363 255.3 363.3 256.2 367.6 256.9 370.3 254.4 371.9 254.4 373.2 256.2 376.9 256.9 377.2 258.5 379.8 259.4 379.3 261.8 374 262.3 374.6 265.5 376.2 266.8 374.9 268.4 376.7 268.6 374 269.7 374.2 271.9 376.4 271.7 376 275.2 378.7 275.6 377.1 278.9 375.4 279 374.9 276.6 370.8 277.8 368.8 275.1 364.5 276.7 364.9 279.8 364.1 277.1 361.5 275.6 359.1 277.9 358.2 276.6 355.3 276.6 350.6 278.5 348 276.5 347.5 272.8 346.3 274.7 343.9 272.6 342.9 275.8 339 272.8 336.2 273.3 335.2 270.5 332.8 269.3 331.6 274.4 329.3 274.9 329.7 276.8 331.4 277.1 331 279.5ZM174.4 180L170.3 180.4 169.9 176.5 166.2 176.8 167 174.3 166.2 171.7 164.5 171.4 164.2 163.6 166.6 164.7 168.6 163.3 171.4 164.7 173.1 167.9 175.4 169.3 175.6 176.7 174.4 180ZM205.7 136.3L208.3 138 210.3 142.7 213.3 144 214 147.1 218.8 149.8 217.5 152.9 223 156.3 223.9 159.5 216.8 161.1 218 164.4 214.3 167.1 213 166.8 212.9 168 209.3 168.2 209 172 198.2 171.5 195.2 172.9 195.9 174.5 193.4 174.2 192.2 175.6 188.5 171.7 187.8 173 185.3 171.8 184.6 172.8 181.6 172.5 179.8 173.3 179.6 178.8 174.4 180 175.8 170 171.4 164.7 168.6 163.3 166.6 164.7 164.2 163.6 164.3 161.1 167 159.8 169.4 160.2 171.2 162.1 174.4 161.5 174 156.8 178 152.9 176.6 151.6 177.2 149.5 180.3 150.9 184.9 149.6 189.5 146 188.5 143.9 193.8 142.1 192.8 140.7 194.1 138.2 195.9 139.3 196.6 138.1 198.7 138.6 205.7 136.3ZM370.7 205.4L369.4 207.5 370.3 213.4 367.8 212.7 366.5 215 369.7 216.9 371.5 215.4 371.3 218.3 373.2 218.9 373.1 221.7 371.3 223.7 372.3 224.7 371 231.8 373.8 232.7 374.6 234.8 377 233.2 378 234.5 377.2 235.7 379.7 236.4 383.4 237 384 235.3 384.7 237 390.6 236.1 390.2 238 394.6 238.6 394.3 243.2 398.1 243.7 398.1 246.8 401.2 248.7 399.6 250.9 396.7 251.4 397.5 253.9 395.8 254.6 395.3 257.3 393.8 256.9 390.8 252 388.9 255.8 388.3 252.6 385.4 252.6 385.5 255.2 383.3 255.3 383.4 258.5 380.8 259.6 377.2 258.5 376.9 256.9 373.2 256.2 371.9 254.4 370.3 254.4 367.6 256.9 363.3 256.2 363 255.3 364.8 254.4 360.2 251.5 354.6 253.2 355.4 248.5 353.3 247.6 352.5 249.2 351 247.1 349.2 248.3 345.9 246.1 344.8 241.5 345.8 237.8 349.2 238.4 350 239.9 353.3 240 355.6 235.9 353.5 235.2 353.7 233.2 351.8 233.3 351.3 232.2 351.9 228.8 350 227 351.1 224 348.3 217.2 342.5 215.9 340.4 211.8 338.1 212.8 337.1 215 338.2 215.5 337.8 218.4 333.6 218.9 331.6 222.3 332.5 224 330.1 223.3 328.9 224.5 326.7 230.5 324.2 229.4 324 228.1 322.7 229 320.7 228.1 320.6 223.1 318.6 222.8 319 218.9 312.2 214.4 312.8 209 315.6 205.2 319.8 207 322.6 202.6 327.3 200.6 327.5 198.1 329.8 197.1 333.6 200.1 334.8 199.8 334.9 197.5 336.8 197.6 342.2 199.7 342.5 198.6 350.8 200.5 351.4 202.6 354.1 201.9 354.2 203.9 354.9 202.5 357.4 204.4 362.4 203.6 363.9 205.6 364.4 203.8 370.7 205.4ZM331.3 228.9L330.1 229.4 331 229.9 331.3 228.9ZM449.7 77.6L451.1 77.9 451.2 81.1 452.6 81.9 450.8 86.6 452.1 86.7 451.6 88.6 454.5 88.5 452.3 90.6 451.6 93.5 448.9 93.6 448.9 95.7 447.4 97.1 447.2 100.6 448.8 103.5 453 105.5 451.7 109 453.8 110.2 454 111.8 450.9 117.4 448 118.4 444.7 114.3 441.1 116 435.2 114.3 434.4 115.9 435.7 117.3 433.6 121.6 431.6 122.1 430.4 125.3 427.6 126.6 427.7 124 425.7 123.3 425.5 120.6 419.6 124.1 417.3 120.5 413.4 119.1 407.4 123.1 404.1 122.2 403 124.3 400.2 123.9 398.3 127.6 395.5 127.5 394.8 129.1 392.7 128 393.2 126 390.6 126.4 390.4 124.5 391.6 124.5 393.5 121.4 392.6 121 393.7 117.3 391.4 117.1 391.7 115.7 392.8 116 394 112.6 399.3 112.2 398.6 107.9 402.4 107.1 404 102.6 406.5 103.5 408.2 101.6 407.2 101.1 408 99.7 409.8 98.2 412.3 98.2 414.9 93.5 417 93.6 416.3 97.2 417.3 97.5 418.4 97.2 418.3 95 422 97.6 424.9 96.3 424.6 93.6 426.9 93.6 427.2 92.1 429.4 93 430.7 95.3 433.9 92.2 433 90.6 435.5 91.6 436.5 90.6 437 89 433.5 89 433.7 86.1 441.2 84 439.1 80.9 442.3 81.2 442.1 79.7 443.8 80.8 445.7 80 444.8 78.6 447.5 78.4 447.8 77.1 449.7 77.6ZM450.3 75.3L449.8 76.9 451 76.4 450.3 75.3ZM487.5 41.3L491.2 43.7 492.4 46.2 500.9 48 505.7 54.1 508.2 54.5 508.7 56.8 515.8 60.9 516.1 64 519.2 67.4 522.9 67.6 524.3 71 526.8 70.6 526.8 72.2 528.7 73.1 528.4 74.6 537.9 77.8 538.2 79.4 540.4 79.9 543 84.5 545 85.6 541.3 91.7 538.9 93.4 533.3 91.5 531.9 93.4 530 92.9 529.1 94.7 522.6 94.4 523.2 95.5 521.1 97 521.9 100.9 520 102.4 516.4 102.7 514.5 101.6 514.7 99.4 511.1 94.4 506.1 94.1 502.8 89.1 497 89.8 489.3 87 487.5 81.9 489.3 78.7 490.4 78.7 491.2 76.4 490.1 72.8 491.5 71.6 487.9 67.6 483.5 66.6 481.2 63.8 481.7 56.5 480.4 54.1 481.3 52.8 478.2 50.3 475.9 45.7 477.5 44.3 477.8 39.7 481.8 41.3 487.5 41.3ZM449.3 92.6L449.3 93.1 448.5 92.9 448.4 92.6 448.7 92.4 449.3 92.6ZM452.1 86.7L451.6 88.6 454.4 89.1 452.3 90.6 451.6 93.5 448.9 93.6 447.2 100.6 449.7 104.5 453 105.5 451.7 109 453.8 110.2 453.2 114.1 450.9 117.4 448 118.4 444.7 114.3 441.1 116 435.2 114.3 434.4 115.9 435.7 117.3 433.6 121.6 430.4 123.8 430.3 125.5 432.1 125.1 431.1 126.9 435 128.3 434.9 129.8 433.7 129.9 434.3 130.8 436.5 130.6 436 132.7 437.5 133.4 436.3 133.9 436.1 136.1 437.9 135.1 440.8 138.9 449.5 140.9 450.7 143.4 451.7 143.3 452 146.2 450.9 146.5 455.4 148.4 457.7 148.1 457.4 150.6 455.7 151 454.8 153.2 458 153.8 461.3 151.8 462.8 153.3 463.4 149 464.4 148.3 465.7 149.5 467.2 147.6 469.2 149.8 471.1 149.2 472.4 152.4 473.7 152.3 474.2 150.3 476.8 152.1 480.7 148.6 480 146.7 483.9 146.2 484.4 142.8 483.3 140.8 480.5 139.9 477.9 141.6 475.6 138.4 472.2 139.4 469.6 136.1 466.3 136.3 464.4 135.1 463.8 132 465.3 129.2 469.9 125.5 476 124.6 479.1 126.6 481.2 125.4 484.8 126.1 487.6 124.6 487.7 128 489.5 125.7 492.1 125 492.2 126.8 495.3 127.2 496.4 129.9 500.7 130.9 501.8 132.4 503.2 130.8 508.5 130.8 515.3 133.9 516.5 132.9 520.3 134.5 524.7 133.9 526 135.6 528.9 134.9 528.2 133.2 530 131.5 536.2 130.9 540.7 126.3 537.3 125 538.3 119.6 535.9 115.9 530 112.3 530.8 111.2 529.2 109.9 529.7 107.8 527.2 105.1 521.1 105.3 520.1 102.4 514.6 101.7 514.7 99.4 511.1 94.4 506.1 94.1 502.8 89.1 497 89.8 489.3 87 487.5 81.9 489.1 78.9 485.3 79.1 479.3 82.2 478 80.3 474.9 80.7 474 83 468.3 87 467.9 84.2 466.5 83.1 463.3 86.7 461.6 85.5 459.8 88.3 454.5 85.9 452.1 86.7ZM450.3 75.3L449.7 77.6 447.8 77.1 447.5 78.4 444.6 78.8 445.7 80 439.1 80.9 441.2 84 433.7 86.1 433.5 89 437 89 436.5 90.6 435.5 91.6 433 90.6 433.9 92.2 430.7 95.3 429.4 93 427.2 92.1 426.9 93.6 424.6 93.6 424.9 96.3 422 97.6 418.3 95 418.4 97.2 417.3 97.5 416.3 97.2 417 93.6 414.9 93.5 412.3 98.2 409.8 98.2 408 99.7 407.2 101.1 408.2 101.6 406.1 103.8 404.9 102.3 402.5 103.7 401 103 401.3 101.5 395.9 99.3 397.4 96 395.5 92.9 396.8 89.7 398.3 90.8 400 89.5 401.1 84.9 399.5 84.4 399.3 81.3 397.8 81.3 398.2 79.4 397.2 79.3 399.6 77.5 400.2 74.3 398.5 72.6 399.7 69.4 395.4 65.8 398.5 65.2 400.8 66.4 401.1 63.2 402.3 63.5 400.3 61.2 401.7 59.8 399.6 58.7 401.1 54.8 400.4 49.9 413.5 49.4 415.6 46.3 418.4 48.1 424.9 46.6 423.1 51.1 423.3 52.9 425.2 52.7 425.2 53.8 423.8 53.9 423.9 56.7 422.5 56.7 422.5 58.9 423.8 59.5 423.5 61.6 421.5 61.6 423.1 62.6 421.3 69 436.8 70.3 442 68.1 441.9 69.1 446.2 69.5 447.3 72.3 449.7 72.8 450.3 75.3ZM411.4 42.5L411.2 42.9 412 43.2 412 42.8 411.4 42.5ZM420.3 37.3L419.6 37.9 420.5 38.2 420.3 37.3ZM424.8 35.4L424.8 34.8 424.4 35.1 424.8 35.4ZM493 26.1L495.1 26.4 494.8 24.7 498 25.5 499.2 37.1 496.8 38.4 494.7 37.5 486.4 41.6 477.8 39.7 477.5 44.3 475.9 45.7 478.2 50.3 481.3 52.8 480.4 54.1 481.7 56.5 481.2 63.8 483.5 66.6 487.9 67.6 490.1 71.1 491.2 70.8 490.1 72.8 491.2 76.4 490.4 78.7 487.9 79.7 485.3 79.1 479.3 82.2 478 80.3 474.9 80.7 474 83 468.3 87 467.9 84.2 466 83.1 463.8 86.3 461.6 85.5 459.8 88.3 454.5 85.9 450.8 86.6 452.6 82.4 451.2 81.1 451.1 77.9 449.7 77.6 451.1 75.4 449.9 75.2 449.7 72.8 446.4 71.3 446.2 69.5 441.9 69.1 442 68.1 436.8 70.3 421.3 69 423.1 62.6 421.5 61.6 423.5 61.6 423.8 59.5 422.5 58.9 422.5 56.7 423.9 56.7 423.8 53.9 425.2 53.8 425.2 52.7 423.3 52.9 423.1 51.1 424.9 46.6 418.4 48.1 415.6 46.3 413.5 49.4 401.2 50.1 398.6 47.7 397.2 44 393.7 44.3 391.2 41.3 401 33.4 401.5 32 399.6 30.2 401.1 29.3 401.4 25.9 403.8 26.1 405 24.7 407.7 25.7 417.9 18.4 423.4 18.9 424 18 426.1 20.1 427 18.5 430.6 18.2 430.7 16 442 15.4 445.7 19.3 447.7 24.2 447.8 28.1 449.8 29.1 447.6 29.8 441.2 28.2 438.8 29.1 439.8 33.1 441.6 34.1 442.5 38.8 444 38.7 445.1 36.1 448.3 39.5 449.6 39.4 449.4 37.8 452.2 37.8 453.2 39.1 454.5 37.4 455.6 39.8 457.2 39.5 461 36.7 465.9 38.7 469.3 38.1 483.2 31.4 483.5 28 489 27.3 488.5 25.9 490.9 27.3 493 26.1ZM400.7 49.8L400.9 56.7 399.6 58.7 401.7 59.8 400.3 61.2 402.3 63.5 401.1 63.2 400.8 66.4 398.5 65.2 395.4 65.8 399.7 69.4 398.5 72.6 400.2 74.3 399.6 77.5 397.2 79.3 398.2 79.4 397.8 81.3 399.3 81.3 399.5 84.4 401.1 84.9 400 89.5 398.3 90.8 396.8 89.7 395.5 92.9 397.4 96 395.9 99.3 401.3 101.5 401 103 403 103.5 403.2 105.8 400.9 108.1 398.6 107.9 399.3 112.2 394 112.6 392.8 116 391.7 115.7 391.4 117.1 393.7 117.3 392.6 121 393.5 121.4 392.1 124 390.4 124.5 390.6 126.4 393.2 126 393.1 127.6 390.6 129.7 386.9 129.4 383.6 126.4 383.7 124.8 377.7 125.7 376.1 124.3 373.1 127.4 363.2 129.3 360.5 128.4 357.3 123.3 352.2 120.4 355.8 118.7 355.6 116.6 358.6 115.8 357.9 114.2 360.1 114.4 360.9 110.5 363.3 107.9 362.3 106.9 364.3 106 365.9 102.3 363 102.2 362 99.8 359.4 98.5 356.1 103 352.5 101.4 350.3 102.2 351 98.3 352.5 98 351 95 351.9 92.6 351 90.4 352.8 88.6 355.5 88.7 357 85.8 356.4 82.4 354.1 80.7 355.4 76.9 353.6 75.1 357.5 73.3 357.8 71.2 361.1 67.6 359.2 65.2 363.9 60.6 364.2 58.9 371.2 63.5 374.9 63.7 377 62.3 377.9 59.4 377.2 56.1 381.4 54.5 383.6 49.5 391.3 50 392.4 46.9 393.6 46.7 393.7 44.3 394.9 43.9 397.7 44.4 398.6 47.7 400.7 49.8ZM424.2 165.9L425 170.9 422.8 174.3 419.2 175.3 419.8 173.3 418.6 172.8 417.4 177.4 416.2 177.4 417 179.9 415.3 182.8 412.9 183 412.1 184.4 410.8 183.2 409.5 185.1 410.8 186.7 414.5 186.4 414.8 188.5 413 189.4 407.1 188.9 404.9 190.7 398.4 192.5 397.6 194 394.7 193.9 394.2 190.3 391.2 187.1 388.9 186.8 389 182.6 386.2 182.3 385.6 184.1 382.7 182 382.8 179.2 380.4 176.7 381.2 176.2 380.2 173.7 378.8 173.8 376.7 171.5 375.1 173.3 373.5 172.9 375.8 170 375.7 165 371.3 163.5 367.8 164.9 366.7 161.2 370.7 158.9 369.7 158.2 371.2 157.6 371.5 153.6 373 151.7 374.5 152.4 376 151.4 376.7 147.5 380.6 147.2 381 144.7 380 143.6 381.1 142.9 381 140.3 383.3 139 381.6 135 384.8 133.6 383.1 131.9 384.7 132 384.8 130.5 389.5 130.1 390 133.4 391.9 131.7 392.4 133.5 395.3 134.6 396.9 133.8 399.5 138.7 400.8 136 401.3 139.6 403.2 139.5 402.9 137.4 404.5 137.5 405.8 142.3 408.5 141.4 409.2 143.9 405.1 148.3 405.7 151.5 407 151.9 405.6 153.3 409.2 153.4 407.2 156.8 407.2 158.7 408.6 159.2 407 160.4 407.7 161.6 412.6 160.4 413.3 163 414.9 162.4 414.3 164.2 424.2 165.9ZM347.5 86.9L352.8 88.6 351 90.4 351.9 92.6 351 95 352.5 98 351 98.3 350.3 102.2 352.5 101.4 356.1 103 359.4 98.5 362 99.8 363 102.2 365.9 102.3 364.3 106 362.3 106.9 363.3 107.9 360.9 110.5 360.1 114.4 357.9 114.2 358.6 115.8 355.6 116.6 355.8 118.7 352.4 119.9 352.5 120.9 357.3 123.3 359.3 125.3 359.2 127.2 362.7 129.3 374.4 127 376.1 124.3 377.7 125.7 383.7 124.8 383.6 126.4 386.1 128 384.7 132 383.1 131.9 384.6 134.2 381.6 135 383.3 139 381 140.3 381.1 142.9 380 143.6 381 144.7 380.6 147.2 376.7 147.5 376 151.4 374.5 152.4 373 151.7 371.5 153.6 371.2 157.6 369.9 157.5 370.7 158.9 367 160.4 366.7 162.9 360.5 161 359.5 162.7 356.8 162.5 355.7 159.3 350.6 161.9 348.9 160.4 349.3 156 344.7 157.3 342 155.6 340.1 156.2 339.8 158.1 337.6 158.3 331.2 156.6 331.1 152.5 332.7 151.8 334.1 145.6 333.7 144 330.7 143.7 329.9 141.5 332.5 140.2 332.2 133.6 333.4 133.1 332.8 131.2 334.4 130.2 333.5 129.4 334.2 125.3 335.6 124.6 333.8 123.1 333.4 119.7 330.8 120.1 330.1 118.7 332.9 114.7 333.5 109 335.6 108.4 336.4 103.4 335.6 102 340.9 100.2 338.9 95.3 343.8 92.2 346.3 94.1 348.2 93.7 345.4 91.2 346.2 89.1 347.6 88.8 346.2 86.9 347.5 86.9ZM352.8 88.6L350.6 88 350.5 85.4 352.3 86.4 353 85.4 351.8 83.4 353.7 83.7 354.8 81.9 356.4 82.4 356.6 87.3 355.4 87.5 355.5 88.7 352.8 88.6ZM291.5 104.1L289.7 105.6 289.9 107.1 291.1 107.2 291.1 111 289.1 109.4 286.7 109.5 286.8 106.5 284.6 105.3 282.4 106.2 283.5 106.3 281.1 109.2 278.7 108.7 277.8 113.3 279.4 113.3 279.7 115.3 278.1 115.4 278.6 119 276.9 119.5 276.2 124.6 274.6 124.8 275 129.9 271.8 129.1 271.2 133.4 273.8 132.3 277.3 134.6 278.4 133.1 278.8 134.6 279.7 134 282.6 135.8 286.4 141 293.1 141 298.8 143.4 306.8 144.1 310.5 148.3 311.1 146.4 311.5 148.8 313.8 149.9 314.8 149.2 315.1 150.7 316.4 149.6 314.4 152.4 316.4 153.7 315.2 155.1 316.9 155.8 325.2 153.7 327.7 156.3 331.2 156.6 331.1 152.5 332.7 151.8 334.1 145.6 333.7 144 330.7 143.7 329.9 141.5 332.5 140.2 332.2 133.6 333.4 133.1 332.8 131.2 334.4 130.2 333.5 129.4 334.2 125.3 335.6 124.6 333.8 123.1 333.4 119.7 330.8 120.1 330.1 118.7 332.9 114.7 333.5 109 335.6 108.4 336.4 103.4 335.6 102 340.9 100.2 338.9 95.3 343.8 92.2 346.3 94.1 348.2 93.7 345.4 91.2 346.2 89.1 347.6 88.8 346.2 87 347.2 87.4 347.8 86.2 346.6 83.4 344.8 83.8 344.3 86.3 345.2 86.8 341.8 86.9 342.2 85.7 340.1 86.2 340.2 84 336.7 83.8 336.9 81.1 334.8 80.6 334.3 83.2 331.1 83.3 331.6 84.4 330.4 84.6 327 84.2 326.6 87.2 324.5 89.1 322.3 87.5 322.2 89.7 321.7 88.3 320.3 88.7 320.7 89.8 318.7 89.3 318.3 85.9 316.9 86.1 316.5 84.8 312.5 86.6 310.6 86 308.7 90.8 304.8 91.9 305.6 93.9 301.6 95.7 302.6 98.6 301.9 101.7 299.7 100.1 298.6 100.4 298.6 102 295.3 100.2 295.6 102.7 293.3 101.9 291.5 104.1Z" fill="none" stroke="#1B432E" stroke-width="0.8" stroke-opacity="0.3" stroke-linejoin="round" stroke-linecap="round" /></g><style>
    @import url('https://fonts.googleapis.com/css2?family=Caveat:wght@600&amp;family=Noto+Serif+Devanagari:wght@600&amp;display=swap');
    .state-title {
      font-family: 'Noto Serif Devanagari', serif;
      font-size: 42px;
      font-weight: 600;
      fill: #1B432E;
      text-anchor: start;
    }
    .watermark {
      font-family: 'Caveat', cursive;
      font-size: 22px;
      font-weight: 600;
      fill: #1B432E;
      opacity: 0.7;
      text-anchor: middle;
    }
  </style><g transform="translate(460, 65)"><text class="state-title" x="0" y="0">महाराष्ट्र</text><path d="M -20,15 C 50,22 150,22 220,12" fill="none" stroke="#1B432E" stroke-width="1.5" /><polygon points="100,15 104,18 100,21 96,18" fill="#1B432E" /><path d="M 220,12 C 235,10 248,3 255,-5" fill="none" stroke="#1B432E" stroke-width="1.5" /><path d="M 235,9 C 236,3 242,3 243,8 C 242,12 236,12 235,9 Z" fill="#1B432E" /><path d="M 246,2 C 248,-3 253,-3 255,2 C 253,6 248,6 246,2 Z" fill="#1B432E" /><path d="M 255,-5 C 258,-10 263,-9 264,-4 C 261,-1 257,-1 255,-5 Z" fill="#1B432E" /></g><g transform="translate(400, 565)"><text class="watermark" x="0" y="0">krashimitra.in</text><path d="M 55,-12 C 58,-16 63,-15 64,-10 C 61,-7 57,-7 55,-12 Z" fill="#1B432E" opacity="0.7" /></g></svg>