<svg xmlns="http://www.w3.org/2000/svg" viewBox="0 0 800 600" width="100%" height="100%"><defs><filter id="shadow" x="-20%" y="-20%" width="140%" height="140%"><feDropShadow dx="4" dy="6" stdDeviation="6" flood-color="#000000" flood-opacity="0.12" /></filter><filter id="blur" x="-50%" y="-50%" width="200%" height="200%"><feGaussianBlur stdDeviation="30" /></filter><clipPath id="state-clip"><path d="M410.5 170.2L419.3 180.7 423.2 183.9 427.5 185 432.9 189.7 439.7 189.5 445.1 191.8 446.9 195.2 447.8 193 451.8 194.4 456.4 193.7 458.3 194.9 459.7 205 456.1 207.4 459.4 211 458.3 212 460.4 212.6 458.5 215 460.6 214.3 461.2 216 459.1 215.9 459 220.4 457 220.3 454.4 223.5 448.3 224 450.1 226.9 447 229.1 448.7 230.7 447.6 233.9 448.2 237 447.1 238.1 447.4 239 449.5 238.7 448.6 241.2 453 240.8 453.5 244.4 458.2 247.2 459.5 249.5 461.6 249.4 462.3 247.6 463.3 248.3 463 251.9 460.9 251.5 459.9 254.7 461 256.9 458.7 258 459.6 260.9 458.6 260.1 458.3 261.5 456.3 261.3 457.9 264.4 460.1 265.4ZM402.6 177L404 174.1 401.6 173.7 403.7 173.8 402.5 172.7 404.2 172.2 404.4 170.4 402.4 169.4 403.8 166.6 397.7 164 398.8 162.2 400 164 401.2 163.1 401.2 159.8 403.3 159.8 402.7 157.7 407.3 153.3 407.1 150 400.4 144.4 397.1 143.3 394.9 140 396 132.5 395 131 398.4 132.4 400.8 129.8 400.3 128.3 396.4 126.4 396.1 123.2 394.3 122.4 394.2 120.5 395.7 118 398.1 118.9 399.2 116.9 401 116.9 402.1 113.6 403.5 114.1 405.1 112.3 407.5 112.1 409.5 113.3 409.6 114.8 410.8 114 413.2 115.7 414.8 115.8 414.7 113.6 412.4 112.2 411.3 108.7 413 105.7 413.2 101.6 407.6 99.7 405.6 96.4 403.5 96.6 403.2 94.2 404.3 93.7 402.6 92.8 404.1 91.3 398.6 90 397.1 86.6 399.2 85.5 400.4 79 405.1 75.9 406.3 77.4 406.8 76.3 409 76.2 407.5 75.1 409.1 74.6 407.9 73.6 408.3 71.8 409.9 72.2 412.4 69.5 414.7 69.8 417.6 66.5 419.2 66.3 419.4 64.7 424 62.9 426.4 59.5 429.5 58 428.3 56.1 425.4 56.1 425.1 55.2 427.9 53.4 423.9 50.1 424.9 49.3 421.9 48.9 425.2 45.7 425 44.3 418.6 47 416.8 45.5 420.8 38.3 422.4 29.9 421.4 23.5 419 21.5 419.5 19.7 417.9 18 418.9 15.7 416 14.4 415.1 12.4 412.4 12.3 410.7 8.2 409.3 7.7 411.2 3.3 410.9 0.5 414.2 0.4 415.8 5.2 419 7.1 422.9 5.7 425.3 6.8 430.1 6.1 431.6 7.6 438.8 9.4 445.4 4.7 444.7 3.2 446.1 2.5 449.8 2.1 453.4 3.9 456 2.8 458.5 5.6 463.5 5.5 468 7.5 468.3 18.3 471.4 15.1 473.4 16.8 472.9 19.1 475.3 20.2 478 18.7 479.8 21.4 483 21.9 483.3 25.2 485.6 27.5 494.1 27.1 497.8 24.6 501.9 23.9 502.6 25.3 505.9 25.4 507.9 27.9 513.9 27.2 519.2 29.2 520.1 30.2 518.2 33.5 520.6 33.4 521.3 32.1 524.8 33.2 526.8 32.4 528 34.7 534.1 34.6 535.1 38.2 533.8 39.8 535.2 40.4 535.5 42.5 534.3 42.9 533.7 48.6 534.9 50.6 533.8 54 532 55 533.3 54.5 533.9 55.8 531.8 56 531.5 58 530.9 56.7 528.8 58 528.7 59.6 526.7 60 527.2 62.2 524.6 60.9 525.7 64 524 63.3 523.5 64.2 525.4 65.5 523.3 66.8 525.5 67.3 523.2 68.7 525.7 69.9 523.4 71.3 522 70.5 523.4 69.8 521.5 68 522.7 67.3 521.9 65.5 521.4 66.7 518.9 66.1 519.9 68.7 518.5 69.1 520.5 69.6 519.7 70.4 517.1 69.5 517.9 70.2 516 70.9 516.4 72.4 516.9 73.6 518.6 73.5 516.2 74.6 517.2 75.5 518.6 74.3 519.9 77.3 517 77.1 517.5 77.9 515.2 79.6 515 83.5 512.6 83.4 512.7 81 508.6 81.7 505.3 80.7 504.9 78.3 502.8 80.9 499.9 80.7 496.6 78 495 78.1 495.3 77 493.6 77.1 494.4 75.2 491.9 73.1 486.9 72.1 487.1 70.5 485.6 69.3 486 65.7 483.3 62.8 483.6 60.3 484.7 62.3 485.7 60.1 482.2 59.9 483.4 59 483.2 57.5 481.9 57.2 483 55.3 476.2 53.9 474.3 50.9 472.9 53 471.7 52.6 471.7 54.3 470.2 54.2 471.1 54.5 470.7 57 473.5 57 473.7 59.4 474 57.9 475.6 58.1 476.7 59.4 475.4 60.8 476.3 62 477.1 61.1 477.8 62.1 478 60.8 477.9 62.1 479.6 63.1 480.6 61.8 480 65.3 473.7 65.4 471.7 62.5 469.8 62.2 467.4 63.2 468.5 65.8 466.1 66 464.1 64.3 464.5 61.8 460.4 60.8ZM480 340.4L483.1 337.8 481.5 338.4 481.4 335 476.3 329.1 478.2 328.2 475.6 326.3 476.2 322.3 474.7 320.8 476.5 319.6 476.3 316.8 472.6 310.4 473.9 307 472.3 306.7 471.7 304.8 474.1 301.8 470.7 297.6 473.8 295 474.5 291.8 473.2 289.6 470.3 289 469.6 284.6 467.2 285 468 282.9 466.3 280.9 468.4 281.2 467.9 274.7 472 271.9 472.5 269.6 475.2 268.9 475.6 266.7 473 267.7 470.9 267.2 470.7 265.8 465 265.9 464.2 264.6 463.7 266.8 460.1 265.4ZM479.4 341.1L481.9 349.2 481.2 352.5 478.1 354.1 479.6 357.5 478.5 362.3 486.1 371.3 487 375.2 485 376.5 468 379.8 452.4 377.8 444.7 380 438.7 378.2 422.5 379.3 418.6 376.7 415.8 376.5 411.8 377 410.7 378.4 410.2 371.7 407.3 369.6 414.4 353.2 418.1 348.4 415.6 347.7 419.4 347.1 423.8 341 421.1 335.8 411.5 333.7 407 330.1 406.4 331.1 410.4 334.6 419 335.8 422.6 340.4 422.2 341.8 415.7 346.6 413.6 346.8 407.8 357.8 402.1 361.9 396.9 367.9 393.2 368.1 392.4 369.6 388.2 371.3 386.2 371.5 386.2 370.6 375.6 374 375.7 372.6 373.9 371.4 374.8 367.2 374.5 366 372.9 365.9 373 363.6 361.7 361.1 358.9 354.7 359.9 352.5 358.7 351 354.7 349.6 354 352.5 349.8 353.8 349.8 357 345.6 356.8 343.2 353.9 345.4 348.6 345 345.6 340.4 342.2 332.2 341.5 329.5 337.6 324.6 338.3 324.9 333.6 328.3 333.6 328.4 332.3 329.6 332.9 328.5 333.7 330.1 333.6 330.7 332.1 329.4 330.4 330.2 331.9 330.8 330.3 331.2 331.2 331.5 330.3 335.7 330.9 335.8 328.3 332.1 326.5 333 321.5 327.5 319.6 326.6 317.7 326.6 315.9 330 315.5 329.2 311.5 327.6 309.8 320.5 309.8 318.8 307.4 319 303.8 312.9 299.9 310.7 301.1 304.4 295.9 307.7 288 305.6 286.4 308.4 284.7 311.6 284.9 312.9 282.1 311.3 283.4 310 281.9 304.6 281.4 302.9 282.8 296 280.6 291.8 281.8 288.8 281 286.1 277.9 286.3 276.4 280.3 274.6 279.5 271.8 273.7 270.7 270.8 271.5 268.7 270.2 267.8 266.9 265.7 266.8 264.5 263.5 268.7 258.1 268.1 255.4 270.1 254.9 267.5 252.7 267.9 249.8 280.2 249 277.7 244.9 279.4 242.3 287.1 244.1 286.5 250.4 288.5 250.1 291.8 251.9 293.1 250.9 292.2 253.4 295.9 252.8 297.3 254 297 252.4 300 251.9 301.8 249.9 300.7 249.1 300.9 246.7 302.4 243.2 306.4 241.6 307.3 239.4 312.3 239.3 316.3 236.6 324.5 234.8 326.4 236.2 329.8 235.5 331.8 231.3 329.9 225.8 331.7 227.2 334.9 224.9 335.9 226.7 335.3 223.9 336.3 222.9 337.6 222.6 339.7 225 341.6 223.6 351.1 228.3 353.4 228.2 354.4 226.4 351.9 224.5 352.2 223.4 355.7 224.1 355.8 225.2 358.8 224.3 357.7 226 359.1 226.3 360.2 225.1 359.6 220.9 361.1 223 362.7 221.9 362.8 217.6 360.7 216.9 360.7 214.5 359.9 215 358.8 213.2 359.3 212 365.7 212.5 365.1 214.9 367.3 213.9 374 215.8 373.4 213.7 377.4 212.4 376.1 211.1 377.1 209.1 375.9 208.7 376.4 206.8 380.6 209.3 383.8 206 381.5 204.1 389.5 204.7 389.7 202.2 385.8 200.5 385.5 199 385.9 197.8 387.2 199 389.1 198.3 390.8 195.1 394 194.2 394.2 192.1 396.7 189.3 397.3 186.9 395.8 187 396.8 184.5 398.2 184.2 397.3 183 398.5 181.5 397.4 182 397.2 180.5 396.5 181.8 397.2 178.3 394.7 175.9 399.9 177.8 402.5 177.1ZM530.8 58.4L531.6 59.7 530.7 60 529.6 58.7 530.3 58.1ZM474.7 45L474.6 45ZM474.6 45L474.5 46.2ZM474.4 46.3L474.1 46.4 474.4 46.4ZM474.1 46.4L473.6 47.5ZM473.6 47.6L473.5 47.6ZM473.4 47.7L472.6 47.8 472.6 49 472.9 49.5ZM472.9 49.5L472.4 50.4 471.9 50.4ZM471.8 50.4L471.8 50.4ZM471.7 50.3L471.7 50 470.9 50 470.5 49.6ZM470.4 49.6L470.3 49.9 470.3 49.6ZM470.3 49.9L469.9 50.2 470.6 50.1ZM470.6 50.2L470.7 50.6ZM470.7 50.6L470.4 50.8ZM470.4 50.8L470.5 51.2 470 52.1ZM469.9 52.2L469.9 52.2ZM469.8 52.2L469.1 52.2 469.3 52.5 469.1 53 468.8 53 468.9 53.6ZM468.7 54.1L467.8 55.2 466.8 55.3ZM466.8 55.4L466.8 55.6 466.8 55.4ZM466.8 55.7L466 55.7ZM466 55.7L466 55.7ZM465.9 55.6L465.4 56.1ZM465.3 56.1L465.1 56.1ZM464.1 56.2L464.1 56.2ZM463.7 56.2L463.7 56.2ZM463.6 56.2L463.6 56.2ZM463.4 56.3L462.7 55.8 462.5 55.2ZM462.3 55.2L462 54.9ZM461.9 54.9L461.9 54.8ZM461.8 54.8L461 55.5ZM460.8 55.8L460.8 55.8ZM460.8 55.9L460.2 57ZM460.2 57L459.9 57.8ZM459.9 57.8L460.2 58.9 460.7 59.2 460.5 59.6ZM460.5 59.6L460.5 59.6ZM460.4 59.8L460.4 59.8ZM460.4 59.9L460.5 60.5ZM532.3 54L531.9 53.2 532.1 52.9ZM532.1 52.9L532.4 52.7 532 52.6ZM531.8 52.6L531.5 52.6ZM531.5 52.6L531.6 52 532 52.2 532.1 51.8ZM532.1 51.7L533.5 51.8 533.5 51 534.2 50.9 534.2 50.4 533.9 50.4ZM533.7 50.3L533.2 50 531.6 50.1ZM531.6 50.1L531.9 50.2 531.6 50.2ZM532.1 50.2L526.5 50.5 526.4 52.2 524 52.7ZM523.9 52.9L523.2 53.3 523.8 53ZM523.2 53.3L522.8 53.2 522.8 52.9 521.7 52.8ZM521.7 52.8L521.8 52.4 520.7 52.3ZM520.7 52.3L520.7 52.3ZM520.6 52.4L520.7 52.7 519.9 53.2 519.9 53.5 519.8 53.3 518.1 53.6ZM518.2 53.8L518.5 54.2 518.3 54.7 517.9 54.7 517.9 55 517.5 54.8ZM517.5 54.8L517.4 54.7ZM516.4 53.7L515.5 52.7 514.7 53ZM514.5 52.9L514.3 53.3 514.4 52.9ZM514.3 53.3L514.8 53.4 514.4 53.9ZM514.3 54L513.9 54.1 514.3 54ZM513.7 54.1L513.8 53.8 513.3 53.7ZM513.2 53.6L513.8 53.4 513.3 52.9 513.7 53 513.9 52.7 513.4 52.6 513.2 51.7 512.5 51.7ZM512.9 51.4L512.4 51.1 512.7 50.7 512.3 50.5ZM512.3 50.5L512.4 49.9 512 50ZM511.9 49.9L511.9 49.8ZM511.8 49.6L511.3 50 510.9 49.6 510.5 49.9ZM510.5 49.9L510.5 49.9ZM510.4 50L510.2 50.2 510.3 49.9 509.9 49.7 509.7 49.9ZM509.6 49.8L509.6 49.8ZM509.6 49.7L509.4 49.5 509.6 49.3ZM509.4 49.4L509.3 49.2 509.4 49.4ZM509.2 49.2L508.9 49.2ZM508.9 49.1L507.7 48.8ZM507.4 48.8L507.3 48.8ZM507 48.7L506.8 49.6 506.2 49.7 505.9 50.1 504.1 50 502.9 50.4 502.1 49.8ZM501.8 49.6L501.8 49.6ZM501.3 49.1L500.8 48.6 501.3 49.1ZM500.8 48.6L500.3 48.3 499.4 48.9 498.3 48.4 497.9 49 497 49.3ZM496.9 49.3L496.5 49 496.9 49.2ZM495.9 48.9L493.1 48.7ZM493 48.7L492.9 48.6ZM492.8 48.6L492 47.9 490.4 47.6ZM489.9 47.5L489.6 47.4ZM489.4 47.6L488.6 48 487.1 47.1ZM486.9 47.1L486.5 46.9 486.9 47.1ZM486.4 46.8L484.2 46.6ZM484.1 46.6L483.5 46.7ZM483.4 46.5L483.4 46.6ZM483.3 46.6L483.2 46.6ZM482.8 46.5L482.7 46.3ZM482.7 46.3L482.4 46.4 482.7 46.3ZM482.4 46.4L482.3 46 481.6 45.6ZM481.5 45.7L481.5 45.7ZM481 45.6L480.4 45.8 480.9 45.6ZM480.2 45.8L479.8 45.8 480 46.2 479 46.9 476.6 45.9ZM460.5 61.7L455.7 62.9 455.2 64.1 454.9 60.1 459.7 59.9 459.5 58.2 456.7 59 455.3 56.2 456.6 55.4 451.5 52.4 451.4 50 447.6 50.9 444.6 47.3 442.6 47.3 442.2 45.3 438.7 44.8 437.2 39.1 432 49.1 433.6 51.4 434.9 48.8 442.3 50.7 444.8 57.3 442.5 58.1 440 56.7 438.9 59.1 437.1 59.3 437.6 60.4 433.2 62.6 433.1 66.6 421.7 71.5 420.5 75.9 422.1 76.5 422.1 79.6 419.2 80.5 418.1 84.8 415.6 87.1 417.5 91.1 416.7 92.9 419.7 96.3 422.1 94.7 423.9 95.6 425.7 94.1 427.9 94.2 427.7 95.9 435 100.4 434.6 101.3 436.7 103.2 440.2 103.8 439.6 108.3 443.3 109.1 442.8 110.8 445.5 111.9 445.9 114.2 450.5 113.7 453.2 115 453.1 116.2 456.6 116.7 457.1 114.8 459.4 114.4 459.6 115.6 461.2 114.8 460.5 113.1 464 113.2 465.9 117.5 465.3 120.3 464.1 120.7 466 121.6 465.9 123.8 468.9 126.4 470.4 125.6 471.9 127.8 477.2 127.9 477.1 130.5 475.7 129.8 473.7 131.1 474 134.1 472.2 134.8 473.2 136.3 471.5 137.1 468.3 136.1 466.2 133.8 463.7 136.7 461.2 135.4 459.9 136.3 457.4 134.2 450.8 134.5 448 136.4 443.2 134.1 439.5 134.9 440.6 138.7 439.4 139.6 440.1 142.8 439 144.4 440.1 145.6 437.7 149.8 436.3 150.1 436.7 151.4 432.7 152 431.5 153.6 433.1 155.3 432 156.7 428.2 155 427.1 156.2 427.3 153.5 424.9 150.7 419.1 152.3 421.2 155.3 420.1 155.8 420.9 158.1 418.9 159.2 419 161.1 418.2 159.9 417.3 160.6 417 162.8 414.8 163.2 414.1 166.6 410.8 169.8Z" /></clipPath></defs><rect width="800" height="600" fill="#F9F6F0" /><g opacity="0.32" filter="url(#blur)"><circle cx="330.0" cy="150.0" r="140" fill="#E3EFE0" /><circle cx="400.0" cy="190.0" r="170" fill="#FAF2D8" /><circle cx="470.0" cy="230.0" r="130" fill="#F7DEC0" /></g><g filter="url(#shadow)"><g clip-path="url(#state-clip)"><rect width="800" height="600" fill="#F9F6F0" /><g opacity="0.75" filter="url(#blur)"><circle cx="330.0" cy="150.0" r="140" fill="#E3EFE0" /><circle cx="400.0" cy="190.0" r="170" fill="#FAF2D8" /><circle cx="470.0" cy="230.0" r="130" fill="#F7DEC0" /></g></g><path d="M410.5 170.2L419.3 180.7 423.2 183.9 427.5 185 432.9 189.7 439.7 189.5 445.1 191.8 446.9 195.2 447.8 193 451.8 194.4 456.4 193.7 458.3 194.9 459.7 205 456.1 207.4 459.4 211 458.3 212 460.4 212.6 458.5 215 460.6 214.3 461.2 216 459.1 215.9 459 220.4 457 220.3 454.4 223.5 448.3 224 450.1 226.9 447 229.1 448.7 230.7 447.6 233.9 448.2 237 447.1 238.1 447.4 239 449.5 238.7 448.6 241.2 453 240.8 453.5 244.4 458.2 247.2 459.5 249.5 461.6 249.4 462.3 247.6 463.3 248.3 463 251.9 460.9 251.5 459.9 254.7 461 256.9 458.7 258 459.6 260.9 458.6 260.1 458.3 261.5 456.3 261.3 457.9 264.4 460.1 265.4ZM402.6 177L404 174.1 401.6 173.7 403.7 173.8 402.5 172.7 404.2 172.2 404.4 170.4 402.4 169.4 403.8 166.6 397.7 164 398.8 162.2 400 164 401.2 163.1 401.2 159.8 403.3 159.8 402.7 157.7 407.3 153.3 407.1 150 400.4 144.4 397.1 143.3 394.9 140 396 132.5 395 131 398.4 132.4 400.8 129.8 400.3 128.3 396.4 126.4 396.1 123.2 394.3 122.4 394.2 120.5 395.7 118 398.1 118.9 399.2 116.9 401 116.9 402.1 113.6 403.5 114.1 405.1 112.3 407.5 112.1 409.5 113.3 409.6 114.8 410.8 114 413.2 115.7 414.8 115.8 414.7 113.6 412.4 112.2 411.3 108.7 413 105.7 413.2 101.6 407.6 99.7 405.6 96.4 403.5 96.6 403.2 94.2 404.3 93.7 402.6 92.8 404.1 91.3 398.6 90 397.1 86.6 399.2 85.5 400.4 79 405.1 75.9 406.3 77.4 406.8 76.3 409 76.2 407.5 75.1 409.1 74.6 407.9 73.6 408.3 71.8 409.9 72.2 412.4 69.5 414.7 69.8 417.6 66.5 419.2 66.3 419.4 64.7 424 62.9 426.4 59.5 429.5 58 428.3 56.1 425.4 56.1 425.1 55.2 427.9 53.4 423.9 50.1 424.9 49.3 421.9 48.9 425.2 45.7 425 44.3 418.6 47 416.8 45.5 420.8 38.3 422.4 29.9 421.4 23.5 419 21.5 419.5 19.7 417.9 18 418.9 15.7 416 14.4 415.1 12.4 412.4 12.3 410.7 8.2 409.3 7.7 411.2 3.3 410.9 0.5 414.2 0.4 415.8 5.2 419 7.1 422.9 5.7 425.3 6.8 430.1 6.1 431.6 7.6 438.8 9.4 445.4 4.7 444.7 3.2 446.1 2.5 449.8 2.1 453.4 3.9 456 2.8 458.5 5.6 463.5 5.5 468 7.5 468.3 18.3 471.4 15.1 473.4 16.8 472.9 19.1 475.3 20.2 478 18.7 479.8 21.4 483 21.9 483.3 25.2 485.6 27.5 494.1 27.1 497.8 24.6 501.9 23.9 502.6 25.3 505.9 25.4 507.9 27.9 513.9 27.2 519.2 29.2 520.1 30.2 518.2 33.5 520.6 33.4 521.3 32.1 524.8 33.2 526.8 32.4 528 34.7 534.1 34.6 535.1 38.2 533.8 39.8 535.2 40.4 535.5 42.5 534.3 42.9 533.7 48.6 534.9 50.6 533.8 54 532 55 533.3 54.5 533.9 55.8 531.8 56 531.5 58 530.9 56.7 528.8 58 528.7 59.6 526.7 60 527.2 62.2 524.6 60.9 525.7 64 524 63.3 523.5 64.2 525.4 65.5 523.3 66.8 525.5 67.3 523.2 68.7 525.7 69.9 523.4 71.3 522 70.5 523.4 69.8 521.5 68 522.7 67.3 521.9 65.5 521.4 66.7 518.9 66.1 519.9 68.7 518.5 69.1 520.5 69.6 519.7 70.4 517.1 69.5 517.9 70.2 516 70.9 516.4 72.4 516.9 73.6 518.6 73.5 516.2 74.6 517.2 75.5 518.6 74.3 519.9 77.3 517 77.1 517.5 77.9 515.2 79.6 515 83.5 512.6 83.4 512.7 81 508.6 81.7 505.3 80.7 504.9 78.3 502.8 80.9 499.9 80.7 496.6 78 495 78.1 495.3 77 493.6 77.1 494.4 75.2 491.9 73.1 486.9 72.1 487.1 70.5 485.6 69.3 486 65.7 483.3 62.8 483.6 60.3 484.7 62.3 485.7 60.1 482.2 59.9 483.4 59 483.2 57.5 481.9 57.2 483 55.3 476.2 53.9 474.3 50.9 472.9 53 471.7 52.6 471.7 54.3 470.2 54.2 471.1 54.5 470.7 57 473.5 57 473.7 59.4 474 57.9 475.6 58.1 476.7 59.4 475.4 60.8 476.3 62 477.1 61.1 477.8 62.1 478 60.8 477.9 62.1 479.6 63.1 480.6 61.8 480 65.3 473.7 65.4 471.7 62.5 469.8 62.2 467.4 63.2 468.5 65.8 466.1 66 464.1 64.3 464.5 61.8 460.4 60.8ZM480 340.4L483.1 337.8 481.5 338.4 481.4 335 476.3 329.1 478.2 328.2 475.6 326.3 476.2 322.3 474.7 320.8 476.5 319.6 476.3 316.8 472.6 310.4 473.9 307 472.3 306.7 471.7 304.8 474.1 301.8 470.7 297.6 473.8 295 474.5 291.8 473.2 289.6 470.3 289 469.6 284.6 467.2 285 468 282.9 466.3 280.9 468.4 281.2 467.9 274.7 472 271.9 472.5 269.6 475.2 268.9 475.6 266.7 473 267.7 470.9 267.2 470.7 265.8 465 265.9 464.2 264.6 463.7 266.8 460.1 265.4ZM479.4 341.1L481.9 349.2 481.2 352.5 478.1 354.1 479.6 357.5 478.5 362.3 486.1 371.3 487 375.2 485 376.5 468 379.8 452.4 377.8 444.7 380 438.7 378.2 422.5 379.3 418.6 376.7 415.8 376.5 411.8 377 410.7 378.4 410.2 371.7 407.3 369.6 414.4 353.2 418.1 348.4 415.6 347.7 419.4 347.1 423.8 341 421.1 335.8 411.5 333.7 407 330.1 406.4 331.1 410.4 334.6 419 335.8 422.6 340.4 422.2 341.8 415.7 346.6 413.6 346.8 407.8 357.8 402.1 361.9 396.9 367.9 393.2 368.1 392.4 369.6 388.2 371.3 386.2 371.5 386.2 370.6 375.6 374 375.7 372.6 373.9 371.4 374.8 367.2 374.5 366 372.9 365.9 373 363.6 361.7 361.1 358.9 354.7 359.9 352.5 358.7 351 354.7 349.6 354 352.5 349.8 353.8 349.8 357 345.6 356.8 343.2 353.9 345.4 348.6 345 345.6 340.4 342.2 332.2 341.5 329.5 337.6 324.6 338.3 324.9 333.6 328.3 333.6 328.4 332.3 329.6 332.9 328.5 333.7 330.1 333.6 330.7 332.1 329.4 330.4 330.2 331.9 330.8 330.3 331.2 331.2 331.5 330.3 335.7 330.9 335.8 328.3 332.1 326.5 333 321.5 327.5 319.6 326.6 317.7 326.6 315.9 330 315.5 329.2 311.5 327.6 309.8 320.5 309.8 318.8 307.4 319 303.8 312.9 299.9 310.7 301.1 304.4 295.9 307.7 288 305.6 286.4 308.4 284.7 311.6 284.9 312.9 282.1 311.3 283.4 310 281.9 304.6 281.4 302.9 282.8 296 280.6 291.8 281.8 288.8 281 286.1 277.9 286.3 276.4 280.3 274.6 279.5 271.8 273.7 270.7 270.8 271.5 268.7 270.2 267.8 266.9 265.7 266.8 264.5 263.5 268.7 258.1 268.1 255.4 270.1 254.9 267.5 252.7 267.9 249.8 280.2 249 277.7 244.9 279.4 242.3 287.1 244.1 286.5 250.4 288.5 250.1 291.8 251.9 293.1 250.9 292.2 253.4 295.9 252.8 297.3 254 297 252.4 300 251.9 301.8 249.9 300.7 249.1 300.9 246.7 302.4 243.2 306.4 241.6 307.3 239.4 312.3 239.3 316.3 236.6 324.5 234.8 326.4 236.2 329.8 235.5 331.8 231.3 329.9 225.8 331.7 227.2 334.9 224.9 335.9 226.7 335.3 223.9 336.3 222.9 337.6 222.6 339.7 225 341.6 223.6 351.1 228.3 353.4 228.2 354.4 226.4 351.9 224.5 352.2 223.4 355.7 224.1 355.8 225.2 358.8 224.3 357.7 226 359.1 226.3 360.2 225.1 359.6 220.9 361.1 223 362.7 221.9 362.8 217.6 360.7 216.9 360.7 214.5 359.9 215 358.8 213.2 359.3 212 365.7 212.5 365.1 214.9 367.3 213.9 374 215.8 373.4 213.7 377.4 212.4 376.1 211.1 377.1 209.1 375.9 208.7 376.4 206.8 380.6 209.3 383.8 206 381.5 204.1 389.5 204.7 389.7 202.2 385.8 200.5 385.5 199 385.9 197.8 387.2 199 389.1 198.3 390.8 195.1 394 194.2 394.2 192.1 396.7 189.3 397.3 186.9 395.8 187 396.8 184.5 398.2 184.2 397.3 183 398.5 181.5 397.4 182 397.2 180.5 396.5 181.8 397.2 178.3 394.7 175.9 399.9 177.8 402.5 177.1ZM530.8 58.4L531.6 59.7 530.7 60 529.6 58.7 530.3 58.1ZM474.7 45L474.6 45ZM474.6 45L474.5 46.2ZM474.4 46.3L474.1 46.4 474.4 46.4ZM474.1 46.4L473.6 47.5ZM473.6 47.6L473.5 47.6ZM473.4 47.7L472.6 47.8 472.6 49 472.9 49.5ZM472.9 49.5L472.4 50.4 471.9 50.4ZM471.8 50.4L471.8 50.4ZM471.7 50.3L471.7 50 470.9 50 470.5 49.6ZM470.4 49.6L470.3 49.9 470.3 49.6ZM470.3 49.9L469.9 50.2 470.6 50.1ZM470.6 50.2L470.7 50.6ZM470.7 50.6L470.4 50.8ZM470.4 50.8L470.5 51.2 470 52.1ZM469.9 52.2L469.9 52.2ZM469.8 52.2L469.1 52.2 469.3 52.5 469.1 53 468.8 53 468.9 53.6ZM468.7 54.1L467.8 55.2 466.8 55.3ZM466.8 55.4L466.8 55.6 466.8 55.4ZM466.8 55.7L466 55.7ZM466 55.7L466 55.7ZM465.9 55.6L465.4 56.1ZM465.3 56.1L465.1 56.1ZM464.1 56.2L464.1 56.2ZM463.7 56.2L463.7 56.2ZM463.6 56.2L463.6 56.2ZM463.4 56.3L462.7 55.8 462.5 55.2ZM462.3 55.2L462 54.9ZM461.9 54.9L461.9 54.8ZM461.8 54.8L461 55.5ZM460.8 55.8L460.8 55.8ZM460.8 55.9L460.2 57ZM460.2 57L459.9 57.8ZM459.9 57.8L460.2 58.9 460.7 59.2 460.5 59.6ZM460.5 59.6L460.5 59.6ZM460.4 59.8L460.4 59.8ZM460.4 59.9L460.5 60.5ZM532.3 54L531.9 53.2 532.1 52.9ZM532.1 52.9L532.4 52.7 532 52.6ZM531.8 52.6L531.5 52.6ZM531.5 52.6L531.6 52 532 52.2 532.1 51.8ZM532.1 51.7L533.5 51.8 533.5 51 534.2 50.9 534.2 50.4 533.9 50.4ZM533.7 50.3L533.2 50 531.6 50.1ZM531.6 50.1L531.9 50.2 531.6 50.2ZM532.1 50.2L526.5 50.5 526.4 52.2 524 52.7ZM523.9 52.9L523.2 53.3 523.8 53ZM523.2 53.3L522.8 53.2 522.8 52.9 521.7 52.8ZM521.7 52.8L521.8 52.4 520.7 52.3ZM520.7 52.3L520.7 52.3ZM520.6 52.4L520.7 52.7 519.9 53.2 519.9 53.5 519.8 53.3 518.1 53.6ZM518.2 53.8L518.5 54.2 518.3 54.7 517.9 54.7 517.9 55 517.5 54.8ZM517.5 54.8L517.4 54.7ZM516.4 53.7L515.5 52.7 514.7 53ZM514.5 52.9L514.3 53.3 514.4 52.9ZM514.3 53.3L514.8 53.4 514.4 53.9ZM514.3 54L513.9 54.1 514.3 54ZM513.7 54.1L513.8 53.8 513.3 53.7ZM513.2 53.6L513.8 53.4 513.3 52.9 513.7 53 513.9 52.7 513.4 52.6 513.2 51.7 512.5 51.7ZM512.9 51.4L512.4 51.1 512.7 50.7 512.3 50.5ZM512.3 50.5L512.4 49.9 512 50ZM511.9 49.9L511.9 49.8ZM511.8 49.6L511.3 50 510.9 49.6 510.5 49.9ZM510.5 49.9L510.5 49.9ZM510.4 50L510.2 50.2 510.3 49.9 509.9 49.7 509.7 49.9ZM509.6 49.8L509.6 49.8ZM509.6 49.7L509.4 49.5 509.6 49.3ZM509.4 49.4L509.3 49.2 509.4 49.4ZM509.2 49.2L508.9 49.2ZM508.9 49.1L507.7 48.8ZM507.4 48.8L507.3 48.8ZM507 48.7L506.8 49.6 506.2 49.7 505.9 50.1 504.1 50 502.9 50.4 502.1 49.8ZM501.8 49.6L501.8 49.6ZM501.3 49.1L500.8 48.6 501.3 49.1ZM500.8 48.6L500.3 48.3 499.4 48.9 498.3 48.4 497.9 49 497 49.3ZM496.9 49.3L496.5 49 496.9 49.2ZM495.9 48.9L493.1 48.7ZM493 48.7L492.9 48.6ZM492.8 48.6L492 47.9 490.4 47.6ZM489.9 47.5L489.6 47.4ZM489.4 47.6L488.6 48 487.1 47.1ZM486.9 47.1L486.5 46.9 486.9 47.1ZM486.4 46.8L484.2 46.6ZM484.1 46.6L483.5 46.7ZM483.4 46.5L483.4 46.6ZM483.3 46.6L483.2 46.6ZM482.8 46.5L482.7 46.3ZM482.7 46.3L482.4 46.4 482.7 46.3ZM482.4 46.4L482.3 46 481.6 45.6ZM481.5 45.7L481.5 45.7ZM481 45.6L480.4 45.8 480.9 45.6ZM480.2 45.8L479.8 45.8 480 46.2 479 46.9 476.6 45.9ZM460.5 61.7L455.7 62.9 455.2 64.1 454.9 60.1 459.7 59.9 459.5 58.2 456.7 59 455.3 56.2 456.6 55.4 451.5 52.4 451.4 50 447.6 50.9 444.6 47.3 442.6 47.3 442.2 45.3 438.7 44.8 437.2 39.1 432 49.1 433.6 51.4 434.9 48.8 442.3 50.7 444.8 57.3 442.5 58.1 440 56.7 438.9 59.1 437.1 59.3 437.6 60.4 433.2 62.6 433.1 66.6 421.7 71.5 420.5 75.9 422.1 76.5 422.1 79.6 419.2 80.5 418.1 84.8 415.6 87.1 417.5 91.1 416.7 92.9 419.7 96.3 422.1 94.7 423.9 95.6 425.7 94.1 427.9 94.2 427.7 95.9 435 100.4 434.6 101.3 436.7 103.2 440.2 103.8 439.6 108.3 443.3 109.1 442.8 110.8 445.5 111.9 445.9 114.2 450.5 113.7 453.2 115 453.1 116.2 456.6 116.7 457.1 114.8 459.4 114.4 459.6 115.6 461.2 114.8 460.5 113.1 464 113.2 465.9 117.5 465.3 120.3 464.1 120.7 466 121.6 465.9 123.8 468.9 126.4 470.4 125.6 471.9 127.8 477.2 127.9 477.1 130.5 475.7 129.8 473.7 131.1 474 134.1 472.2 134.8 473.2 136.3 471.5 137.1 468.3 136.1 466.2 133.8 463.7 136.7 461.2 135.4 459.9 136.3 457.4 134.2 450.8 134.5 448 136.4 443.2 134.1 439.5 134.9 440.6 138.7 439.4 139.6 440.1 142.8 439 144.4 440.1 145.6 437.7 149.8 436.3 150.1 436.7 151.4 432.7 152 431.5 153.6 433.1 155.3 432 156.7 428.2 155 427.1 156.2 427.3 153.5 424.9 150.7 419.1 152.3 421.2 155.3 420.1 155.8 420.9 158.1 418.9 159.2 419 161.1 418.2 159.9 417.3 160.6 417 162.8 414.8 163.2 414.1 166.6 410.8 169.8Z" fill="none" stroke="#1B432E" stroke-width="2.5" stroke-linejoin="round" stroke-linecap="round" /><path d="M410.5 170.2L419.3 180.7 423.2 183.9 427.5 185 432.9 189.7 439.7 189.5 445.1 191.8 446.9 195.2 447.8 193 451.8 194.4 456.4 193.7 458.3 194.9 459.7 205 456.4 206.7 456.6 208.5 454.4 209.2 455.3 209.6 453.3 210.1 452 212.8 453.3 214.1 451.8 215.8 446.8 212 446.1 214.9 444.1 215.3 444.8 218 440.4 219.6 444 221.7 440.8 222.2 441.7 226.6 439.9 226.5 439.8 224.3 437.8 227.8 437.1 226.6 435.1 227.2 433.4 226.1 432.2 227.6 427.9 227.3 425.6 228 425.4 230.8 422.4 230.1 419.6 232.6 416.2 231.3 415.5 233.1 413.9 233.3 412.3 230.6 413.9 229.3 412 228.3 410.5 225.2 407.8 225.2 407.6 227.8 405 225.4 402.6 225.4 399.8 222.2 399.5 220.3 401 219.9 399.8 216.7 400.6 213 403 211.7 404.1 208.1 403 207.8 403.9 205.6 403 205 405.6 202.7 405 201.5 408.7 202.1 410.3 199.9 409.7 198.6 411.5 198.4 411.6 197.3 410.7 193.8 407.1 191.9 408.3 183.5 406.1 182.1 405.8 179.3 402.5 178 402.7 175.8 404.2 175 401.6 173.7 403.7 173.8 402.5 172.7 404.2 172.2 404.4 170.4 402.4 169.4 403.8 166.6 397.7 164.2 398.8 162.2 400 164 401.2 163.1 401.2 159.8 403.3 159.8 403 157.6 407.7 163.4 407.5 169.3 409.8 171.1 410.5 170.2ZM440.7 313.3L441 309.9 444.5 311.4 447.2 306.4 449.5 307.2 453.5 312.9 453.2 315.1 457 317.7 456.9 319.2 461.1 321.9 461.3 323.4 464.6 323.3 463.5 326.1 464.2 330.4 466.6 329 469.7 331.3 471 330.1 473.7 332.1 474.3 334.3 477.9 334.9 478.3 337.8 480.6 340.1 479.1 342 481.9 349.2 481.2 352.5 478.1 354.1 479.6 357.5 478.5 362.3 486.1 371.3 486.5 375.8 469.6 379.7 452.4 377.8 444.7 380 438.7 378.2 422.5 379.3 418.6 376.7 415.8 376.5 412.1 376.9 410.7 378.4 410.2 371.7 407.3 369.6 414.4 353.2 423.8 341 421.1 335.8 414 334.4 415.5 332.4 416 323.7 419.3 320.9 418 316.8 425.8 313.3 425.5 311.5 428.4 311.9 429.9 314.5 427.8 315.6 429.2 316.7 429 318.2 432.5 319.3 432.7 317.6 434.7 318 437.5 316.3 438.1 313.2 439.8 314.2 440.7 313.3ZM336.7 238.9L336.1 243 334.2 243.6 335.6 244.3 337 248.6 335.4 248.3 334.3 250.6 331.5 250.9 331.6 252.3 334.3 252.4 333.4 255.8 329.3 258.7 327.9 265.4 329.3 267.4 327.1 268.3 324.7 273.3 326.7 275.5 322.6 286 323.7 289.4 317.5 293.7 313.8 300.7 312.9 299.9 310.7 301.1 304.3 295.4 307.7 288 305.6 286.4 308.4 284.7 311.6 284.9 312.9 282.1 311.3 283.4 310 281.9 304.6 281.4 302.9 282.8 296 280.6 291.8 281.8 288.8 281 286.1 277.9 286.3 276.4 280.3 274.6 279.5 271.8 273.7 270.7 270.8 271.5 268.7 270.2 267.8 266.9 265.7 266.8 264.5 263.5 268.7 258.1 268.1 255.4 270.1 254.9 267.5 252.7 267.9 249.8 280.2 249 277.7 244.9 279.4 242.3 287.1 244.1 286.5 250.4 288.5 250.1 291.8 251.9 293.1 250.9 292.2 253.4 295.9 252.8 297.3 254 297 252.4 300 251.9 301.8 249.9 300.7 249.1 300.9 246.7 302.4 243.2 306.4 241.6 307.3 239.4 312.3 239.3 316.3 236.6 324.5 234.8 326.4 236.2 330.3 235 333.1 235.9 336.7 238.9ZM378.1 286.1L376.9 287.3 378.7 289.2 377.7 290.3 384.7 291.7 385.2 294 388.3 294.5 389 296.4 392.6 296.2 394.2 302.2 397.5 307.1 400.1 308.4 399.5 310.9 402.6 313.5 394 316.6 389.3 314.3 387.2 317.3 386.2 325.9 391.5 326.8 389.9 333.5 391.9 335.5 390.5 336.3 390 339.8 388.1 341.1 376 342.2 374.9 343.2 376 345.1 373.9 347.7 375.2 348 375.6 351 377.5 351.4 375.3 352.2 375.1 354.8 373.2 355.3 373.7 358.4 371.7 361.7 372.6 363.5 369.6 363.6 360.8 360.2 358.9 354.7 359.9 352.5 358.3 350.9 358.7 349.5 356.5 345.7 352.3 342.2 353.4 338.5 355.4 338.2 354.5 338 355 332.4 358.1 332.9 358.4 331.6 356 329.3 357 327.8 353.7 325.3 355.9 323 360.5 321.3 359.6 320.4 354.8 321.7 354.2 319.9 350.1 319.3 351.1 317.7 348.8 316.8 350.9 312.1 349.2 305.9 351.5 302.6 348.3 299.7 349.2 298.8 346.8 293.3 347.3 291.5 351.8 291.8 354.7 288.8 361.3 287.9 364.6 285 367.2 284.4 373.9 287.3 378.1 286.1ZM349 227.5L353.7 231.5 361.1 231.6 363 233.3 367 233.5 370.9 235.8 370.6 237.5 373.1 240.6 376.5 241.4 378.7 240.2 376 245.6 374.9 245.3 375.4 246.4 374.3 246 373.3 249.4 374.8 251.3 374.1 253.3 372.2 253.4 373.1 254.6 363.4 249.3 357.4 244.3 351.4 243 344.1 239.3 337.1 239.3 329.9 234.7 331.8 231.3 329.9 225.8 331.7 227.2 334.9 224.9 335.9 226.7 335.3 223.9 336.8 222.7 339.7 225 341.3 223.5 349 227.5ZM480.6 340.1L478.3 337.8 477.9 334.9 474.3 334.3 472.2 330.6 471 330.1 469.7 331.3 466.6 329 464.2 330.4 463.5 326.1 464.6 323.3 461.3 323.4 461.1 321.9 456.9 319.2 457 317.7 453.2 315.1 453.5 312.9 449.5 307.2 447.2 306.4 444.5 311.4 441 309.9 440.7 313.3 437.5 311.2 436 306.2 434 306.1 433.5 304.9 434.1 298.6 432 296.2 435 292.6 434.7 290.8 436.9 289.6 437.8 284.3 441.3 285.7 443.7 285 453.9 289.8 453.7 285.6 455.2 285.1 454.1 282.7 456.3 277.1 454.9 275.1 456.9 272.4 456.4 270.4 457.8 269.8 457.8 267.4 456.7 267.1 457.5 265.6 460.6 265 461.9 266.7 463.7 266.8 464.2 264.6 465 265.9 470.7 265.8 470.9 267.2 473 267.7 475.6 266.7 475.2 268.9 472.5 269.6 472 271.9 467.9 274.7 468.4 281.2 466.3 280.9 468 282.9 467.2 285 469.6 284.6 470.3 289 473.2 289.6 474.5 291.8 473.8 295 470.7 297.6 474.1 301.8 471.7 304.8 472.3 306.7 473.9 307 472.7 310.8 474 311.4 476.3 316.8 476.5 319.6 474.7 320.8 476.2 322.3 475.6 326.3 478.2 328.2 476.3 329.1 481.4 335 481.5 338.4 483.1 337.8 480.6 340.1ZM531.2 58.8L529.6 58.7 531.4 60.1 531.2 58.8ZM475.8 45.7L474.5 45 472.4 50.4 469.9 50 470.7 50.8 467.8 55.2 463.3 56.4 461.2 55.1 459.8 57.7 460.6 61.4 462.8 60.7 464.5 61.8 464.1 64.3 466.1 66 468.5 65.8 467.4 63.2 469.8 62.2 471.7 62.5 473.7 65.4 480 65.3 480.6 61.8 479.6 63.1 477.9 62.1 478 60.8 477.8 62.1 477.1 61.1 476.3 62 475.4 60.8 476.7 59.4 475.6 58.1 474 57.9 473.7 59.4 473.5 57 470.6 56.7 471.4 56.3 470.2 54.2 471.7 54.3 471.7 52.6 472.9 53 474.3 50.9 476.2 53.9 483 55.3 481.9 57.2 483.2 57.5 483.4 59 482.2 59.9 485.7 60.1 484.7 62.3 483.6 60.3 483.3 62.8 486 65.7 485.6 69.3 487.1 70.5 487 72.2 491.9 73.1 494.4 75.2 493.6 77.1 495.3 77 495 78.1 496.6 78 499.9 80.7 502.8 80.9 504.9 78.3 505.1 80.5 507.4 81.5 512.7 81 513.3 83.7 515.6 83 515.2 79.6 517.5 77.9 517 77.1 519.9 77.2 518.6 74.3 517.2 75.5 516.2 74.6 518.6 73.5 516.7 73.2 516 70.9 517.2 71.2 517.1 69.5 519.7 70.4 520.5 69.6 518.5 69.1 519.9 68.7 518.9 66.1 521.4 66.7 521.9 65.5 522.7 67.3 521.5 68 523.4 69.8 522 70.5 523.4 71.3 525.7 69.9 523.2 68.7 525.5 67.3 523.3 66.8 525.4 65.5 523.5 64.2 525.8 63.4 524.6 60.9 527.2 62.2 526.7 60 528.7 59.6 528.8 58 530.9 56.7 531.5 58 532.2 55.8 533.9 55.8 533.3 54.5 532 55.2 532.4 52.7 531.5 52.6 534.1 51.1 533.2 50 526.5 50.5 526.4 52.2 525.1 51.8 523.2 53.3 520.7 52.3 518.2 53.4 517.9 55 515.5 52.7 513.6 54.1 511.8 49.6 510.3 50.2 506.9 48.7 505.9 50.1 502.9 50.4 500.4 48.3 496.9 49.3 481.5 45.6 479 46.9 475.8 45.7ZM348.3 299.7L351.5 302.6 349.2 305.9 350.9 312.1 348.8 316.4 351.1 317.7 350.1 319.3 354.2 319.9 354.8 321.7 359.6 320.4 360.5 321.3 355.9 323 353.7 325.3 357 327.8 356 329.3 358.4 331.6 358.1 332.9 355 332.4 355.2 338.9 353.9 338.1 352.4 339.8 352.3 342.2 356.5 345.7 358.7 350.1 356.5 350.8 354.7 349.6 354 352.5 349.8 353.8 349.8 357 347.3 357.1 345.6 356.8 343.2 353.9 345.4 348.6 344.2 344.9 340.4 342.2 332.2 341.5 329.5 337.6 324.6 338.3 324.9 333.6 328.3 333.6 328.4 332.3 329.6 332.9 328.5 333.7 330.1 333.6 330.7 332.1 329.4 330.4 330.2 331.9 330.8 330.3 331.2 331.2 331.5 330.3 335.7 330.9 335.8 328.3 332.1 326.5 333 321.5 327.5 319.6 326.6 317.7 326.6 315.9 330 315.5 329.2 311.5 326.7 309.5 320.5 309.8 318.8 307.4 319.4 304.3 313.8 300.7 316.4 295 318.5 294.9 330.2 300.8 337.7 306.3 340.2 305.6 340.6 303.2 344.3 304.7 344.7 301.3 348.3 299.7ZM483.3 25.2L479.6 39 481 41.5 483.3 42 485 46.6 481.1 45.6 479 46.9 474.6 45 472.6 47.8 473 49.7 470.5 49.6 468.6 54.4 463.5 56.3 461.6 54.8 459.8 57.7 460.5 61.7 455.7 62.9 455.2 64.1 454.9 60.1 459.7 59.9 459.5 58.2 456.9 59.2 455.3 56.2 456.6 55.4 451.5 52.4 451.4 50 447.6 50.9 447 49.1 445.3 49.3 444.6 47.3 442.6 47.3 442.2 45.3 439.8 45.7 438 43.3 435.9 36.2 439.9 34.4 438 32.9 439.3 25.6 442.3 24.4 443.9 25.4 441.6 22.7 443.9 23.7 448.1 21.9 450.4 22.6 454 16.8 454.2 19.6 460.6 19.7 460.3 17.3 462.8 15.3 468.1 17.1 468.4 18.4 471.4 15.1 473.4 16.8 472.9 19.1 475.3 20.2 478 18.7 479.8 21.4 483 21.9 483.3 25.2ZM437.4 285.1L436.9 289.6 434.7 290.8 435 292.6 432 296.2 434.1 298.6 433.4 304.4 431.2 303.4 427.7 304.1 426.1 302.9 422.1 303.4 421.9 304.6 421.2 302.6 418.1 302.4 417.3 301.1 414.5 302.3 413.9 300.7 412.7 302.4 410.6 302.4 409.4 301 409.2 296.2 408.2 296.1 406.6 296.7 404.9 302.6 405.8 306.1 403.4 306.1 402.8 307.5 400.1 308.4 397.5 307.1 394.2 302.2 392.6 296.2 389 296.4 388.3 294.5 385.2 294 384.7 291.7 377.7 290.3 378.7 289.2 376.9 287.3 378.7 286.1 382.4 288.5 385 288.4 386.6 285.5 385.8 282.6 389.4 281.9 389.9 280.2 389 280 390 279.6 393.1 284 395.6 283.4 399.2 285.8 401.6 285.4 402.3 284 402.9 286 407.9 283.8 409.7 284.3 410.4 282.7 413.3 282.1 412.4 280.6 413.3 278.3 415.8 278.6 419.7 276.3 421.2 271 425.5 270.8 428 272.9 433.9 273.6 435.4 268.3 436.8 268.8 439.8 266.5 441.5 267.5 440 272.6 443.4 272.9 443.8 273.9 443.2 276.3 441.2 276.1 439.8 279.7 437.9 280.5 437.4 285.1ZM373.1 254.6L383.3 264.3 386.8 265.4 386.4 268.3 389.3 271.8 388.9 273.3 391.6 273.7 392.1 272.7 394.2 276.3 392.5 279.6 390.7 280.7 389.1 279.8 389.4 281.9 385.8 282.6 386.6 285.5 385 288.4 382.4 288.5 377.7 286 373.9 287.3 367.2 284.4 364.6 285 361.3 287.9 354.7 288.8 351.8 291.8 347.3 291.5 346.8 293.3 349.2 298.8 344.7 301.3 344.3 304.7 340.6 303.2 340.2 305.6 337.7 306.3 330.2 300.8 317.3 294.9 318.1 293.1 323.7 289.4 322.6 286 326.7 275.5 324.7 273.3 327.1 268.3 329.3 267.4 327.9 265.4 329.3 258.7 333.4 255.8 334.3 252.4 331.6 252.3 331.5 250.9 334.3 250.6 335.4 248.3 337 248.6 335.6 244.3 334.2 243.6 336.1 243 336.7 238.9 344.1 239.3 351.4 243 357.4 244.3 363.4 249.3 373.1 254.6ZM534.2 34.7L535.1 38.2 533.8 39.8 535.2 40.4 535.5 42.5 534.3 42.9 533.7 48.6 534.9 50.6 533.8 54 531.5 52.6 534.1 51 533.1 50.1 526.5 50.5 526.5 52 523.2 53.3 520.7 52.3 518.1 53.6 517.8 55 515.5 52.7 513.2 53.7 513.8 52.9 511.8 49.7 510.3 50.2 507.1 48.7 505.9 50.1 502.9 50.4 500.3 48.3 497 49.3 488.8 48 484.7 46.4 483.3 42 481 41.5 479.6 39 483.3 25.2 485.6 27.5 494.1 27.1 497.8 24.6 501.9 23.9 502.6 25.3 505.9 25.4 507.9 27.9 513.9 27.2 519.2 29.2 520.1 30.2 518.2 33.5 520.6 33.4 521.3 32.1 524.8 33.2 526.8 32.4 528 34.7 534.2 34.7ZM432.3 48.2L433.6 51.4 434.9 48.8 442.3 50.7 444.5 58 440 56.7 438.9 59.1 437.1 59.3 437.6 60.4 433.2 62.6 433.1 66.6 421.7 71.5 420.5 75.9 422.1 76.5 422.1 79.6 419.2 80.5 418.1 84.8 415.6 87.1 417.3 90.3 417.6 94.9 420.2 96.3 422.1 94.7 423.9 95.6 425.7 94.1 427.9 94.2 427.7 95.9 435 100.4 434.6 101.3 436.7 103.2 440.2 103.8 439.9 108.7 436.5 107.7 431.7 110.8 431.6 112.4 427 115.7 427.5 119.2 421.2 119.5 422.5 123 421 123.5 421.2 126.3 424.5 125.9 427.9 127.8 425.6 128.4 424.3 127.2 422.7 129.4 420.7 127.9 418.4 131.2 416.7 128.8 418.3 128.5 417.1 126.3 418.1 123.9 416.5 122.7 417.2 120.2 415.2 117.6 414.7 113.6 411.7 111 413.2 101.6 407.6 99.7 405.6 96.4 403.5 96.6 403.2 94.2 404.3 93.7 402.6 92.8 404.1 91.3 398.6 90 397.1 86.6 399.2 85.5 400.4 79 405.1 75.9 406.3 77.4 406.8 76.3 409 76.2 407.5 75.1 409 74.6 407.9 73.6 408.3 71.8 409.9 72.2 412.4 69.5 414.7 69.8 417.6 66.5 419.2 66.3 419.6 64.6 424 62.9 427.1 59 428.6 59.3 429.5 58 428.4 56.1 426.4 56.5 425.1 55.4 427.9 53.4 425.9 51.3 427.4 48.9 432.3 48.2ZM407.8 330.5L409.6 331.4 409.6 331.8 409.9 331.9 409.7 332.2 409 332.2 407.9 331 407.8 330.5ZM402.6 313.5L394 316.6 389.3 314.3 386.3 319.1 387.1 320.9 386.2 325.9 391.5 326.8 389.9 333.5 391.9 335.5 390.5 336.3 390.1 339.7 388.1 341.1 376 342.2 374.9 343.2 376 345.1 373.9 347.7 375.2 348 375.6 351 377.5 351.4 375.3 352.2 375.1 354.8 373.2 355.3 373.7 358.4 371.7 361.7 372.9 365.9 374.5 366 373.9 371.4 375.7 372.6 375.6 374 386.2 370.6 386.2 371.5 388.2 371.3 392.1 369.8 393.2 368.1 397.1 367.8 402.1 361.9 407.8 357.8 413.6 346.8 420.1 344 422.3 341.6 422.6 340.4 419 335.8 410.5 334.6 406.4 331.1 407 324.4 405.5 320.4 401.6 318.2 402.6 313.5ZM407.6 227.8L405.8 229.8 406.9 231.4 403.8 234.1 404.8 236 404 237.2 405.7 237.2 405.5 238.3 407.3 239.4 403.6 245.3 402.5 243.9 400.8 245 399.1 243.5 396.8 244.2 395.3 242.5 392.1 242.2 390.7 240.1 382.2 241.8 378.9 240.8 376 245.6 374.9 245.3 375.4 246.4 374.3 246 373.3 249.4 374.8 251.3 374.1 253.3 372.2 253.4 383.3 264.3 386.8 265.4 386.4 268.3 389.3 271.8 388.9 273.3 391.6 273.7 392.1 272.7 393 274 394.2 276.4 390.7 280.7 392.7 283.7 395.6 283.4 399.2 285.8 401.6 285.4 402.3 284 402.6 285.9 406 285.4 412.8 282.5 413.3 278.3 415.8 278.6 419.7 276.3 421.2 271 425.5 270.8 428 272.9 433.9 273.6 434.4 269.6 437.6 267.3 433.3 265.4 434.1 264.4 432 262.7 433.2 262 431.7 260.4 432.8 258.3 431.8 257.3 433.7 254.3 431.8 253.6 433.4 252.7 432.5 250.9 434.5 250.7 433.7 250.4 435.6 247.6 433 244.8 428.3 245.6 428.2 244.1 431.4 243 430.9 242 428.9 242.9 428.7 241 428.3 241.7 427.1 240.1 424.8 241 420.9 239.9 418.9 237.4 420.9 233.9 425.4 233.5 422.8 232.4 422.4 230.1 420.1 232.4 416.8 231.2 413.9 233.3 412.3 230.6 413.9 229.3 412 228.3 410.4 225.1 407.8 225.2 407.6 227.8ZM456.6 208.5L453.3 210.2 452 212.8 453.3 214.1 451.8 215.8 446.8 212 446.1 214.9 444.1 215.3 444.8 218 440.4 219.6 444 221.7 440.8 222.2 441.7 226.6 439.9 226.5 439.8 224.3 437.8 227.8 437.1 226.6 435.1 227.2 433.4 226.1 432.2 227.6 425.8 227.8 426 230.4 423.2 230.2 422.7 232.2 425.4 234 420.9 233.9 418.9 237.3 420.9 239.9 424.8 241 427.1 240.1 428.3 241.7 428.7 241 428.9 242.9 430.9 242 431.4 243 428.2 244.1 428.3 245.6 433 244.8 435.9 248.1 434.1 249.4 434.4 250.8 432.5 250.9 433.4 252.7 431.8 253.5 433.7 254.3 431.9 257.1 432.8 258.3 431.7 260.5 433.2 262 432 262.7 433.2 262.7 433.5 265.7 436.2 267.2 441.1 266.7 440 272.6 443.8 273.7 443.2 276.3 441.2 276.1 439.8 279.7 437.9 280.5 437.4 285.1 443.7 285 453.9 289.8 453.7 285.5 455.2 285.1 454.1 282.7 456.3 277.1 454.9 275.1 457.9 269.2 457.8 267.4 456.7 267.1 457.5 265.6 460.2 265.7 457.9 264.4 456.3 261.3 458.3 261.5 458.6 260.1 459.6 260.9 458.7 258 461 256.9 460.2 253.7 460.9 251.5 463 251.9 462.4 250.2 463.4 249 462.3 247.6 461.6 249.4 459.5 249.5 458.3 247.3 453.5 244.4 453 240.8 448.6 241.2 449.5 238.7 447.4 239 447.1 238.1 448.2 237 448.6 229.8 447 229.1 450.1 227 448.3 224 454.4 223.5 457 220.3 459 220.4 459.1 215.9 461.2 216 460.6 214.4 458.5 215 460.4 212.6 458.3 212 459.4 211 456.6 208.5ZM395.7 131.6L398.4 132.4 400.8 129.8 400.3 128.3 395.8 125.5 396.1 123.2 394.3 122.4 394.6 119.7 395.7 118 398.1 118.9 399.2 116.9 401 116.9 402.1 113.6 403.5 114.1 405.1 112.3 407.5 112.1 409.5 113.3 409.6 114.8 410.8 114 414.3 115.4 416.4 118.6 418.3 128.5 416.7 128.8 418.4 131.2 419.9 129.9 419.6 128.3 422.7 129.4 424.3 127.2 425.6 128.4 427.6 128.2 428.2 126.9 429.9 128.2 435.1 128.8 438.6 127.9 437.9 127.1 439.9 127.6 439.2 129.5 439.9 130.6 440.9 130.1 439.1 134.6 440.6 138.7 439.4 139.6 440.1 142.8 439 144.4 440.1 145.6 437.7 149.8 436.3 150.1 436.2 152 434.2 151.2 431.5 153.6 433.1 155.3 432 156.7 428.2 155 427.1 156.2 427.3 153.5 424.9 150.7 419.1 152.3 421.2 155.3 420.1 155.8 420.9 158.1 418.9 159.2 419 161.1 418.2 159.9 417.3 160.6 417 162.8 414.8 163.2 414.1 166.6 409.8 171.1 407.1 168.3 407.7 163.4 403 157.6 407.3 153.3 407.1 150 400.4 144.4 397.1 143.3 394.9 140 395.7 131.6ZM459.7 5.1L468 7.5 468.1 17.1 462.8 15.3 460.3 17.3 460.6 19.7 454.2 19.6 454 16.8 450.4 22.6 448.1 21.9 443.9 23.7 441.6 22.7 441.5 20.5 439.1 17.3 438.1 17.6 437.8 15.9 436 15.5 438.1 14.2 437.7 10.7 445.4 4.7 444.7 3.2 446.1 2.5 449.8 2.1 453.4 3.9 455.6 2.7 457.8 5.2 459.7 5.1ZM433.4 304.4L434.3 307.5 431.5 311.2 425.8 310.8 425.8 313.3 418 316.8 419.3 320.9 416 323.7 415.5 332.4 414 334.4 407 330.1 405.9 321.1 401.8 318.7 402.7 313.8 399.5 310.9 400.6 307.7 405.8 306.1 404.9 302.6 406.6 296.7 409.2 296.2 409.4 301 410.6 302.4 412.7 302.4 413.9 300.7 414.5 302.3 417.3 301.1 418.1 302.4 421.2 302.6 421.9 304.6 422.1 303.4 426.1 302.9 427.7 304.1 431.2 303.4 433.4 304.4ZM428.4 6L438.8 9.4 437.7 10.7 438.1 14.2 436 15.5 439.3 17.5 441.5 20.5 441.9 23.5 444 25.1 442.3 24.4 438.6 26.9 439.2 29.2 438 32.9 439.9 34.4 436 36 437.2 39.3 435 41.7 433.2 47.5 427.4 48.9 425.4 51.3 423.9 50.1 424.8 49.2 423 49.7 421.8 48.4 425.2 45.7 425 44.3 418.6 47 416.8 45.5 420.8 38.3 422.4 31.5 421.4 23.5 419 21.5 419.5 19.7 417.9 18 418.9 15.7 416 14.4 415.1 12.4 412.4 12.3 409.1 6.9 411.7 0 415.2 1.3 415.8 5.2 419 7.1 422.9 5.7 425.3 6.8 428.4 6ZM454.6 116.4L450.5 113.7 445.9 114.2 445.5 111.9 442.8 110.8 443.3 109.1 440.4 108.2 438.2 109 436.4 107.7 427 115.7 427.5 119.2 421.2 119.5 422.5 123 421 123.5 421.2 126.2 424.4 125.9 427.6 128 429.1 127 429.9 128.2 434.7 128.8 439.5 127.2 439.2 129.5 439.9 130.6 440.9 130.1 439.2 135 443.2 134.1 445.5 135.6 447.1 135.2 447.6 136.4 450.8 134.5 457.4 134.2 459.9 136.3 461.2 135.4 463.7 136.7 466.2 133.8 468.3 136.1 471.5 137.1 473.2 136.3 472.5 134 474 134.1 473.3 131.7 475.7 129.8 477.1 130.5 477.2 127.9 471.9 127.8 470.4 125.6 468.9 126.4 465.9 123.8 466 121.6 464.1 120.7 465.3 120.3 465.9 117.5 464 113.2 460.5 113.1 460.8 115.1 457.2 114.7 456.6 116.7 454.6 116.4ZM402.6 177L402.7 178.6 405.8 179.3 406.1 182.1 408.3 183.5 407.1 191.9 410.7 193.8 411.6 197.3 411.5 198.4 409.7 198.6 410.3 199.9 408.7 202.1 404.7 201.7 405.6 202.7 403 205 403.9 205.6 403 207.8 404.1 208.1 403 211.7 400.6 213 399.8 216.7 401.1 218.7 399.5 220.3 399.8 222.2 402.6 225.4 405 225.4 407.6 227.5 405.8 229.8 406.9 231.4 403.9 233.5 404.8 236 404 237.2 405.7 237.2 405.5 238.3 407.3 239.4 403.7 245.2 402.5 243.9 400.8 245 399.1 243.5 396.8 244.2 395.3 242.5 392.1 242.2 390.7 240.1 382.2 241.8 378.3 240.1 376.5 241.4 373.1 240.6 370.6 237.5 370.9 235.8 367 233.5 363 233.3 361.1 231.6 353.7 231.5 351 230 349 227.5 353.4 228.2 354.4 226.4 351.9 223.5 355.7 224.1 355.8 225.2 358.8 224.3 357.7 226 359.1 226.3 360.2 225.1 359.6 220.9 361.1 223 362.7 221.9 362.8 217.6 360.7 216.9 360.7 214.5 359.9 215 358.8 213.2 359.3 212 365.7 212.5 365.1 214.9 367.3 213.9 374 215.8 373.4 213.7 377.4 212.4 376.1 211.1 377.1 209.1 375.9 208.7 376.4 206.8 380.6 209.3 383.8 206 381.5 204.1 389.5 204.7 389.7 202.2 385.8 200.5 385.5 199 385.9 197.8 387.2 199 389.1 198.3 390.8 195.1 394 194.2 394.2 192.1 396.7 189.3 397.3 186.9 395.8 187 396.8 184.5 398.2 184.2 397.3 183 398.5 181.5 397.4 182 397.2 180.5 396.5 181.8 397.2 178.3 394.7 175.9 399.9 177.8 402.6 177ZM419.4 347.1L418.1 348.4 415.6 347.7 419.4 347.1ZM440.7 313.3L439.8 314.2 438.1 313.2 437.5 316.3 434.7 318 432.7 317.6 432.5 319.3 429 318.2 429.2 316.7 427.8 315.6 429.9 314.5 429.4 312.2 427.3 312.5 425.5 311.2 431 311.5 434.7 305.9 436 306.2 437.5 311.2 440.7 313.3Z" fill="none" stroke="#1B432E" stroke-width="0.8" stroke-opacity="0.3" stroke-linejoin="round" stroke-linecap="round" /></g><style>
    @import url('https://fonts.googleapis.com/css2?family=Caveat:wght@600&amp;family=Noto+Serif+Devanagari:wght@600&amp;display=swap');
    .state-title {
      font-family: 'Noto Serif Devanagari', serif;
      font-size: 42px;
      font-weight: 600;
      fill: #1B432E;
      text-anchor: start;
    }
    .watermark {
      font-family: 'Caveat', cursive;
      font-size: 22px;
      font-weight: 600;
      fill: #1B432E;
      opacity: 0.7;
      text-anchor: middle;
    }
  </style><g transform="translate(460, 65)"><text class="state-title" x="0" y="0">पश्चिम बंगाल</text><path d="M -20,15 C 50,22 150,22 220,12" fill="none" stroke="#1B432E" stroke-width="1.5" /><polygon points="100,15 104,18 100,21 96,18" fill="#1B432E" /><path d="M 220,12 C 235,10 248,3 255,-5" fill="none" stroke="#1B432E" stroke-width="1.5" /><path d="M 235,9 C 236,3 242,3 243,8 C 242,12 236,12 235,9 Z" fill="#1B432E" /><path d="M 246,2 C 248,-3 253,-3 255,2 C 253,6 248,6 246,2 Z" fill="#1B432E" /><path d="M 255,-5 C 258,-10 263,-9 264,-4 C 261,-1 257,-1 255,-5 Z" fill="#1B432E" /></g><g transform="translate(400, 565)"><text class="watermark" x="0" y="0">krashimitra.in</text><path d="M 55,-12 C 58,-16 63,-15 64,-10 C 61,-7 57,-7 55,-12 Z" fill="#1B432E" opacity="0.7" /></g></svg>